<svg fill="none" height="500" viewBox="0 0 800 500" width="800" xmlns="http://www.w3.org/2000/svg"><path d="m0 0h800v500h-800z" fill="#fff15a"/><g fill="#222"><path d="m358.012 320.004c-5.138 0-10.08-2.842-12.53-7.742l-43.484-86.954-43.47 86.954c-3.458 6.916-11.872 9.716-18.788 6.258s-9.716-11.872-6.258-18.788l56-112c2.366-4.732 7.21-7.728 12.516-7.728s10.15 2.996 12.516 7.742l56 112c3.458 6.916.658 15.33-6.258 18.788-2.002.994-4.144 1.47-6.244 1.47z"/><path d="m414.012 320.004c-4.522 0-8.96-2.184-11.662-6.23-4.284-6.44-2.548-15.12 3.878-19.418l66.528-44.352-66.528-44.352c-6.44-4.284-8.176-12.978-3.878-19.418 4.284-6.426 12.978-8.176 19.418-3.878l84 56c3.892 2.59 6.23 6.972 6.23 11.648s-2.338 9.058-6.23 11.648l-84 56c-2.394 1.582-5.096 2.352-7.756 2.352z"/><path d="m553.984 320.004c-7.728 0-14-6.272-14-14v-112c0-7.728 6.272-14 14-14s14 6.272 14 14v112c0 7.728-6.258 14-14 14z"/></g></svg>