<svg fill="none" height="501" viewBox="0 0 800 501" width="800" xmlns="http://www.w3.org/2000/svg"><path d="m0 .900024h800v500h-800z" fill="#33312f"/><g fill="#ebe8e4"><path d="m166.168 294.485h-19.168v-88.485h19.168z"/><path d="m182.936 294.485v-67.757h16.049l1.106 8.848c3.783-6.57 11.348-10.364 20.053-10.364 14.754 0 24.079 9.955 24.079 26.424v42.849h-18.162v-38.303c0-8.34-2.4-14.788-11.724-14.788-10.342 0-13.273 6.824-13.273 16.049v37.042z"/><path d="m297.8 294.485h-9.954c-21.812 0-25.595-9.734-25.595-22.63v-30.97h-8.848v-13.87h8.848v-16.967h18.029v16.967h16.259v13.87h-16.259v29.709c0 6.194 2.4 8.594 10.463 8.594h7.057z"/><path d="m336.767 296c-24.71 0-30.638-14.379-30.638-27.651v-15.452c0-13.151 6.813-27.652 30.383-27.652 22.951 0 29.631 14.534 29.631 27.552v12.742h-42.118v4.679c0 6.57 2.898 12.012 12.609 12.012s11.978-4.17 11.978-8.218v-.885h16.901v1.393c0 8.97-4.535 21.48-28.746 21.48zm-12.742-42.981h24.587v-2.898c0-5.431-2.897-11.382-12.233-11.382-9.711 0-12.354 5.94-12.354 11.382z"/><path d="m378.753 294.485v-67.757h16.004l1.261 10.363c3.904-7.2 11.857-11.503 23.703-11.503v17.2h-3.396c-13.87 0-19.422 6.57-19.422 17.696v34.001z"/><path d="m466.386 287.406c-3.031 5.187-9.336 8.594-19.544 8.594-16.768 0-22.697-8.848-22.697-20.606 0-14.279 9.203-20.606 24.212-20.606h16.9v-4.546c0-6.194-2.643-10.872-10.972-10.872-7.056 0-11.06 2.909-11.06 7.455v1.006h-17.067v-1.006c0-11.625 8.451-21.613 28.625-21.613 21.69 0 28.625 11.127 28.625 25.782v43.491h-16.138zm-1.106-17.321v-2.655h-14.025c-5.531 0-8.849 1.892-8.849 7.334 0 4.302 2.522 7.2 9.457 7.2 8.849.011 13.383-4.8 13.383-11.879z"/><path d="m555.777 268.946v1.261c0 12.266-7.82 25.782-29.377 25.782-23.703 0-30.516-14.534-30.516-27.652v-15.44c0-13.151 6.813-27.652 30.516-27.652 22.321 0 29.123 13.528 29.123 25.783v1.393h-17.775v-1.67c0-5.055-2.776-10.618-11.348-10.618-9.578 0-12.354 6.448-12.354 12.51v15.672c0 6.073 2.776 12.643 12.354 12.643 8.572 0 11.348-5.531 11.348-10.74v-1.272z"/><path d="m606.844 294.485h-9.955c-21.844 0-25.605-9.734-25.605-22.63v-30.97h-8.848v-13.87h8.848v-16.967h18.029v16.967h16.27v13.87h-16.259v29.709c0 6.194 2.4 8.594 10.463 8.594h7.057z"/><path d="m652.613 279.188v15.297h-30.505v-15.297z"/></g></svg>