<svg fill="none" height="1080" viewBox="0 0 1620 1080" width="1620" xmlns="http://www.w3.org/2000/svg" xmlns:xlink="http://www.w3.org/1999/xlink"><clipPath id="a"><path d="m250 363h1200v353.165h-1200z"/></clipPath><path d="m0 0h1620v1080h-1620z" fill="#fff"/><g clip-path="url(#a)"><g fill="#1d465c" opacity=".6"><path d="m343.636 474.257v20.716c.023.387-.036.775-.173 1.138-.138.363-.351.693-.626.968-.275.274-.605.487-.968.625-.363.137-.752.196-1.139.173h-28.931v106.062c.024.388-.035.776-.173 1.139s-.351.692-.626.967c-.274.274-.604.488-.967.625-.364.138-.752.197-1.14.173h-24.216c-.388.024-.776-.035-1.139-.173-.364-.137-.693-.351-.968-.625-.275-.275-.488-.604-.626-.967s-.197-.751-.173-1.139v-106.062h-28.866c-.388.023-.776-.036-1.139-.173-.363-.138-.693-.351-.968-.625-.275-.275-.488-.605-.626-.968-.137-.363-.196-.751-.173-1.138v-20.716c-.023-.387.036-.775.173-1.138.138-.363.351-.693.626-.967.275-.275.605-.488.968-.626.363-.137.751-.196 1.139-.173h87.76c.393-.033.789.019 1.16.152s.709.345.991.621c.282.275.501.608.642.976.142.368.202.762.178 1.155z" opacity=".6"/><path d="m473.757 474.257v129.682c.024.388-.035.776-.173 1.139-.137.363-.351.692-.625.967-.275.274-.605.488-.968.625-.363.138-.752.197-1.14.173h-24.216c-.388.024-.776-.035-1.139-.173-.364-.137-.693-.351-.968-.625-.275-.275-.488-.604-.626-.967-.137-.363-.196-.751-.173-1.139v-50.304h-47.27v50.304c.023.388-.036.776-.173 1.139-.138.363-.351.692-.626.967-.275.274-.605.488-.968.625-.363.138-.751.197-1.139.173h-24.087c-.388.024-.776-.035-1.14-.173-.363-.137-.693-.351-.967-.625-.275-.275-.488-.604-.626-.967s-.197-.751-.173-1.139v-129.682c-.024-.387.035-.775.173-1.138s.351-.693.626-.967c.274-.275.604-.488.967-.626.364-.137.752-.196 1.14-.173h24.216c.388-.023.776.036 1.139.173.364.138.694.351.968.626.275.274.488.604.626.967s.197.751.173 1.138v52.854h47.141v-52.854c-.023-.387.036-.775.173-1.138.138-.363.351-.693.626-.967.275-.275.604-.488.968-.626.363-.137.751-.196 1.139-.173h24.216c.388-.023.777.036 1.14.173.363.138.693.351.968.626.274.274.488.604.625.967.138.363.197.751.173 1.138z" opacity=".6"/><path d="m579.148 583.224v20.715c.024.388-.035.776-.173 1.139s-.351.692-.626.967c-.275.274-.604.488-.968.625-.363.138-.751.197-1.139.173h-72.843c-.387.024-.776-.035-1.139-.173-.363-.137-.693-.351-.968-.625-.275-.275-.488-.604-.626-.967-.137-.363-.196-.751-.173-1.139v-129.682c-.023-.387.036-.775.173-1.138.138-.363.351-.693.626-.967.275-.275.605-.488.968-.626.363-.137.752-.196 1.139-.173h72.714c.388-.023.776.036 1.139.173.363.138.693.351.968.626.275.274.488.604.626.967.137.363.196.751.173 1.138v20.716c.023.387-.036.775-.173 1.138-.138.363-.351.693-.626.968-.275.274-.605.487-.968.625-.363.137-.751.196-1.139.173h-45.591v26.459h42.814c.388-.024.776.035 1.139.173.364.138.694.351.968.625.275.275.488.604.626.967s.197.752.173 1.139v20.683c.023.389-.036.779-.173 1.143-.138.365-.35.696-.625.973-.274.277-.603.493-.966.635-.364.141-.753.204-1.142.186h-42.814v29.395h45.591c.404-.045.812.001 1.197.134.384.132.734.348 1.024.632s.514.629.655 1.01.195.788.159 1.193z" opacity=".6"/></g><g fill="#1d465c" opacity=".8"><path d="m723.155 474.257v129.682c.023.388-.036.776-.173 1.139-.138.363-.351.692-.626.967s-.604.488-.968.625c-.363.138-.751.197-1.139.173h-27.51c-.717.082-1.442-.049-2.084-.376-.643-.327-1.176-.836-1.532-1.463l-47.529-85.444v84.379c.024.388-.035.776-.173 1.139s-.351.692-.625.967c-.275.275-.605.488-.968.625-.364.138-.752.197-1.14.173h-24.216c-.388.024-.776-.035-1.139-.173-.364-.137-.693-.35-.968-.625s-.488-.604-.626-.967c-.137-.363-.196-.751-.173-1.139v-129.682c-.023-.387.036-.775.173-1.138.138-.363.351-.693.626-.967.275-.275.604-.488.968-.626.363-.137.751-.196 1.139-.173h27.316c.706-.046 1.41.112 2.029.455.618.344 1.125.858 1.458 1.481l47.852 85.573v-84.605c-.024-.387.035-.775.173-1.138s.351-.693.625-.967c.275-.275.605-.488.968-.626.364-.137.752-.196 1.14-.173h24.216c.388-.023.776.036 1.139.173.364.138.693.351.968.626.275.274.488.604.626.967.137.363.196.751.173 1.138z" opacity=".8"/><path d="m828.544 583.224v20.715c.024.388-.035.776-.173 1.139s-.351.692-.626.967c-.275.274-.604.488-.968.625-.363.138-.751.197-1.139.173h-72.843c-.387.024-.776-.035-1.139-.173-.363-.137-.693-.351-.968-.625-.275-.275-.488-.604-.626-.967-.137-.363-.196-.751-.173-1.139v-129.682c-.023-.387.036-.775.173-1.138.138-.363.351-.693.626-.967.275-.275.605-.488.968-.626.363-.137.752-.196 1.139-.173h72.649c.388-.023.776.036 1.14.173.363.138.693.351.967.626.275.274.488.604.626.967s.197.751.173 1.138v20.716c.024.387-.035.775-.173 1.138s-.351.693-.626.968c-.274.274-.604.487-.967.625-.364.137-.752.196-1.14.173h-45.526v26.459h42.814c.388-.024.776.035 1.139.173.364.138.694.351.968.625.275.275.488.604.626.967s.197.752.173 1.139v20.683c.023.389-.036.779-.173 1.143-.138.365-.35.696-.625.973-.274.277-.603.493-.966.635-.364.141-.753.204-1.142.186h-42.814v29.395h45.72c.394-.025.788.036 1.156.177.368.142.701.361.977.642.276.282.488.62.621.991s.185.766.152 1.159z" opacity=".8"/><path d="m957.118 606.843h-25.508c-.707.069-1.418-.069-2.048-.395s-1.152-.828-1.504-1.444l-24.41-40.85-24.346 40.85c-.333.624-.839 1.138-1.458 1.481-.618.343-1.323.501-2.029.455h-25.572c-2.325 0-3.229-1.355-1.937-3.485l39.521-65.825-37.584-62.792c-1.163-2.13-.388-3.485 1.937-3.485h25.573c.706-.046 1.41.112 2.028.455.619.344 1.125.858 1.459 1.481l22.602 37.559 22.602-37.559c.333-.623.84-1.137 1.458-1.481.618-.343 1.323-.501 2.029-.455h25.572c2.325 0 3.229 1.355 1.937 3.485l-37.842 62.695 39.521 65.825c1.227 2.13.388 3.485-2.001 3.485z" opacity=".8"/><path d="m1071.29 474.257v20.716c.02.387-.04.775-.17 1.138-.14.363-.35.693-.63.968-.27.274-.6.487-.97.625-.36.137-.75.196-1.14.173h-28.86v106.062c.02.388-.04.776-.18 1.139-.13.363-.35.692-.62.967-.28.274-.61.488-.97.625-.36.138-.75.197-1.14.173h-24.21c-.39.024-.78-.035-1.14-.173-.37-.137-.7-.351-.97-.625-.28-.275-.49-.604-.63-.967-.13-.363-.19-.751-.17-1.139v-106.062h-28.866c-.388.023-.776-.036-1.139-.173-.364-.138-.694-.351-.968-.625-.275-.275-.488-.605-.626-.968s-.197-.751-.173-1.138v-20.716c-.024-.387.035-.775.173-1.138s.351-.693.626-.967c.274-.275.604-.488.968-.626.363-.137.751-.196 1.139-.173h87.756c.39-.023.78.036 1.14.173.37.138.7.351.97.626.28.274.49.604.63.967.13.363.19.751.17 1.138z" opacity=".8"/></g><path d="m1273.28 386.426c30.32-.006 59.96 8.972 85.17 25.799 25.21 16.826 44.86 40.746 56.46 68.735 11.61 27.988 14.65 58.786 8.74 88.501s-20.51 57.01-41.94 78.435c-21.44 21.425-48.75 36.017-78.48 41.929-29.73 5.913-60.55 2.882-88.56-8.711-28.01-11.592-51.95-31.224-68.79-56.414-16.85-25.19-25.84-54.806-25.84-85.102.05-40.605 16.2-79.535 44.93-108.25 28.73-28.716 67.68-44.871 108.31-44.922zm0-23.426c-34.95 0-69.11 10.357-98.17 29.762s-51.71 46.986-65.09 79.255c-13.37 32.269-16.87 67.777-10.06 102.034 6.82 34.257 23.65 65.724 48.37 90.421 24.71 24.698 56.2 41.517 90.48 48.332 34.28 6.814 69.81 3.316 102.1-10.05s59.89-36.001 79.31-65.043c19.41-29.041 29.78-63.185 29.78-98.113 0-23.192-4.56-46.158-13.44-67.586s-21.9-40.897-38.31-57.297c-16.41-16.399-35.89-29.407-57.34-38.281-21.44-8.873-44.42-13.438-67.63-13.434z" fill="#fecf59" opacity=".25"/><path d="m1273.28 442.829c19.16 0 37.89 5.677 53.82 16.314s28.34 25.755 35.68 43.443c7.33 17.688 9.25 37.152 5.51 55.93-3.74 18.777-12.97 36.026-26.51 49.564-13.55 13.538-30.81 22.757-49.6 26.492s-38.27 1.818-55.97-5.508c-17.69-7.327-32.82-19.734-43.47-35.653-10.64-15.919-16.32-34.635-16.32-53.78 0-25.674 10.2-50.296 28.37-68.449 18.17-18.154 42.8-28.353 68.49-28.353zm0-26.427c-24.38 0-48.21 7.226-68.49 20.762-20.27 13.537-36.07 32.778-45.4 55.289s-11.77 47.282-7.01 71.18c4.75 23.897 16.49 45.849 33.73 63.078 17.24 17.23 39.21 28.963 63.12 33.716 23.92 4.754 48.7 2.314 71.23-7.01 22.53-9.325 41.78-25.115 55.32-45.374 13.55-20.26 20.78-44.079 20.78-68.445.01-16.179-3.18-32.201-9.37-47.15-6.2-14.949-15.28-28.531-26.73-39.972-11.44-11.441-25.04-20.515-40-26.705-14.95-6.189-30.99-9.373-47.18-9.369z" fill="#fecf59" opacity=".25"/><g fill="#1d465c"><path d="m1140.71 514.914h-2.33c-2.38.244-4.74.653-7.07 1.226l-.71.194h-.22l-1.17.355c-3.12.893-5.93 2.623-8.13 5.001 1.08-9.167 2.99-18.217 5.71-27.04h48.43c.39.023.78-.036 1.15-.173.36-.137.69-.35.97-.624s.5-.603.64-.966.2-.752.18-1.141v-17.489c.02-.389-.04-.777-.18-1.14s-.36-.693-.64-.967-.61-.486-.97-.623c-.37-.138-.76-.197-1.15-.174h-62.8c-.64-.04-1.28.138-1.81.508-.52.369-.91.907-1.09 1.525-8.53 21.025-12.91 43.495-12.92 66.18.09.498.33.958.68 1.325s.8.624 1.29.74l18.21 5.582c.68.28 1.43.321 2.14.115.7-.205 1.32-.644 1.74-1.244 2.91-3.069 6.68-5.196 10.82-6.109 4.14-.912 8.45-.567 12.39.991 3.94 1.557 7.33 4.256 9.72 7.75 2.39 3.493 3.69 7.622 3.71 11.856.1 2.843-.38 5.676-1.39 8.333-1.02 2.657-2.55 5.085-4.52 7.14-1.97 2.056-4.32 3.699-6.94 4.832-2.61 1.133-5.42 1.733-8.26 1.766-3.8.064-7.55-.931-10.82-2.872-2.06-1.249-3.92-2.817-5.49-4.646-.51-.646-1.03-1.291-1.52-1.969-.24-.329-.55-.599-.91-.792-.36-.192-.76-.302-1.17-.321-.41-.018-.82.055-1.19.214-.38.159-.72.4-.99.706l-5.84 4.033-6.65 4.582-4.36 3.001c-.33.131-.62.339-.85.607-.22.268-.38.588-.46.931s-.07.7.02 1.039c.1.34.27.651.51.908 2.69 4.598 6.31 8.587 10.63 11.713 1.3.974 2.65 1.868 4.06 2.678l1.62.871.35.194c2.14 1.128 4.35 2.099 6.62 2.904h.52c.94.322 1.94.613 2.94.903l1.1.258 2.58.549 1.29.226 2.71.323h1.23c1.32 0 2.68.161 4.07.161h.58c28.35-.258 48.79-18.78 48.79-48.595.06-5.929-1.04-11.812-3.27-17.31-2.22-5.497-5.51-10.499-9.69-14.716-4.17-4.216-9.13-7.564-14.61-9.849-5.47-2.284-11.35-3.46-17.28-3.46z"/><path d="m1273.29 499.232c7.99-.006 15.8 2.356 22.45 6.787 6.64 4.432 11.82 10.734 14.89 18.11 3.06 7.375 3.86 15.492 2.31 23.325-1.56 7.832-5.4 15.028-11.05 20.676-5.65 5.649-12.84 9.497-20.68 11.057s-15.96.762-23.34-2.292c-7.39-3.054-13.7-8.228-18.14-14.867s-6.81-14.444-6.81-22.43c.01-10.697 4.27-20.955 11.83-28.522 7.57-7.567 17.83-11.827 28.54-11.844zm0-29.428c-13.82 0-27.32 4.094-38.81 11.763-11.48 7.669-20.43 18.569-25.72 31.322-5.28 12.754-6.67 26.787-3.97 40.326 2.69 13.538 9.34 25.974 19.11 35.735s22.21 16.408 35.76 19.101 27.59 1.311 40.35-3.971c12.76-5.283 23.67-14.229 31.35-25.706 7.67-11.478 11.77-24.972 11.77-38.776 0-9.166-1.8-18.244-5.31-26.714-3.51-8.469-8.65-16.165-15.14-22.647s-14.19-11.622-22.66-15.128c-8.48-3.506-17.56-5.309-26.73-5.305z"/></g></g></svg>