<svg fill="none" height="501" viewBox="0 0 800 501" width="800" xmlns="http://www.w3.org/2000/svg" xmlns:xlink="http://www.w3.org/1999/xlink"><clipPath id="a"><path d="m114 160.9h611.613v180h-611.613z"/></clipPath><path d="m0 .900024h800v500h-800z" fill="#fff"/><g clip-path="url(#a)"><g fill="#1d465c" opacity=".6"><path d="m161.724 217.605v10.559c.012.197-.018.395-.088.58s-.179.353-.319.493-.308.248-.493.319c-.185.07-.383.1-.581.088h-14.745v54.057c.012.198-.018.396-.088.581-.071.185-.179.353-.319.493-.14.139-.309.248-.494.318s-.383.1-.58.088h-12.343c-.197.012-.395-.018-.581-.088-.185-.07-.353-.179-.493-.318-.14-.14-.249-.308-.319-.493s-.1-.383-.088-.581v-54.057h-14.712c-.198.012-.396-.018-.581-.088-.185-.071-.353-.179-.493-.319s-.249-.308-.319-.493-.1-.383-.088-.58v-10.559c-.012-.197.018-.395.088-.58s.179-.353.319-.493.308-.248.493-.319c.185-.07.383-.1.581-.088h44.729c.2-.017.402.01.591.078s.361.175.505.316c.144.14.256.31.328.498.072.187.103.388.09.588z" opacity=".6"/><path d="m228.044 217.605v66.096c.012.198-.018.396-.088.581s-.179.353-.319.493c-.14.139-.308.248-.493.318s-.383.1-.581.088h-12.343c-.197.012-.395-.018-.58-.088s-.354-.179-.494-.318c-.14-.14-.248-.308-.318-.493-.071-.185-.101-.383-.089-.581v-25.639h-24.092v25.639c.012.198-.018.396-.089.581-.07.185-.178.353-.318.493-.14.139-.309.248-.494.318s-.383.1-.58.088h-12.277c-.198.012-.396-.018-.581-.088s-.353-.179-.493-.318c-.14-.14-.249-.308-.319-.493s-.1-.383-.088-.581v-66.096c-.012-.197.018-.395.088-.58s.179-.353.319-.493.308-.248.493-.319c.185-.07.383-.1.581-.088h12.342c.198-.012.396.018.581.088.185.071.353.179.493.319s.249.308.319.493c.071.185.101.383.089.58v26.939h24.026v-26.939c-.012-.197.018-.395.089-.58.07-.185.178-.353.318-.493s.309-.248.494-.319c.185-.07.383-.1.58-.088h12.343c.198-.012.396.018.581.088.185.071.353.179.493.319s.249.308.319.493.1.383.088.58z" opacity=".6"/><path d="m281.759 273.143v10.558c.012.198-.018.396-.088.581s-.179.353-.319.493c-.14.139-.308.248-.493.318s-.383.1-.581.088h-37.126c-.198.012-.396-.018-.581-.088s-.353-.179-.493-.318c-.14-.14-.249-.308-.319-.493s-.1-.383-.088-.581v-66.096c-.012-.197.018-.395.088-.58s.179-.353.319-.493.308-.248.493-.319c.185-.07.383-.1.581-.088h37.06c.198-.012.396.018.581.088.185.071.353.179.493.319s.249.308.319.493.1.383.088.58v10.559c.012.197-.018.395-.088.58s-.179.353-.319.493-.308.248-.493.319c-.185.07-.383.1-.581.088h-23.237v13.485h21.822c.197-.012.395.018.581.089.185.07.353.178.493.318s.249.308.319.493.1.383.088.58v10.542c.012.198-.018.397-.088.583s-.179.355-.319.496c-.139.141-.307.251-.492.323s-.384.104-.582.095h-21.822v14.982h23.237c.206-.023.414.001.61.068.196.068.374.178.522.322.148.145.262.321.334.515s.099.402.081.608z" opacity=".6"/></g><g fill="#1d465c" opacity=".8"><path d="m355.156 217.605v66.096c.012.198-.018.396-.088.581s-.179.353-.319.493c-.14.139-.308.248-.493.318s-.383.1-.581.088h-14.021c-.365.042-.735-.025-1.063-.192-.327-.166-.599-.425-.78-.745l-24.224-43.549v43.006c.012.198-.018.396-.089.581-.07.185-.179.353-.319.493-.14.139-.308.248-.493.318s-.383.1-.581.088h-12.342c-.198.012-.396-.018-.581-.088s-.353-.179-.493-.318c-.14-.14-.249-.308-.319-.493s-.1-.383-.088-.581v-66.096c-.012-.197.018-.395.088-.58s.179-.353.319-.493.308-.248.493-.319c.185-.07.383-.1.581-.088h13.922c.36-.023.719.057 1.034.232.316.175.574.437.744.755l24.388 43.614v-43.121c-.012-.197.019-.395.089-.58s.179-.353.319-.493.308-.248.493-.319c.185-.07.383-.1.581-.088h12.342c.198-.012.396.018.581.088.185.071.353.179.493.319s.249.308.319.493.1.383.088.58z" opacity=".8"/><path d="m408.871 273.143v10.558c.012.198-.018.396-.088.581s-.179.353-.319.493c-.14.139-.308.248-.493.318s-.383.1-.581.088h-37.126c-.198.012-.396-.018-.581-.088s-.353-.179-.493-.318c-.14-.14-.249-.308-.319-.493s-.1-.383-.088-.581v-66.096c-.012-.197.018-.395.088-.58s.179-.353.319-.493.308-.248.493-.319c.185-.07.383-.1.581-.088h37.028c.197-.012.395.018.58.088.185.071.353.179.493.319s.249.308.319.493c.071.185.101.383.089.58v10.559c.012.197-.018.395-.089.58-.07.185-.179.353-.319.493s-.308.248-.493.319c-.185.07-.383.1-.58.088h-23.204v13.485h21.821c.198-.012.396.018.581.089.185.07.353.178.493.318s.249.308.319.493.1.383.088.58v10.542c.012.198-.018.397-.088.583s-.179.355-.318.496c-.14.141-.308.251-.493.323s-.383.104-.582.095h-21.821v14.982h23.302c.201-.013.402.018.589.09.188.072.358.184.498.328.141.143.249.315.317.504s.094.391.077.591z" opacity=".8"/><path d="m474.402 285.181h-13.001c-.36.035-.722-.035-1.043-.201-.322-.166-.588-.422-.767-.736l-12.441-20.82-12.409 20.82c-.17.318-.428.58-.743.755s-.674.255-1.034.232h-13.034c-1.185 0-1.645-.691-.987-1.776l20.143-33.55-19.156-32.004c-.592-1.085-.197-1.776.988-1.776h13.033c.36-.023.719.057 1.034.232.316.175.574.437.744.755l11.519 19.143 11.52-19.143c.17-.318.428-.58.743-.755.316-.175.675-.255 1.034-.232h13.034c1.185 0 1.646.691.988 1.776l-19.288 31.955 20.143 33.549c.626 1.086.198 1.776-1.02 1.776z" opacity=".8"/><path d="m532.593 217.605v10.559c.012.197-.018.395-.088.58s-.179.353-.319.493-.308.248-.493.319c-.186.07-.383.1-.581.088h-14.712v54.057c.012.198-.018.396-.089.581-.07.185-.179.353-.319.493-.14.139-.308.248-.493.318s-.383.1-.581.088h-12.342c-.198.012-.396-.018-.581-.088s-.353-.179-.493-.318c-.14-.14-.249-.308-.319-.493s-.1-.383-.088-.581v-54.057h-14.712c-.198.012-.396-.018-.581-.088-.185-.071-.353-.179-.493-.319s-.249-.308-.319-.493-.101-.383-.088-.58v-10.559c-.013-.197.018-.395.088-.58s.179-.353.319-.493.308-.248.493-.319c.185-.07.383-.1.581-.088h44.729c.198-.012.395.018.581.088.185.071.353.179.493.319s.249.308.319.493.1.383.088.58z" opacity=".8"/></g><path d="m635.545 172.84c15.451-.004 30.557 4.572 43.406 13.149 12.849 8.576 22.864 20.767 28.779 35.032 5.916 14.265 7.465 29.963 4.452 45.108-3.012 15.144-10.451 29.056-21.375 39.976-10.925 10.92-24.845 18.357-39.999 21.37-15.154 3.014-30.862 1.469-45.138-4.439-14.275-5.909-26.477-15.915-35.062-28.754-8.584-12.838-13.166-27.933-13.166-43.374.021-20.695 8.257-40.537 22.899-55.173 14.642-14.635 34.495-22.869 55.204-22.895zm0-11.94c-17.814 0-35.227 5.279-50.039 15.169-14.811 9.89-26.355 23.948-33.172 40.395-6.817 16.446-8.601 34.544-5.126 52.004s12.054 33.498 24.65 46.086c12.596 12.587 28.644 21.16 46.116 24.633 17.471 3.473 35.581 1.69 52.038-5.122 16.458-6.813 30.525-18.349 40.422-33.151 9.896-14.802 15.179-32.204 15.179-50.006.002-11.82-2.326-23.526-6.852-34.447-4.525-10.921-11.16-20.845-19.524-29.203-8.364-8.359-18.294-14.988-29.222-19.511s-22.641-6.849-34.47-6.847z" fill="#fecf59" opacity=".25"/><path d="m635.545 201.587c9.764 0 19.309 2.894 27.428 8.315s14.447 13.127 18.184 22.142c3.736 9.015 4.714 18.935 2.809 28.506-1.905 9.57-6.607 18.362-13.512 25.262-6.904 6.9-15.701 11.599-25.278 13.502-9.577 1.904-19.503.927-28.525-2.807-9.021-3.735-16.731-10.058-22.156-18.172-5.425-8.113-8.32-17.652-8.32-27.41 0-13.086 5.201-25.635 14.46-34.887 9.258-9.253 21.816-14.451 34.91-14.451zm0-13.469c-12.427 0-24.575 3.682-34.908 10.582-10.332 6.899-18.386 16.706-23.141 28.179-4.756 11.474-6 24.099-3.576 36.279 2.425 12.18 8.409 23.368 17.196 32.15 8.787 8.781 19.983 14.761 32.171 17.184s24.821 1.179 36.302-3.573c11.481-4.753 21.294-12.801 28.198-23.126 6.904-10.326 10.589-22.466 10.589-34.885.002-8.246-1.621-16.412-4.778-24.031s-7.785-14.542-13.62-20.373-12.762-10.456-20.386-13.611-15.796-4.777-24.047-4.775z" fill="#fecf59" opacity=".25"/><g fill="#1d465c"><path d="m567.973 238.327h-1.184c-1.215.124-2.419.333-3.604.625l-.363.099h-.115l-.592.181c-1.59.455-3.024 1.336-4.147 2.549.553-4.672 1.528-9.285 2.913-13.782h24.685c.198.012.397-.018.582-.088.186-.07.356-.179.497-.318.141-.14.251-.308.323-.493s.105-.383.095-.581v-8.914c.01-.198-.023-.396-.095-.581s-.182-.353-.323-.493c-.141-.139-.311-.247-.497-.317-.185-.07-.384-.101-.582-.089h-32.009c-.328-.021-.653.071-.922.259s-.466.462-.559.777c-4.344 10.716-6.579 22.169-6.582 33.731.047.254.167.488.345.675s.407.318.658.377l9.282 2.845c.346.143.73.164 1.088.059.359-.105.672-.328.887-.634 1.487-1.565 3.409-2.649 5.517-3.114 2.109-.464 4.308-.289 6.316.505s3.733 2.169 4.952 3.95c1.22 1.781 1.879 3.885 1.893 6.043.048 1.449-.193 2.893-.711 4.247-.517 1.354-1.3 2.592-2.303 3.639-1.002 1.048-2.204 1.885-3.535 2.463-1.33.577-2.763.883-4.214.9-1.937.032-3.846-.474-5.513-1.464-1.051-.636-1.996-1.436-2.797-2.368-.263-.329-.527-.658-.774-1.003-.123-.168-.283-.306-.467-.404s-.387-.154-.595-.163c-.208-.01-.416.027-.608.109-.192.081-.364.203-.502.359l-2.979 2.056-3.39 2.335-2.221 1.53c-.167.066-.315.173-.431.309-.116.137-.197.3-.236.475s-.034.357.013.529c.047.173.136.332.259.463 1.371 2.344 3.214 4.377 5.414 5.97.663.496 1.355.952 2.074 1.365l.822.444.181.098c1.087.576 2.215 1.07 3.374 1.481h.263c.478.164.988.312 1.498.46l.559.132 1.317.279.658.115 1.383.165h.625c.675 0 1.366.082 2.073.082h.297c14.449-.132 24.866-9.571 24.866-24.767.035-3.022-.531-6.021-1.664-8.823s-2.811-5.351-4.937-7.5c-2.127-2.15-4.658-3.856-7.449-5.02-2.79-1.165-5.785-1.764-8.809-1.764z"/><path d="m635.546 230.334c4.072-.003 8.054 1.201 11.442 3.46 3.388 2.258 6.029 5.471 7.59 9.23 1.56 3.759 1.97 7.896 1.178 11.888-.793 3.992-2.752 7.659-5.631 10.538-2.878 2.879-6.546 4.84-10.54 5.636-3.994.795-8.135.388-11.898-1.168-3.762-1.557-6.979-4.194-9.242-7.578-2.262-3.384-3.47-7.362-3.47-11.432.004-5.452 2.172-10.68 6.029-14.537 3.856-3.857 9.086-6.028 14.542-6.037zm0-14.998c-7.041 0-13.923 2.086-19.776 5.995-5.854 3.909-10.417 9.464-13.111 15.964s-3.399 13.653-2.025 20.553c1.373 6.9 4.763 13.239 9.741 18.214 4.979 4.975 11.321 8.363 18.226 9.735 6.905 1.373 14.062.668 20.567-2.024 6.504-2.692 12.063-7.252 15.975-13.102 3.911-5.85 5.999-12.727 5.999-19.763.002-4.672-.918-9.298-2.706-13.615s-4.41-8.239-7.715-11.543c-3.306-3.304-7.231-5.924-11.551-7.711s-8.949-2.705-13.624-2.703z"/></g></g></svg>