<svg fill="none" height="500" viewBox="0 0 800 500" width="800" xmlns="http://www.w3.org/2000/svg"><path d="m0 0h800v500h-800z" fill="#f6ff7f"/><g fill="#000"><path d="m204.807 291.64v-34.209c0-13.31-7.175-22.46-20.796-22.46-6.759 0-12.374 2.703-16.637 8.214v-36.185h-12.374v84.64h12.374v-30.882c0-8.422 4.991-14.037 12.789-14.037 8.215 0 12.27 5.511 12.27 13.829v31.09z"/><path d="m240.141 234.97c-8.111 0-15.078 2.808-20.796 8.319-5.719 5.511-8.631 12.373-8.631 20.484 0 8.11 2.808 14.973 8.527 20.484s12.685 8.319 20.796 8.319c8.214 0 15.077-2.808 20.692-8.319 5.719-5.615 8.526-12.478 8.526-20.692 0-8.11-2.807-14.869-8.526-20.38s-12.582-8.215-20.588-8.215zm-12.166 16.325c3.119-3.431 7.175-5.095 12.062-5.095s8.942 1.664 11.957 5.095c3.12 3.432 4.68 7.591 4.68 12.478s-1.56 9.046-4.576 12.478c-3.015 3.431-7.07 5.095-11.957 5.095s-8.943-1.768-12.062-5.199c-3.119-3.536-4.679-7.695-4.679-12.582s1.56-8.942 4.575-12.27z"/><path d="m324.717 291.64v-30.986c0-8.422 4.679-14.037 12.27-14.037 8.214 0 11.853 5.303 11.853 13.725v31.298h12.374v-34.313c0-13.31-6.759-22.46-20.172-22.46-8.215 0-13.622 2.911-19.34 9.15-3.432-6.135-9.151-9.15-17.157-9.15-6.655 0-12.166 2.911-16.533 8.734v-7.486h-12.062v55.525h12.374v-30.882c0-8.422 4.679-14.141 12.165-14.141 8.215 0 11.958 5.511 11.958 13.829v31.194z"/><path d="m422.005 267.516c.104-.936.208-2.183.208-3.847 0-8.63-2.392-15.493-7.175-20.796-4.784-5.303-11.438-7.903-19.861-7.903-8.006 0-14.661 2.808-19.964 8.423s-8.007 12.373-8.007 20.38c0 8.214 2.808 15.181 8.319 20.692 5.615 5.511 12.582 8.215 20.796 8.215 9.982 0 19.029-4.784 23.708-13.414l-8.942-5.927c-3.016 5.719-8.007 8.631-14.974 8.631-4.263 0-8.006-1.352-11.23-4.056-3.223-2.807-4.887-6.239-4.991-10.398zm-26.828-21.94c7.903 0 14.038 4.783 14.454 12.582h-29.115c1.144-7.591 7.071-12.582 14.661-12.582z"/><path d="m486.602 263.669c0-7.382-2.495-14.037-7.59-19.86-4.991-5.823-11.542-8.734-19.653-8.734-3.223 0-6.654.832-10.294 2.495-3.639 1.56-6.238 3.848-8.006 6.759v-37.329h-12.374v84.64h12.062v-8.526c1.768 2.911 4.471 5.199 8.11 6.862 3.64 1.664 7.071 2.496 10.191 2.496 8.006 0 14.557-2.807 19.756-8.526s7.798-12.478 7.798-20.277zm-41.176-12.373c3.119-3.432 7.175-5.095 12.062-5.095s8.942 1.663 11.958 5.095c3.119 3.431 4.679 7.59 4.679 12.477s-1.56 9.047-4.679 12.478c-3.016 3.327-7.071 4.991-11.958 4.991s-8.943-1.664-12.062-4.991c-3.015-3.431-4.575-7.591-4.575-12.478s1.56-9.046 4.575-12.477z"/><path d="m524.934 253.999c0 3.119-1.767 4.679-5.199 4.679h-6.862c-9.774 0-23.084 4.055-23.084 16.949v.624c0 4.783 1.768 8.734 5.303 11.749 3.535 3.016 8.007 4.576 13.414 4.576 7.486 0 12.893-2.808 16.324-8.527v7.591h12.166v-35.354c0-3.847-.624-7.174-1.871-9.982-3.432-7.59-10.398-11.334-20.797-11.334-11.333 0-19.236 4.679-23.603 14.142l9.462 5.407c2.808-5.927 7.487-8.839 13.83-8.839 6.966 0 10.917 3.744 10.917 8.319zm-.104 15.181c0 8.318-5.407 13.517-13.829 13.517-5.303 0-8.838-3.015-8.838-7.59 0-2.392 1.144-4.263 3.327-5.615 2.288-1.352 4.783-2.08 7.383-2.08h11.957z"/><path d="m564.779 292.576c6.238 0 11.333-1.56 15.181-4.784 3.847-3.223 5.823-7.382 5.823-12.477 0-8.631-6.655-14.661-19.237-17.469-7.175-1.56-10.294-3.431-10.294-7.071 0-3.015 3.951-5.407 7.799-5.407 5.303 0 9.15 2.496 11.645 7.487l9.567-5.407c-3.848-8.318-10.814-12.478-20.796-12.478-5.407 0-10.087 1.56-14.142 4.783-4.055 3.224-6.031 7.279-6.031 12.27 0 3.951 1.352 7.279 3.952 10.086 3.015 3.224 7.694 5.407 13.829 6.655 7.591 1.56 11.438 4.055 11.438 7.279 0 3.743-4.055 6.135-8.734 6.135-5.927 0-10.295-3.016-13.31-8.943l-9.67 5.407c4.263 9.254 11.958 13.934 22.98 13.934z"/><path d="m643.801 267.516c.104-.936.208-2.183.208-3.847 0-8.63-2.392-15.493-7.175-20.796s-11.438-7.903-19.86-7.903c-8.007 0-14.662 2.808-19.965 8.423s-8.006 12.373-8.006 20.38c0 8.214 2.807 15.181 8.318 20.692 5.615 5.511 12.582 8.215 20.796 8.215 9.983 0 19.029-4.784 23.708-13.414l-8.942-5.927c-3.016 5.719-8.007 8.631-14.974 8.631-4.263 0-8.006-1.352-11.229-4.056-3.224-2.807-4.888-6.239-4.991-10.398zm-26.827-21.94c7.902 0 14.037 4.783 14.453 12.582h-29.115c1.144-7.591 7.071-12.582 14.662-12.582z"/></g></svg>