<svg width="800" height="500" viewBox="0 0 800 500" fill="none" xmlns="http://www.w3.org/2000/svg">
<rect width="800" height="500" fill="#F6FF7F"/>
<path d="M204.807 291.64V257.431C204.807 244.121 197.632 234.971 184.011 234.971C177.252 234.971 171.637 237.674 167.374 243.185V207H155V291.64H167.374V260.758C167.374 252.336 172.365 246.721 180.163 246.721C188.378 246.721 192.433 252.232 192.433 260.55V291.64H204.807Z" fill="black"/>
<path d="M240.141 234.97C232.03 234.97 225.064 237.778 219.345 243.289C213.626 248.8 210.714 255.663 210.714 263.773C210.714 271.884 213.522 278.746 219.241 284.257C224.96 289.768 231.926 292.576 240.037 292.576C248.251 292.576 255.114 289.768 260.729 284.257C266.448 278.642 269.255 271.78 269.255 263.565C269.255 255.455 266.448 248.696 260.729 243.185C255.01 237.674 248.147 234.97 240.141 234.97ZM227.975 251.295C231.095 247.864 235.15 246.2 240.037 246.2C244.924 246.2 248.979 247.864 251.995 251.295C255.114 254.727 256.674 258.886 256.674 263.773C256.674 268.66 255.114 272.819 252.099 276.251C249.083 279.682 245.028 281.346 240.141 281.346C235.254 281.346 231.199 279.578 228.079 276.147C224.96 272.611 223.4 268.452 223.4 263.565C223.4 258.678 224.96 254.623 227.975 251.295Z" fill="black"/>
<path d="M324.717 291.64V260.654C324.717 252.232 329.396 246.617 336.987 246.617C345.201 246.617 348.841 251.92 348.841 260.342V291.64H361.214V257.327C361.214 244.017 354.456 234.867 341.042 234.867C332.828 234.867 327.421 237.778 321.702 244.017C318.27 237.882 312.551 234.867 304.545 234.867C297.89 234.867 292.379 237.778 288.012 243.601V236.115H275.95V291.64H288.324V260.758C288.324 252.336 293.003 246.617 300.49 246.617C308.704 246.617 312.447 252.128 312.447 260.446V291.64H324.717Z" fill="black"/>
<path d="M422.005 267.516C422.109 266.581 422.213 265.333 422.213 263.669C422.213 255.039 419.822 248.176 415.038 242.873C410.254 237.57 403.6 234.97 395.177 234.97C387.171 234.97 380.516 237.778 375.213 243.393C369.91 249.008 367.207 255.767 367.207 263.773C367.207 271.988 370.014 278.954 375.525 284.465C381.14 289.976 388.107 292.68 396.321 292.68C406.303 292.68 415.35 287.897 420.029 279.266L411.087 273.339C408.071 279.058 403.08 281.97 396.113 281.97C391.85 281.97 388.107 280.618 384.883 277.914C381.66 275.107 379.996 271.676 379.892 267.516H422.005ZM395.177 245.576C403.08 245.576 409.215 250.36 409.631 258.158H380.516C381.66 250.568 387.587 245.576 395.177 245.576Z" fill="black"/>
<path d="M486.602 263.669C486.602 256.287 484.107 249.632 479.012 243.809C474.021 237.986 467.47 235.075 459.359 235.075C456.136 235.075 452.705 235.907 449.065 237.57C445.426 239.13 442.826 241.418 441.059 244.329V207H428.685V291.64H440.747V283.114C442.514 286.025 445.218 288.313 448.857 289.976C452.497 291.64 455.928 292.472 459.047 292.472C467.054 292.472 473.605 289.665 478.804 283.946C484.003 278.227 486.602 271.468 486.602 263.669ZM445.426 251.296C448.545 247.864 452.601 246.201 457.488 246.201C462.375 246.201 466.43 247.864 469.445 251.296C472.565 254.727 474.125 258.886 474.125 263.773C474.125 268.66 472.565 272.82 469.445 276.251C466.43 279.578 462.375 281.242 457.488 281.242C452.601 281.242 448.545 279.578 445.426 276.251C442.41 272.82 440.851 268.66 440.851 263.773C440.851 258.886 442.41 254.727 445.426 251.296Z" fill="black"/>
<path d="M524.934 253.999C524.934 257.118 523.167 258.678 519.735 258.678H512.873C503.099 258.678 489.789 262.733 489.789 275.627V276.251C489.789 281.034 491.557 284.985 495.092 288.001C498.627 291.016 503.099 292.576 508.506 292.576C515.992 292.576 521.399 289.768 524.83 284.049V291.64H536.996V256.286C536.996 252.439 536.372 249.112 535.125 246.304C531.693 238.714 524.727 234.97 514.328 234.97C502.995 234.97 495.092 239.65 490.725 249.112L500.187 254.519C502.995 248.592 507.674 245.68 514.017 245.68C520.983 245.68 524.934 249.424 524.934 253.999ZM524.83 269.18C524.83 277.499 519.424 282.698 511.001 282.698C505.698 282.698 502.163 279.682 502.163 275.107C502.163 272.715 503.307 270.844 505.49 269.492C507.778 268.14 510.273 267.412 512.873 267.412H524.83V269.18Z" fill="black"/>
<path d="M564.779 292.576C571.017 292.576 576.112 291.016 579.96 287.793C583.807 284.569 585.783 280.41 585.783 275.315C585.783 266.685 579.128 260.654 566.546 257.846C559.371 256.286 556.252 254.415 556.252 250.776C556.252 247.76 560.203 245.369 564.051 245.369C569.354 245.369 573.201 247.864 575.696 252.855L585.263 247.448C581.415 239.13 574.449 234.97 564.467 234.97C559.06 234.97 554.38 236.53 550.325 239.754C546.27 242.977 544.294 247.032 544.294 252.023C544.294 255.975 545.646 259.302 548.246 262.109C551.261 265.333 555.94 267.516 562.075 268.764C569.666 270.324 573.513 272.819 573.513 276.043C573.513 279.786 569.458 282.178 564.779 282.178C558.852 282.178 554.484 279.162 551.469 273.235L541.799 278.642C546.062 287.897 553.757 292.576 564.779 292.576Z" fill="black"/>
<path d="M643.801 267.516C643.905 266.581 644.009 265.333 644.009 263.669C644.009 255.039 641.617 248.176 636.834 242.873C632.051 237.57 625.396 234.97 616.974 234.97C608.967 234.97 602.312 237.778 597.009 243.393C591.706 249.008 589.003 255.767 589.003 263.773C589.003 271.988 591.81 278.954 597.321 284.465C602.936 289.976 609.903 292.68 618.117 292.68C628.1 292.68 637.146 287.897 641.825 279.266L632.883 273.339C629.867 279.058 624.876 281.97 617.91 281.97C613.646 281.97 609.903 280.618 606.68 277.914C603.456 275.107 601.793 271.676 601.689 267.516H643.801ZM616.974 245.576C624.876 245.576 631.011 250.36 631.427 258.158H602.312C603.456 250.568 609.383 245.576 616.974 245.576Z" fill="black"/>
</svg>
