<svg enable-background="new 0 0 800 600" viewBox="0 0 800 600" xmlns="http://www.w3.org/2000/svg"><path d="m493 278.7c0-.1 0-.2 0-.3 0-.4-.1-.7-.1-1.1-.1-.4-.2-.8-.3-1.2 0-.1-.1-.1-.1-.2-.1-.4-.3-.7-.5-1 0 0 0 0 0-.1-.2-.4-.4-.7-.6-1-.1-.1-.1-.1-.2-.2-.2-.3-.5-.6-.8-.9l-42-42-42-42c-.3-.3-.6-.5-.9-.8-.1-.1-.1-.1-.2-.2-.3-.2-.7-.4-1-.6h-.1c-.3-.2-.7-.3-1-.4-.1 0-.1-.1-.2-.1-.4-.1-.8-.2-1.2-.3s-.7-.1-1.1-.1c-.1 0-.2 0-.3 0s-.2 0-.3 0h-84c-5 0-9 4-9 9v210c0 5 4 9 9 9h84 84c5 0 9-4 9-9v-126.2c-.1-.1-.1-.2-.1-.3zm-84-21.4v-40.5l20.3 20.3zm33-7.6 20.3 20.3h-40.5zm-117-45.7h66v66h-66zm0 84h66v108h-66zm150 108h-66v-108h66z"/></svg>