<svg fill="none" height="501" viewBox="0 0 800 501" width="800" xmlns="https://www.w3.org/2000/svg" xmlns:xlink="https://www.w3.org/1999/xlink"><clipPath id="a"><path d="m146 190.9h508.315v120h-508.315z"/></clipPath><path d="m0 .899902h800v500h-800z" fill="#f0f8f9"/><g clip-path="url(#a)" fill="#0095b2"><path d="m225.712 291.875-14.036-10.921c-.545-.424-1.232-.623-1.919-.555-.688.068-1.323.397-1.775.919-1.99 2.319-4.48 4.158-7.282 5.377s-5.844 1.787-8.898 1.661c-6.018.066-11.825-2.222-16.18-6.377-4.435-4.126-6.593-9.439-6.593-16.18 0-6.742 2.171-11.744 6.634-15.735 4.359-4.129 10.178-6.359 16.18-6.202 6.863 0 12.135 2.238 16.179 6.863.457.526 1.1.854 1.793.917.694.063 1.385-.145 1.929-.58l13.807-11.083c.282-.226.515-.507.687-.825.171-.317.277-.667.311-1.026.034-.36-.005-.723-.114-1.067-.109-.345-.286-.664-.52-.939-8.454-9.937-19.928-14.979-34.072-14.979-12.028-.25-23.685 4.172-32.522 12.337-8.831 8.292-13.321 19.146-13.321 32.278 0 13.133 4.544 24.27 13.483 32.657 8.765 8.191 20.364 12.666 32.36 12.485 14.332 0 25.874-5.11 34.287-15.169.233-.277.407-.598.513-.944s.141-.71.103-1.069c-.038-.36-.148-.709-.323-1.025-.175-.317-.412-.595-.697-.818z"/><path d="m316.441 222.869h-17.663c-.716 0-1.401.284-1.907.789-.506.506-.79 1.192-.79 1.907v4.247c-6.882-5.709-15.571-8.782-24.512-8.669-5.742-.058-11.439 1.021-16.761 3.175-5.323 2.155-10.166 5.342-14.251 9.377-8.467 8.279-12.768 19.133-12.768 32.239 0 13.105 4.301 24.134 12.795 32.44 4.086 4.032 8.93 7.215 14.253 9.365s11.018 3.224 16.759 3.161c8.944.012 17.613-3.097 24.512-8.791v4.368c0 .716.284 1.402.79 1.907.505.506 1.191.79 1.907.79h17.663c.715 0 1.401-.284 1.906-.79.506-.505.79-1.191.79-1.907v-80.898c.002-.358-.067-.712-.204-1.043-.136-.33-.337-.63-.59-.883-.254-.252-.555-.451-.886-.586s-.686-.202-1.043-.198zm-20.535 42.889c0 13.2-9.155 22.423-22.248 22.423-2.948.072-5.881-.461-8.615-1.566-2.735-1.106-5.214-2.761-7.283-4.862-2.07-2.102-3.687-4.605-4.751-7.356s-1.553-5.691-1.436-8.639c-.115-2.919.391-5.83 1.483-8.54s2.747-5.157 4.854-7.181c2.084-2.038 4.558-3.635 7.273-4.696s5.616-1.564 8.529-1.479c5.761-.049 11.319 2.124 15.52 6.067 4.422 3.856 6.674 9.169 6.674 15.829z"/><path d="m380.971 221.143c-8.164-.003-16.034 3.04-22.072 8.535v-4.113c0-.715-.284-1.401-.79-1.907-.506-.505-1.191-.789-1.907-.789h-17.851c-.716 0-1.401.284-1.907.789-.506.506-.79 1.192-.79 1.907v80.899c0 .715.284 1.401.79 1.907s1.191.79 1.907.79h17.851c.716 0 1.401-.284 1.907-.79s.79-1.192.79-1.907v-43.47c0-12.054 6.593-18.957 18.081-18.957 9.074 0 14.279 6.337 14.279 17.393v45.048c0 .715.284 1.401.789 1.906.506.506 1.192.79 1.907.79h17.852c.715 0 1.401-.284 1.907-.79.505-.505.789-1.191.789-1.906v-47.124c0-24.283-12.229-38.211-33.532-38.211z"/><path d="m512.041 192.248h-17.677c-.715 0-1.401.284-1.907.79-.505.506-.789 1.192-.789 1.907v34.719c-6-5.393-14.832-8.521-24.675-8.521-5.696-.098-11.352.966-16.623 3.127-5.272 2.16-10.048 5.372-14.037 9.439-8.333 8.346-12.391 18.876-12.391 32.36 0 13.159 4.22 24.053 12.566 32.359 3.966 4.044 8.715 7.235 13.956 9.38 5.242 2.144 10.867 3.197 16.529 3.092 9.654 0 18.621-3.276 24.675-8.71v4.288c0 .715.284 1.401.789 1.906.506.506 1.192.79 1.907.79h17.677c.715 0 1.401-.284 1.906-.79.506-.505.79-1.191.79-1.906v-111.533c0-.715-.284-1.401-.79-1.907-.505-.506-1.191-.79-1.906-.79zm-20.711 73.51c0 13.2-9.087 22.423-22.085 22.423-2.851.078-5.688-.426-8.337-1.481-2.65-1.055-5.057-2.638-7.074-4.654-4.126-4.139-6.135-9.438-6.135-16.288 0-12.889 8.858-21.896 21.573-21.896 5.765-.051 11.328 2.122 15.533 6.067 4.328 3.762 6.525 9.074 6.525 15.829z"/><path d="m550.373 222.868h-17.663c-1.489 0-2.696 1.208-2.696 2.697v80.899c0 1.489 1.207 2.697 2.696 2.697h17.663c1.49 0 2.697-1.208 2.697-2.697v-80.899c0-1.489-1.207-2.697-2.697-2.697z"/><path d="m650.904 192.248h-17.663c-.716 0-1.401.284-1.907.79s-.79 1.192-.79 1.907v34.719c-6-5.393-14.831-8.521-24.674-8.521-5.697-.101-11.354.962-16.626 3.122-5.272 2.161-10.047 5.374-14.035 9.444-8.346 8.346-12.404 18.876-12.404 32.36 0 13.159 4.233 24.053 12.579 32.359 3.965 4.045 8.714 7.237 13.956 9.382s10.867 3.196 16.53 3.09c9.654 0 18.607-3.276 24.674-8.71v4.287c0 .716.284 1.402.79 1.907.506.506 1.191.79 1.907.79h17.663c.715 0 1.401-.284 1.906-.79.506-.505.79-1.191.79-1.907v-111.532c0-.715-.284-1.401-.79-1.907-.505-.506-1.191-.79-1.906-.79zm-20.711 73.51c0 13.2-9.074 22.423-22.071 22.423-2.853.077-5.692-.427-8.344-1.482-2.651-1.054-5.061-2.637-7.081-4.653-4.126-4.139-6.135-9.438-6.135-16.288 0-12.889 8.872-21.896 21.573-21.896 5.761-.052 11.321 2.122 15.519 6.067 4.355 3.762 6.539 9.074 6.539 15.829z"/><path d="m532.71 215.277c1.49 0 2.697-1.207 2.697-2.696 0-1.49-1.207-2.697-2.697-2.697-1.489 0-2.696 1.207-2.696 2.697 0 1.489 1.207 2.696 2.696 2.696z"/><path d="m550.373 215.277c1.49 0 2.697-1.207 2.697-2.696 0-1.49-1.207-2.697-2.697-2.697-1.489 0-2.696 1.207-2.696 2.697 0 1.489 1.207 2.696 2.696 2.696z"/><path d="m532.71 206.446c1.49 0 2.697-1.207 2.697-2.697 0-1.489-1.207-2.696-2.697-2.696-1.489 0-2.696 1.207-2.696 2.696 0 1.49 1.207 2.697 2.696 2.697z"/><path d="m550.373 206.446c1.49 0 2.697-1.207 2.697-2.697 0-1.489-1.207-2.696-2.697-2.696-1.489 0-2.696 1.207-2.696 2.696 0 1.49 1.207 2.697 2.696 2.697z"/><path d="m541.542 215.277c1.489 0 2.696-1.207 2.696-2.696 0-1.49-1.207-2.697-2.696-2.697-1.49 0-2.697 1.207-2.697 2.697 0 1.489 1.207 2.696 2.697 2.696z"/><path d="m541.542 206.446c1.489 0 2.696-1.207 2.696-2.697 0-1.489-1.207-2.696-2.696-2.696-1.49 0-2.697 1.207-2.697 2.696 0 1.49 1.207 2.697 2.697 2.697z"/><path d="m532.71 197.601c1.49 0 2.697-1.207 2.697-2.696 0-1.49-1.207-2.697-2.697-2.697-1.489 0-2.696 1.207-2.696 2.697 0 1.489 1.207 2.696 2.696 2.696z"/><path d="m550.373 197.601c1.49 0 2.697-1.207 2.697-2.696 0-1.49-1.207-2.697-2.697-2.697-1.489 0-2.696 1.207-2.696 2.697 0 1.489 1.207 2.696 2.696 2.696z"/><path d="m541.542 197.601c1.489 0 2.696-1.207 2.696-2.696 0-1.49-1.207-2.697-2.696-2.697-1.49 0-2.697 1.207-2.697 2.697 0 1.489 1.207 2.696 2.697 2.696z"/></g></svg>