<svg fill="none" height="1080" viewBox="0 0 1620 1080" width="1620" xmlns="http://www.w3.org/2000/svg" xmlns:xlink="http://www.w3.org/1999/xlink"><clipPath id="a"><path d="m330 427h960v226.631h-960z"/></clipPath><path d="m0 0h1620v1080h-1620z" fill="#f0f8f9"/><g clip-path="url(#a)" fill="#0095b2"><path d="m480.544 617.701-26.508-20.626c-1.03-.8-2.327-1.176-3.626-1.048-1.298.128-2.497.75-3.351 1.736-3.758 4.38-8.46 7.852-13.753 10.154-5.292 2.302-11.037 3.375-16.804 3.138-11.367.125-22.333-4.197-30.557-12.044-8.378-7.792-12.452-17.825-12.452-30.557s4.1-22.18 12.528-29.717c8.232-7.798 19.222-12.01 30.557-11.714 12.962 0 22.918 4.227 30.557 12.962.863.993 2.076 1.614 3.386 1.733 1.31.118 2.615-.275 3.642-1.097l26.076-20.931c.532-.427.974-.956 1.298-1.557.323-.6.523-1.26.588-1.939.064-.679-.009-1.365-.215-2.015-.206-.651-.54-1.253-.984-1.772-15.966-18.767-37.636-28.291-64.348-28.291-22.716-.47-44.731 7.881-61.419 23.3-16.679 15.66-25.159 36.159-25.159 60.961s8.581 45.836 25.464 61.674c16.554 15.47 38.46 23.922 61.114 23.58 27.069 0 48.866-9.651 64.756-28.647.439-.523.768-1.13.968-1.783.199-.654.265-1.341.194-2.02-.071-.68-.278-1.338-.609-1.936s-.779-1.123-1.317-1.544z"/><path d="m651.893 487.376h-33.358c-1.351 0-2.646.536-3.601 1.491s-1.492 2.251-1.492 3.601v8.022c-12.997-10.783-29.408-16.587-46.294-16.374-10.844-.11-21.602 1.929-31.654 5.998s-19.199 10.088-26.914 17.709c-15.991 15.635-24.114 36.134-24.114 60.885s8.123 45.581 24.165 61.267c7.717 7.615 16.866 13.626 26.918 17.686 10.052 4.061 20.809 6.09 31.65 5.97 16.893.023 33.265-5.849 46.294-16.602v8.25c0 1.351.536 2.646 1.492 3.601.955.955 2.25 1.492 3.601 1.492h33.358c1.351 0 2.646-.537 3.601-1.492s1.492-2.25 1.492-3.601v-152.785c.003-.675-.128-1.345-.385-1.969-.258-.624-.637-1.191-1.116-1.667s-1.047-.853-1.673-1.107c-.625-.255-1.295-.382-1.97-.375zm-38.782 81.001c0 24.93-17.29 42.347-42.016 42.347-5.569.137-11.107-.87-16.271-2.958-5.165-2.088-9.846-5.213-13.756-9.182-3.909-3.969-6.962-8.697-8.972-13.892-2.01-5.196-2.932-10.749-2.711-16.315-.217-5.514.737-11.011 2.8-16.129s5.188-9.74 9.168-13.562c3.936-3.849 8.607-6.866 13.734-8.87 5.128-2.004 10.607-2.953 16.11-2.793 10.88-.092 21.377 4.012 29.309 11.459 8.352 7.283 12.605 17.316 12.605 29.895z"/><path d="m773.764 484.116c-15.417-.005-30.282 5.743-41.684 16.119v-7.767c0-1.35-.537-2.646-1.492-3.601s-2.251-1.491-3.601-1.491h-33.715c-1.351 0-2.646.536-3.601 1.491s-1.492 2.251-1.492 3.601v152.786c0 1.35.537 2.646 1.492 3.601s2.25 1.491 3.601 1.491h33.715c1.35 0 2.646-.536 3.601-1.491s1.492-2.251 1.492-3.601v-82.097c0-22.765 12.452-35.803 34.147-35.803 17.137 0 26.967 11.969 26.967 32.849v85.076c0 1.351.536 2.646 1.491 3.601s2.251 1.492 3.601 1.492h33.715c1.351 0 2.646-.537 3.601-1.492s1.492-2.25 1.492-3.601v-88.997c0-45.861-23.096-72.166-63.33-72.166z"/><path d="m1021.3 429.546h-33.382c-1.35 0-2.646.537-3.601 1.492s-1.492 2.251-1.492 3.601v65.571c-11.331-10.186-28.01-16.094-46.599-16.094-10.758-.184-21.44 1.826-31.396 5.906-9.955 4.081-18.975 10.146-26.51 17.827-15.736 15.762-23.401 35.65-23.401 61.114 0 24.853 7.97 45.428 23.732 61.114 7.49 7.637 16.459 13.664 26.359 17.715 9.899 4.05 20.522 6.037 31.216 5.839 18.232 0 35.166-6.188 46.599-16.45v8.098c0 1.351.537 2.646 1.492 3.601s2.251 1.492 3.601 1.492h33.382c1.35 0 2.65-.537 3.6-1.492.96-.955 1.49-2.25 1.49-3.601v-210.64c0-1.35-.53-2.646-1.49-3.601-.95-.955-2.25-1.492-3.6-1.492zm-39.111 138.831c0 24.93-17.163 42.347-41.71 42.347-5.384.147-10.742-.804-15.746-2.796s-9.55-4.983-13.36-8.79c-7.792-7.818-11.586-17.825-11.586-30.761 0-24.344 16.73-41.354 40.742-41.354 10.889-.096 21.395 4.008 29.335 11.459 8.174 7.105 12.325 17.138 12.325 29.895z"/><path d="m1093.7 487.376h-33.36c-2.81 0-5.09 2.28-5.09 5.092v152.786c0 2.812 2.28 5.092 5.09 5.092h33.36c2.81 0 5.09-2.28 5.09-5.092v-152.786c0-2.812-2.28-5.092-5.09-5.092z"/><path d="m1283.56 429.546h-33.36c-1.35 0-2.65.537-3.6 1.492-.96.955-1.49 2.251-1.49 3.601v65.571c-11.33-10.186-28.01-16.094-46.6-16.094-10.76-.19-21.45 1.817-31.4 5.898-9.96 4.081-18.98 10.149-26.51 17.835-15.76 15.762-23.43 35.65-23.43 61.114 0 24.853 8 45.428 23.76 61.114 7.49 7.639 16.46 13.668 26.36 17.719 9.9 4.05 20.52 6.036 31.22 5.835 18.23 0 35.14-6.188 46.6-16.45v8.098c0 1.351.53 2.646 1.49 3.601.95.955 2.25 1.492 3.6 1.492h33.36c1.35 0 2.64-.537 3.6-1.492.95-.955 1.49-2.25 1.49-3.601v-210.64c0-1.35-.54-2.646-1.49-3.601-.96-.955-2.25-1.492-3.6-1.492zm-39.12 138.831c0 24.93-17.13 42.347-41.68 42.347-5.39.146-10.75-.806-15.76-2.798s-9.56-4.982-13.37-8.788c-7.79-7.818-11.59-17.825-11.59-30.761 0-24.344 16.76-41.354 40.75-41.354 10.88-.097 21.38 4.007 29.3 11.459 8.23 7.105 12.35 17.138 12.35 29.895z"/><path d="m1060.34 473.039c2.81 0 5.09-2.28 5.09-5.093 0-2.812-2.28-5.092-5.09-5.092s-5.09 2.28-5.09 5.092c0 2.813 2.28 5.093 5.09 5.093z"/><path d="m1093.7 473.039c2.81 0 5.09-2.28 5.09-5.093 0-2.812-2.28-5.092-5.09-5.092-2.82 0-5.1 2.28-5.1 5.092 0 2.813 2.28 5.093 5.1 5.093z"/><path d="m1060.34 456.36c2.81 0 5.09-2.28 5.09-5.093 0-2.812-2.28-5.092-5.09-5.092s-5.09 2.28-5.09 5.092c0 2.813 2.28 5.093 5.09 5.093z"/><path d="m1093.7 456.36c2.81 0 5.09-2.28 5.09-5.093 0-2.812-2.28-5.092-5.09-5.092-2.82 0-5.1 2.28-5.1 5.092 0 2.813 2.28 5.093 5.1 5.093z"/><path d="m1077.02 473.039c2.81 0 5.09-2.28 5.09-5.093 0-2.812-2.28-5.092-5.09-5.092-2.82 0-5.1 2.28-5.1 5.092 0 2.813 2.28 5.093 5.1 5.093z"/><path d="m1077.02 456.36c2.81 0 5.09-2.28 5.09-5.093 0-2.812-2.28-5.092-5.09-5.092-2.82 0-5.1 2.28-5.1 5.092 0 2.813 2.28 5.093 5.1 5.093z"/><path d="m1060.34 439.656c2.81 0 5.09-2.28 5.09-5.093s-2.28-5.093-5.09-5.093-5.09 2.28-5.09 5.093 2.28 5.093 5.09 5.093z"/><path d="m1093.7 439.656c2.81 0 5.09-2.28 5.09-5.093s-2.28-5.093-5.09-5.093c-2.82 0-5.1 2.28-5.1 5.093s2.28 5.093 5.1 5.093z"/><path d="m1077.02 439.656c2.81 0 5.09-2.28 5.09-5.093s-2.28-5.093-5.09-5.093c-2.82 0-5.1 2.28-5.1 5.093s2.28 5.093 5.1 5.093z"/></g></svg>