<svg fill="none" height="600" viewBox="0 0 800 600" width="800" xmlns="http://www.w3.org/2000/svg" xmlns:xlink="http://www.w3.org/1999/xlink"><filter id="a" color-interpolation-filters="sRGB" filterUnits="userSpaceOnUse" height="240" width="240" x="118" y="196"><feFlood flood-opacity="0" result="BackgroundImageFix"/><feColorMatrix in="SourceAlpha" result="hardAlpha" type="matrix" values="0 0 0 0 0 0 0 0 0 0 0 0 0 0 0 0 0 0 127 0"/><feOffset dy="16"/><feGaussianBlur stdDeviation="20"/><feColorMatrix type="matrix" values="0 0 0 0 0 0 0 0 0 0 0 0 0 0 0 0 0 0 0.2 0"/><feBlend in2="BackgroundImageFix" mode="normal" result="effect1_dropShadow_17_65"/><feBlend in="SourceGraphic" in2="effect1_dropShadow_17_65" mode="normal" result="shape"/></filter><path d="m0 0h800v600h-800z" fill="#3635e7"/><g filter="url(#a)"><circle cx="238" cy="300" fill="#3635e7" r="80"/><path clip-rule="evenodd" d="m261.158 275.579c1.975-3.951.374-8.757-3.578-10.733s-8.757-.374-10.733 3.578l-9.835 19.67-8.353-12.53c-1.648-2.472-4.53-3.827-7.485-3.519-2.955.307-5.496 2.227-6.6 4.986l-16 40c-1.641 4.102.355 8.758 4.457 10.399 4.102 1.64 8.758-.355 10.399-4.457l10.352-25.88 7.564 11.346c1.582 2.373 4.307 3.724 7.153 3.547s5.383-1.856 6.659-4.407zm5.059 7.77-10.119 20.238 6.315 18.945c1.397 4.191 5.927 6.456 10.119 5.059 4.191-1.397 6.457-5.928 5.06-10.119z" fill="#fff" fill-rule="evenodd"/></g><g fill="#fff"><path d="m358 322h10.54v-20.196c0-3.876 2.312-6.8 5.78-6.8 3.604 0 5.576 2.584 5.576 6.256v20.74h10.54v-20.128c0-4.012 2.312-6.868 5.78-6.868 3.672 0 5.44 2.584 5.44 6.528v20.468h10.54v-24.14c0-7.48-5.236-12.648-13.056-12.648-4.488 0-7.888 1.564-10.404 4.896h-.476c-2.176-3.06-5.712-4.896-10.404-4.896-4.76 0-7.888 2.38-9.384 4.76h-.544v-3.876h-9.928z"/><path d="m434.575 322.884c5.916 0 8.908-3.332 9.928-4.964h.544v4.08h10.472v-35.904h-10.54v4.08h-.544c-1.224-1.904-4.488-4.964-10.132-4.964-9.656 0-16.32 7.752-16.32 19.04s6.732 18.632 16.592 18.632zm2.38-9.52c-4.964 0-8.296-3.74-8.296-9.316 0-5.508 3.332-9.316 8.228-9.316 4.828 0 8.296 3.604 8.296 9.316 0 5.304-3.196 9.316-8.228 9.316z"/><path d="m498.274 322-12.444-22.984 11.56-12.92h-12.988l-10.2 12.24h-.408v-27.336h-10.54v51h10.54v-9.588l4.76-5.304 7.888 14.892z"/><path d="m516.825 322.884c9.724 0 16.252-4.828 17.884-12.376h-9.52c-1.02 2.244-3.808 4.284-7.956 4.284-4.964 0-8.296-3.264-8.636-7.82h26.452v-3.06c0-9.996-6.188-18.7-18.02-18.7-10.948 0-18.428 7.82-18.428 19.04 0 10.812 7.82 18.632 18.224 18.632zm-8.024-22.916c.476-3.536 3.74-6.732 8.228-6.732 4.692 0 7.82 2.924 8.228 6.732z"/><path d="m552.634 322h3.604v-9.248h-1.292c-1.904 0-2.992-1.088-2.992-3.264v-38.488h-10.54v39.712c0 7.004 4.012 11.288 11.22 11.288z"/><path d="m579.803 322.884c11.56 0 19.38-8.228 19.38-18.836s-7.82-18.836-19.312-18.836c-11.628 0-19.38 8.228-19.38 18.836s7.82 18.836 19.312 18.836zm0-9.52c-4.964 0-8.636-3.808-8.636-9.316 0-5.44 3.672-9.316 8.636-9.316 5.032 0 8.704 3.876 8.704 9.316s-3.672 9.316-8.704 9.316z"/><path d="m622.822 338.524c12.852 0 18.768-7.548 18.768-16.932v-35.496h-10.54v4.08h-.544c-1.088-1.768-4.42-4.964-10.268-4.964-9.18 0-16.184 7.14-16.184 18.632 0 11.56 7.14 18.564 16.456 18.564 5.712 0 8.84-3.196 10.064-4.964h.544v4.148c0 5.576-2.788 8.432-8.296 8.432-4.624 0-6.936-2.04-7.412-4.76h-9.656c.34 6.868 5.916 13.26 17.068 13.26zm.204-25.636c-4.964 0-8.296-3.468-8.296-9.044 0-5.508 3.332-9.112 8.228-9.112 4.828 0 8.296 3.4 8.296 9.112 0 5.304-3.196 9.044-8.228 9.044z"/></g></svg>