<svg fill="none" height="500" viewBox="0 0 800 500" width="800" xmlns="http://www.w3.org/2000/svg"><path d="m0 0h800v500h-800z" fill="#3635e7"/><circle cx="218" cy="250" fill="#fff" r="90"/><path clip-rule="evenodd" d="m244.052 222.527c2.223-4.446.421-9.852-4.025-12.075-4.445-2.223-9.852-.421-12.074 4.025l-11.065 22.129-9.397-14.096c-1.854-2.781-5.096-4.306-8.421-3.96-3.324.346-6.183 2.506-7.424 5.609l-18 45c-1.846 4.616.399 9.853 5.014 11.699s9.853-.398 11.699-5.014l11.645-29.114 8.51 12.764c1.78 2.67 4.846 4.19 8.048 3.991 3.202-.2 6.055-2.089 7.49-4.958zm5.692 8.74-11.384 22.769 7.104 21.312c1.572 4.715 6.669 7.264 11.384 5.692 4.716-1.572 7.264-6.669 5.693-11.384z" fill="#3635e7" fill-rule="evenodd"/><g fill="#fff"><path d="m353 274.75h11.858v-22.72c0-4.361 2.601-7.65 6.502-7.65 4.055 0 6.273 2.907 6.273 7.038v23.332h11.858v-22.644c0-4.513 2.6-7.726 6.502-7.726 4.131 0 6.12 2.907 6.12 7.344v23.026h11.858v-27.157c0-8.415-5.891-14.229-14.689-14.229-5.048 0-8.873 1.759-11.704 5.508h-.535c-2.448-3.443-6.426-5.508-11.705-5.508-5.355 0-8.874 2.677-10.557 5.355h-.612v-4.361h-11.169z"/><path d="m439.147 275.745c6.656 0 10.022-3.749 11.169-5.585h.612v4.59h11.781v-40.392h-11.857v4.59h-.612c-1.377-2.142-5.049-5.584-11.399-5.584-10.863 0-18.36 8.721-18.36 21.42s7.574 20.961 18.666 20.961zm2.678-10.71c-5.585 0-9.333-4.208-9.333-10.481 0-6.196 3.748-10.48 9.256-10.48 5.432 0 9.333 4.054 9.333 10.48 0 5.967-3.595 10.481-9.256 10.481z"/><path d="m510.808 274.75-13.999-25.857 13.005-14.535h-14.612l-11.475 13.77h-.459v-30.753h-11.857v57.375h11.857v-10.786l5.355-5.967 8.874 16.753z"/><path d="m531.678 275.745c10.939 0 18.283-5.432 20.119-13.923h-10.71c-1.147 2.524-4.284 4.819-8.95 4.819-5.585 0-9.333-3.672-9.716-8.797h29.759v-3.443c0-11.245-6.962-21.037-20.273-21.037-12.316 0-20.731 8.797-20.731 21.42 0 12.163 8.797 20.961 20.502 20.961zm-9.027-25.781c.535-3.978 4.207-7.573 9.256-7.573 5.279 0 8.798 3.289 9.257 7.573z"/><path d="m571.963 274.75h4.055v-10.404h-1.454c-2.142 0-3.366-1.224-3.366-3.672v-43.299h-11.857v44.676c0 7.88 4.513 12.699 12.622 12.699z"/><path d="m602.529 275.745c13.005 0 21.802-9.257 21.802-21.191s-8.797-21.19-21.726-21.19c-13.081 0-21.802 9.256-21.802 21.19s8.797 21.191 21.726 21.191zm0-10.71c-5.585 0-9.716-4.284-9.716-10.481 0-6.12 4.131-10.48 9.716-10.48 5.661 0 9.792 4.36 9.792 10.48s-4.131 10.481-9.792 10.481z"/><path d="m650.924 293.34c14.459 0 21.114-8.492 21.114-19.049v-39.933h-11.857v4.59h-.612c-1.224-1.989-4.973-5.584-11.552-5.584-10.327 0-18.207 8.032-18.207 20.961 0 13.005 8.033 20.884 18.513 20.884 6.426 0 9.945-3.595 11.322-5.584h.612v4.666c0 6.273-3.136 9.486-9.333 9.486-5.202 0-7.803-2.295-8.338-5.355h-10.863c.382 7.727 6.655 14.918 19.201 14.918zm.23-28.841c-5.585 0-9.333-3.901-9.333-10.174 0-6.197 3.748-10.251 9.256-10.251 5.432 0 9.333 3.825 9.333 10.251 0 5.967-3.595 10.174-9.256 10.174z"/></g></svg>