<svg fill="none" height="501" viewBox="0 0 800 501" width="800" xmlns="http://www.w3.org/2000/svg" xmlns:xlink="http://www.w3.org/1999/xlink"><clipPath id="a"><path d="m287.5 130.9h224.729v240h-224.729z"/></clipPath><path d="m0 .900024h800v500h-800z" fill="#6381f3"/><g clip-path="url(#a)" fill="#fff"><path d="m447.364 208.661c-5.389-3.856-11.058-7.482-16.855-10.828-5.797-3.345-11.798-6.461-17.876-9.193-4.032-1.843-8.412-2.796-12.845-2.796s-8.814.953-12.846 2.796c-6.026 2.758-12.002 5.848-17.876 9.193-5.796 3.325-11.421 6.939-16.854 10.828-3.606 2.563-6.614 5.875-8.818 9.71-2.205 3.835-3.552 8.102-3.951 12.508-.562 6.588-.868 13.33-.868 20.047 0 6.716.306 13.432.945 20.021.405 4.407 1.755 8.675 3.958 12.514 2.204 3.838 5.209 7.156 8.81 9.729 5.389 3.83 11.058 7.482 16.855 10.802s11.773 6.461 17.876 9.194c4.029 1.851 8.411 2.809 12.845 2.809s8.816-.958 12.846-2.809c6.001-2.733 12.002-5.823 17.876-9.168 5.873-3.346 11.466-6.998 16.854-10.828 3.602-2.573 6.607-5.891 8.81-9.729 2.204-3.839 3.554-8.107 3.959-12.514.639-6.589.945-13.331.945-20.021 0-6.691-.306-13.433-.945-20.022-.404-4.416-1.762-8.692-3.98-12.532-2.217-3.84-5.242-7.153-8.865-9.711zm-51.841-1.455c1.363-.623 2.843-.945 4.341-.945s2.979.322 4.342.945c5.439 2.553 10.853 5.286 16.088 8.299 3.346 1.941 6.614 4.01 9.832 6.129l-30.262 17.468-30.261-17.468c3.217-2.119 6.486-4.188 9.831-6.129 5.236-2.885 10.65-5.797 16.089-8.299zm-16.089 79.165c-5.107-3.039-10.368-6.307-15.322-9.78-1.238-.887-2.269-2.03-3.023-3.353-.753-1.322-1.212-2.792-1.344-4.309-.459-5.873-.74-11.977-.74-18.003 0-3.857.153-7.662.383-11.569l30.261 17.442v34.986c-3.447-1.762-6.869-3.575-10.215-5.49zm60.447-17.314c-.159 1.462-.62 2.876-1.354 4.151-.735 1.275-1.725 2.383-2.91 3.255-4.878 3.473-10.011 6.742-15.323 9.781-3.345 1.915-6.767 3.728-10.215 5.439v-34.884l30.262-17.467c.23 3.856.383 7.661.383 11.568 0 6.052-.281 12.13-.843 18.08z"/><path d="m510.314 211.089c-.695-7.125-2.907-14.017-6.489-20.215-3.581-6.198-8.448-11.557-14.273-15.716-10.7-7.662-21.962-14.914-33.505-21.554s-23.29-12.769-35.165-18.131c-6.596-3.017-13.764-4.578-21.017-4.578s-14.422 1.561-21.018 4.578c-11.875 5.413-23.724 11.517-35.165 18.131-11.44 6.614-22.804 13.892-33.53 21.554-5.818 4.164-10.679 9.525-14.255 15.722-3.577 6.197-5.786 13.087-6.481 20.209-1.277 13.1-1.916 26.482-1.916 39.838s.639 26.686 1.916 39.787c.688 7.126 2.897 14.021 6.479 20.22s8.452 11.556 14.282 15.711c10.701 7.661 21.988 14.914 33.505 21.579 11.518 6.665 23.29 12.769 35.165 18.106 6.597 3.013 13.765 4.573 21.018 4.573 7.252 0 14.42-1.56 21.017-4.573 11.875-5.414 23.724-11.517 35.165-18.106 11.441-6.588 22.805-13.918 33.505-21.579 5.83-4.155 10.7-9.512 14.282-15.711s5.791-13.094 6.48-20.22c1.277-13.101 1.915-26.482 1.915-39.813 0-13.33-.638-26.712-1.915-39.812zm-20.43 77.659c-.414 4.216-1.723 8.295-3.842 11.964-2.118 3.669-4.997 6.843-8.442 9.308-10.215 7.278-20.915 14.174-31.87 20.43-10.956 6.257-22.141 12.079-33.429 17.212-3.934 1.804-8.211 2.738-12.539 2.738-4.327 0-8.604-.934-12.538-2.738-11.288-5.107-22.55-10.93-33.429-17.212s-21.681-13.228-31.87-20.43c-3.446-2.465-6.324-5.639-8.442-9.308-2.119-3.669-3.429-7.748-3.842-11.964-1.098-12.437-1.711-25.052-1.711-37.821s.613-25.537 1.813-37.821c.41-4.221 1.718-8.305 3.837-11.978 2.118-3.674 4.999-6.852 8.447-9.32 10.215-7.278 20.915-14.173 31.87-20.43 10.956-6.257 22.141-12.079 33.429-17.212 3.937-1.793 8.213-2.72 12.539-2.72s8.601.927 12.538 2.72c11.288 5.107 22.55 10.93 33.429 17.212s21.681 13.228 31.845 20.43c3.452 2.461 6.337 5.633 8.46 9.302 2.124 3.669 3.436 7.751 3.849 11.971 1.2 12.436 1.813 25.077 1.813 37.846s-.613 25.358-1.813 37.821z"/></g></svg>