<svg xmlns="http://www.w3.org/2000/svg" viewBox="0 0 800 320"><defs><style>.cls-1{fill:#fff;}.cls-2,.cls-3{fill:none;stroke-linecap:round;stroke-linejoin:round;stroke-width:10px;}.cls-2{stroke:#2ed4e5;}.cls-3{stroke:#ff336d;}.cls-4{fill:#ff336d;}</style></defs><title>Asset 1</title><g id="Layer_2" data-name="Layer 2"><g id="Layer_1-2" data-name="Layer 1"><rect class="cls-1" width="800" height="320"/><path class="cls-2" d="M111.74,141.76c2.51-.78,7.52-2.44,21.17-5.76-6.2,7.55-14.85,16.28-16,26.73,2.39-.67,7.16-2.08,20.31-4.92"/><path class="cls-3" d="M151,132a420.4,420.4,0,0,1,60.31-7.58"/><path class="cls-3" d="M154.77,154.37A461.25,461.25,0,0,1,214,147.91"/><path class="cls-3" d="M122.11,181.21c31-7.38,62.69-10.74,94.5-12.27"/><path class="cls-3" d="M127.3,202.18c30.34-6,61.08-8.49,91.94-9.73"/><path class="cls-4" d="M309.37,199H290l-30.28-80h21.69L300,175.75h.45L318.86,119h21.35Z"/><path class="cls-4" d="M397.73,170.67a30.38,30.38,0,0,1-2.49,12.49,27.79,27.79,0,0,1-6.78,9.49,30.9,30.9,0,0,1-9.94,6,34.93,34.93,0,0,1-24.13,0,30.27,30.27,0,0,1-9.94-6,28.19,28.19,0,0,1-6.72-9.49,30.38,30.38,0,0,1-2.49-12.49,30,30,0,0,1,2.49-12.43,27.74,27.74,0,0,1,6.72-9.38,29.22,29.22,0,0,1,9.94-5.87,36.7,36.7,0,0,1,24.13,0,29.8,29.8,0,0,1,9.94,5.87,27.35,27.35,0,0,1,6.78,9.38A30,30,0,0,1,397.73,170.67Zm-17.85,0a16.11,16.11,0,0,0-.91-5.31,14.06,14.06,0,0,0-2.6-4.58,13.32,13.32,0,0,0-4.18-3.22,13,13,0,0,0-15.65,3.22,13.79,13.79,0,0,0-2.48,4.58,17,17,0,0,0,0,10.62,14.42,14.42,0,0,0,2.54,4.69,12.29,12.29,0,0,0,4.18,3.33,13.9,13.9,0,0,0,11.52,0,12.33,12.33,0,0,0,4.19-3.33A14.61,14.61,0,0,0,379,176,17.15,17.15,0,0,0,379.88,170.67Z"/><path class="cls-4" d="M428.58,156.54V178.1q0,4,1.52,6t5.48,2a19.67,19.67,0,0,0,2.88-.23,9.57,9.57,0,0,0,2.55-.68l.22,13.56a29.77,29.77,0,0,1-4.86,1.19,34.14,34.14,0,0,1-5.87.51A27.46,27.46,0,0,1,421,199a14.55,14.55,0,0,1-6.16-4.08,16,16,0,0,1-3.34-6.34,31.13,31.13,0,0,1-1-8.21v-23.8h-9V142.76h8.92V128h18.2v14.8H441.8v13.78Z"/><path class="cls-4" d="M504.8,171.57v2.26a18.33,18.33,0,0,1-.12,2.15H463.89a9.86,9.86,0,0,0,1.41,4.3,12.21,12.21,0,0,0,3.05,3.33,15,15,0,0,0,9,3,15.45,15.45,0,0,0,7.45-1.64,14.7,14.7,0,0,0,5-4.23l12.88,8.13a26,26,0,0,1-10.45,8.87,34.68,34.68,0,0,1-15.09,3.11,36,36,0,0,1-12-2,28.83,28.83,0,0,1-9.88-5.76,26.6,26.6,0,0,1-6.67-9.32,31.21,31.21,0,0,1-2.43-12.66,31.66,31.66,0,0,1,2.37-12.48,28.26,28.26,0,0,1,6.44-9.5,28.68,28.68,0,0,1,9.61-6,32.86,32.86,0,0,1,12-2.15A30.4,30.4,0,0,1,488,143a25,25,0,0,1,8.93,6.05,28.1,28.1,0,0,1,5.82,9.6A37.06,37.06,0,0,1,504.8,171.57Zm-17.07-7.11a11.11,11.11,0,0,0-2.77-7.58c-1.84-2.1-4.61-3.16-8.3-3.16a13.9,13.9,0,0,0-5,.85,12.94,12.94,0,0,0-4,2.31,11.48,11.48,0,0,0-2.71,3.45,10,10,0,0,0-1.13,4.13Z"/><path class="cls-4" d="M576.5,143.66a24.58,24.58,0,0,1-2.59,11.81,21.43,21.43,0,0,1-7,7.74,31.07,31.07,0,0,1-10.17,4.3,52.38,52.38,0,0,1-12,1.35h-9.6V199H515.82V119H545.2a54.89,54.89,0,0,1,12.26,1.3,29,29,0,0,1,9.95,4.18,20.35,20.35,0,0,1,6.67,7.57A25.12,25.12,0,0,1,576.5,143.66Zm-19.32.12a8.67,8.67,0,0,0-1.13-4.64,7.89,7.89,0,0,0-3-2.82,13.13,13.13,0,0,0-4.35-1.36,37.37,37.37,0,0,0-5-.34h-8.47v18.87h8.13a29.17,29.17,0,0,0,5.2-.45,13.88,13.88,0,0,0,4.46-1.58,8.43,8.43,0,0,0,3.11-3A9,9,0,0,0,557.18,143.78Z"/><path class="cls-4" d="M584.28,199V113.61h18.87V199Z"/><path class="cls-4" d="M613.15,199V184.57L639.59,157H614.17V142.76h48v13.9l-27.23,28h28.36V199Z"/></g></g></svg>