<svg fill="none" height="500" viewBox="0 0 800 500" width="800" xmlns="http://www.w3.org/2000/svg"><path d="m0 0h800v500h-800z" fill="#b9eaf8"/><g clip-rule="evenodd" fill-rule="evenodd"><path d="m348.433 195.378c2.086 3.321 1.814 7.604-.674 10.635-1.767 2.151-3.543 4.245-5.306 6.324-4.292 5.062-8.504 10.028-12.292 15.477-1.907 2.743-3.586 5.453-4.99 8.145 5.361-1.298 12.323-2.902 21.476-4.879 4.921-1.063 9.772 2.065 10.835 6.986s-2.065 9.772-6.986 10.834c-22.098 4.773-31.003 7.288-35.544 8.57-.339.096-.654.185-.948.267-2.916.818-6.048.133-8.357-1.826-2.31-1.959-3.496-4.938-3.164-7.948 1.287-11.695 6.701-21.913 12.708-30.555.324-.465.651-.929.982-1.391-4.82 1.367-7.93 2.344-10.119 3.032-.446.14-.854.268-1.231.385-4.807 1.494-9.916-1.192-11.41-6s1.192-9.916 6-11.41c.383-.119.797-.249 1.248-.391 5.064-1.588 14.819-4.649 37.898-10.263 3.811-.927 7.787.688 9.874 4.008z" fill="#bf4d4e"/><g fill="#ff6667"><path d="m492.75 178.636c.265 5.027-3.595 9.318-8.623 9.583-36.497 1.924-72.807 6.488-108.645 13.655-4.937.987-9.739-2.214-10.726-7.151-.988-4.937 2.214-9.739 7.151-10.726 36.7-7.34 73.885-12.014 111.26-13.984 5.028-.265 9.318 3.596 9.583 8.623z"/><path d="m497.658 221.54c.222 5.03-3.676 9.287-8.706 9.508-35.818 1.577-71.497 5.469-106.813 11.65-4.959.868-9.683-2.449-10.551-7.408s2.449-9.683 7.408-10.551c36.09-6.316 72.551-10.293 109.154-11.905 5.03-.221 9.287 3.677 9.508 8.706z"/><path d="m502.415 259.844c.242 5.028-3.638 9.301-8.667 9.543-57.666 2.773-114.835 8.854-170.613 22.132-4.897 1.166-9.813-1.859-10.979-6.756-1.166-4.898 1.859-9.813 6.757-10.979 57.256-13.631 115.637-19.802 173.959-22.607 5.029-.242 9.301 3.638 9.543 8.667z"/><path d="m507.213 302.778c.202 5.03-3.712 9.272-8.743 9.474-56.041 2.252-111.559 6.764-166.216 17.573-4.939.977-9.734-2.235-10.711-7.174s2.235-9.734 7.174-10.711c55.971-11.069 112.539-15.635 169.021-17.905 5.031-.202 9.273 3.712 9.475 8.743z"/></g></g></svg>