<svg fill="none" height="501" viewBox="0 0 800 501" width="800" xmlns="http://www.w3.org/2000/svg"><path d="m0 .900024h800v500h-800z" fill="#ecf1f9"/><path d="m198.397 200.9c27.862 0 50.396 21.53 50.396 49.629 0 28.219-22.655 50.371-50.646 50.371-27.984 0-50.647-21.788-50.647-50 0-28.091 22.913-50 50.897-50zm-.25 77.098c14.863 0 25.755-12.871 25.755-27.227s-11.021-27.106-25.755-27.106c-14.735 0-25.756 12.75-25.756 27.106s11.021 27.227 25.756 27.227z" fill="#3d79cc"/><path d="m198.147 250.62c0 19.772-14.758 35.606-33.782 37.742 8.959 7.849 20.798 12.538 33.782 12.538 12.908 0 24.671-4.712 33.615-12.553-18.949-2.22-33.615-18.008-33.615-37.727z" fill="#80c3ff"/><g fill="#3d79cc"><path d="m303.244 263.65c0-5.447-3.342-10.152-9.035-10.152-5.699 0-9.656 3.591-9.656 10.152v35.765h-23.527v-66.091h23.406v8.296h.25c5.071-6.811 12.627-9.652 18.949-9.652 17.455 0 23.155 14.606 23.155 27.477v39.97h-23.527v-35.765z"/><path d="m368.982 268.839h.121l11.513-35.522h19.192l11.885 35.772h.121l10.899-35.772h22.534l-21.298 66.091h-22.413l-11.271-35.394h-.242l-11.643 35.394h-22.162l-20.927-66.091h23.398z"/><path d="m465.174 257.332-15.728-9.652c6.064-10.765 16.221-15.841 31.698-15.841 18.077 0 30.333 8.909 30.333 27.228v40.348h-22.412v-7.674l-.25-.121c-5.571 6.431-12.135 9.03-20.056 9.03-11.021 0-20.055-8.288-20.055-19.432 0-16.091 17.213-20.795 31.326-20.795h3.471c2.971 0 4.707-1.606 4.707-4.084 0-3.341-2.85-6.56-8.792-6.56-6.443.007-10.899 2.727-14.242 7.553zm23.034 17.697v-1.985h-8.171c-3.592 0-7.799 1.485-7.799 5.697 0 3.22 2.85 5.568 5.95 5.568 5.685.008 10.02-3.341 10.02-9.28z"/><path d="m572.637 255.968c-2.6-.492-5.45-.492-5.821-.492-9.786 0-16.963 4.333-16.963 16.712v27.227h-23.656v-66.091h23.405v10.394h.122c4.335-8.909 13.249-11.015 18.57-11.015 1.114 0 2.971.121 4.335.5v22.765z"/><path d="m578.496 266.241c0-20.167 14.984-34.159 31.447-34.159 3.093 0 12.014.5 18.327 8.788h.501v-38.485h23.527v97.03h-23.406v-8.045h-.493c-6.685 8.538-15.227 9.409-18.949 9.409-17.827 0-30.954-15.72-30.954-34.538zm37.276-13.364c-7.307 0-13.128 6.061-13.128 13.364s5.821 13.364 13.128 13.364c7.306 0 13.12-6.061 13.12-13.364s-5.814-13.364-13.12-13.364z"/></g></svg>