<svg width="24" height="24" viewBox="0 0 24 24" fill="none" xmlns="http://www.w3.org/2000/svg">
<path d="M15.7225 10.2967C16.3358 8.63 16.8142 7.25417 17.1583 6.16917C17.5017 5.08417 17.6733 4.4175 17.6733 4.17C17.6733 3.905 17.6158 3.69917 17.5017 3.5525C17.446 3.48061 17.3738 3.42312 17.2913 3.38485C17.2088 3.34657 17.1184 3.32862 17.0275 3.3325C16.7708 3.3325 16.5108 3.545 16.2442 3.97083C15.9792 4.39667 15.6858 5.08167 15.365 6.025L13.9917 9.99417L15.7225 10.2967ZM13.8958 13.9917C13.5017 13.9733 13.1292 13.9325 12.7758 13.8683C12.432 13.8065 12.0943 13.7145 11.7667 13.5933C11.9125 13.8867 12.0433 14.1792 12.1583 14.4725C12.2725 14.7658 12.3667 15.0542 12.4392 15.3383C12.6592 15.0633 12.8908 14.8133 13.1333 14.5892C13.3703 14.369 13.6254 14.1691 13.8958 13.9917V13.9917ZM12.3433 9.83L10.86 5.54417C10.475 4.45417 10.1775 3.74167 9.96667 3.40833C9.75583 3.07333 9.5275 2.90667 9.28 2.90667C9.19043 2.90432 9.10157 2.923 9.02052 2.96121C8.93948 2.99941 8.86852 3.05608 8.81333 3.12667C8.69417 3.2725 8.63417 3.47 8.63417 3.71667C8.63417 4.13833 8.795 4.87083 9.115 5.915C9.43583 6.95917 9.91667 8.3275 10.5575 10.0217C10.6077 9.92544 10.6904 9.85014 10.7908 9.80917C10.9232 9.76269 11.0632 9.74176 11.2033 9.7475C11.2583 9.7475 11.3683 9.75167 11.5333 9.76083C11.6975 9.77 11.9675 9.79333 12.3433 9.83ZM10.9975 16.4642C11.1525 16.4642 11.295 16.3933 11.4225 16.2517C11.543 16.1285 11.6119 15.9639 11.615 15.7917C11.615 15.6175 11.49 15.2125 11.2375 14.575C10.9784 13.9241 10.6636 13.2968 10.2967 12.7C10.0217 12.2425 9.75167 11.8975 9.48583 11.6633C9.22083 11.43 8.96917 11.3133 8.73083 11.3133C8.53917 11.3133 8.32583 11.435 8.09167 11.6775C7.85833 11.92 7.74167 12.1467 7.74167 12.3575C7.74167 12.5767 7.85583 12.9075 8.085 13.3467C8.31417 13.7858 8.62083 14.2525 9.00583 14.7467C9.40833 15.2883 9.78917 15.7092 10.1458 16.0108C10.5025 16.3133 10.7867 16.4642 10.9975 16.4642ZM6.87667 16.135C7.00417 16.2908 7.18333 16.5192 7.41167 16.8217C8.01667 17.655 8.575 18.0717 9.0875 18.0717C9.25755 18.0728 9.42264 18.0145 9.55417 17.9067C9.6925 17.7967 9.76083 17.6817 9.76083 17.5633C9.76083 17.4258 9.66917 17.1967 9.48583 16.8767C9.3025 16.5558 9.05083 16.1942 8.73083 15.7917C8.36417 15.325 8.06 14.9833 7.8175 14.7683C7.575 14.5533 7.38 14.445 7.23417 14.445C6.9125 14.445 6.6175 14.6167 6.3475 14.96C6.0775 15.3033 5.9425 15.7092 5.9425 16.1767C5.9425 16.5517 6.03583 16.9708 6.22417 17.4325C6.41167 17.895 6.68417 18.36 7.04083 18.8267C7.56636 19.538 8.25705 20.1109 9.05333 20.4958C9.855 20.885 10.7408 21.0792 11.7117 21.0792C13.4975 21.0792 14.9925 20.4133 16.1967 19.0808C17.4008 17.7483 18.0025 16.08 18.0025 14.0742C18.0025 13.4608 17.9567 12.9733 17.865 12.6117C17.7733 12.25 17.6233 11.9867 17.4117 11.8217C17.0367 11.51 16.3067 11.2308 15.2208 10.9833C14.105 10.7327 12.9645 10.6083 11.8208 10.6125C11.4917 10.6125 11.2583 10.6675 11.1208 10.7775C10.9833 10.8875 10.915 11.075 10.915 11.3408C10.915 11.9633 11.2625 12.4142 11.9592 12.6933C12.6542 12.9733 13.7808 13.1125 15.3383 13.1125H15.9008C16.0292 13.1125 16.1325 13.1608 16.21 13.2567C16.2875 13.3533 16.3408 13.4975 16.3683 13.69C16.2125 13.8358 15.8917 14.0033 15.4067 14.1908C14.9208 14.3783 14.55 14.5642 14.2942 14.7475C13.7613 15.1327 13.3108 15.6206 12.9692 16.1825C12.6342 16.7367 12.4667 17.2608 12.4667 17.7558C12.4667 18.0575 12.5375 18.4225 12.68 18.8475C12.8217 19.2733 12.8925 19.5367 12.8925 19.6375V19.7333L12.865 19.8575C12.4625 19.83 12.1442 19.5942 11.9108 19.1492C11.6775 18.7058 11.5608 18.1125 11.5608 17.3708V17.2475C11.4979 17.305 11.4258 17.3514 11.3475 17.385C11.2753 17.4133 11.1984 17.4274 11.1208 17.4267C11.0383 17.4267 10.9608 17.4192 10.8875 17.405C10.804 17.3889 10.7213 17.3683 10.64 17.3433C10.6864 17.514 10.7141 17.6892 10.7225 17.8658C10.7225 18.2042 10.5892 18.495 10.3242 18.7375C10.0673 18.9768 9.72769 19.1073 9.37667 19.1017C8.79917 19.1017 8.21333 18.82 7.61833 18.2567C7.0225 17.6942 6.725 17.1425 6.725 16.6017C6.725 16.5017 6.73667 16.4117 6.75917 16.3342C6.78037 16.2586 6.82053 16.1898 6.87583 16.1342L6.87667 16.135ZM16.7117 10.53C17.5358 10.6858 18.1175 11.0342 18.4558 11.5742C18.795 12.115 18.9642 12.9658 18.9642 14.1292C18.9642 16.4375 18.2708 18.3258 16.8833 19.7958C15.4958 21.265 13.7217 22 11.5608 22C10.7129 22.0008 9.87208 21.8449 9.08083 21.54C8.31318 21.2541 7.6105 20.8175 7.01417 20.2558C6.35417 19.6508 5.86 19.0125 5.53083 18.3392C5.20852 17.6977 5.0391 16.9904 5.03583 16.2725C5.03583 15.4842 5.205 14.8758 5.54417 14.445C5.8825 14.015 6.41833 13.7217 7.15083 13.5658C7.03448 13.302 6.93375 13.0315 6.84917 12.7558C6.785 12.5358 6.7525 12.3667 6.7525 12.2475C6.7525 11.835 6.97 11.4142 7.405 10.9833C7.84 10.5533 8.25 10.3383 8.63417 10.3383C8.79917 10.3383 8.97333 10.3675 9.15667 10.4275C9.34 10.4867 9.55 10.5858 9.78833 10.7225C9.08333 8.72583 8.57083 7.18583 8.25 6.1C7.92917 5.015 7.76917 4.26667 7.76917 3.85417C7.76917 3.28667 7.91583 2.83583 8.20917 2.50167C8.50167 2.16667 8.9 2 9.40417 2C10.2642 2 11.3542 3.92333 12.6733 7.76917C12.9017 8.42833 13.0758 8.93667 13.195 9.29417L13.6208 8.08583C14.9392 4.275 16.075 2.37 17.0275 2.37C17.4942 2.37 17.8675 2.52833 18.1467 2.84417C18.4267 3.16 18.5658 3.58333 18.5658 4.11417C18.5658 4.5175 18.4125 5.255 18.1058 6.32583C17.7992 7.3975 17.3342 8.79833 16.7117 10.5292" fill="black"/>
</svg>
