<svg width="24" height="24" viewBox="0 0 24 24" fill="none" xmlns="http://www.w3.org/2000/svg">
<path d="M18.9308 5.64152C17.6342 5.04632 16.2658 4.62189 14.8599 4.37885C14.8471 4.37647 14.8339 4.37817 14.8222 4.38372C14.8104 4.38928 14.8008 4.39839 14.7945 4.40977C14.6187 4.72252 14.4239 5.13043 14.2876 5.45102C12.7503 5.22085 11.2209 5.22085 9.71524 5.45102C9.57891 5.12327 9.37708 4.72252 9.20049 4.40977C9.19395 4.39865 9.18421 4.38976 9.17254 4.38426C9.16087 4.37876 9.14782 4.3769 9.13508 4.37893C7.72906 4.62141 6.36058 5.0458 5.06408 5.64143C5.05299 5.64617 5.04364 5.65424 5.03733 5.66452C2.4445 9.53818 1.73417 13.3166 2.08267 17.0482C2.08366 17.0573 2.08646 17.0661 2.09093 17.0742C2.0954 17.0822 2.10143 17.0893 2.10867 17.0949C3.81933 18.3512 5.47642 19.1139 7.10275 19.6194C7.11539 19.6232 7.12889 19.623 7.14143 19.6189C7.15397 19.6148 7.16495 19.6069 7.17291 19.5964C7.55758 19.0711 7.90049 18.5171 8.19458 17.9346C8.19862 17.9266 8.20093 17.9179 8.20135 17.9089C8.20177 17.9 8.20029 17.8911 8.19702 17.8828C8.19374 17.8744 8.18874 17.8669 8.18235 17.8607C8.17595 17.8544 8.16831 17.8496 8.15991 17.8465C7.61591 17.6402 7.098 17.3886 6.59975 17.1029C6.59066 17.0976 6.58303 17.0901 6.57752 17.0811C6.57202 17.0721 6.56881 17.0619 6.56819 17.0514C6.56756 17.0409 6.56954 17.0304 6.57394 17.0208C6.57833 17.0112 6.58502 17.0029 6.59341 16.9965C6.69825 16.9179 6.80316 16.8362 6.90325 16.7537C6.91214 16.7463 6.92291 16.7416 6.93433 16.7401C6.94576 16.7385 6.95739 16.7402 6.96791 16.7449C10.2411 18.2393 13.7846 18.2393 17.0191 16.7449C17.0296 16.7399 17.0413 16.738 17.0529 16.7394C17.0645 16.7408 17.0754 16.7455 17.0845 16.7528C17.1846 16.8353 17.2895 16.9179 17.3951 16.9965C17.4036 17.0028 17.4103 17.0111 17.4147 17.0206C17.4192 17.0302 17.4212 17.0406 17.4207 17.0511C17.4202 17.0616 17.417 17.0718 17.4116 17.0809C17.4062 17.0899 17.3987 17.0974 17.3896 17.1028C16.8912 17.394 16.3691 17.6425 15.8288 17.8457C15.8204 17.8489 15.8128 17.8538 15.8065 17.8602C15.8001 17.8665 15.7952 17.8741 15.792 17.8825C15.7888 17.8909 15.7874 17.8999 15.7879 17.9089C15.7884 17.9178 15.7908 17.9266 15.7949 17.9346C16.0952 18.5162 16.4382 19.0702 16.8157 19.5956C16.8234 19.6064 16.8344 19.6146 16.847 19.6188C16.8596 19.6231 16.8732 19.6233 16.8859 19.6194C18.5201 19.1138 20.1771 18.3512 21.8878 17.0949C21.8952 17.0895 21.9013 17.0827 21.9058 17.0747C21.9103 17.0668 21.9131 17.058 21.9139 17.0489C22.3309 12.7348 21.2154 8.98735 18.9568 5.66527C18.9513 5.65447 18.942 5.64602 18.9308 5.64143V5.64152ZM8.68333 14.776C7.69791 14.776 6.88591 13.8713 6.88591 12.7602C6.88591 11.6492 7.68216 10.7444 8.68341 10.7444C9.69241 10.7444 10.4965 11.6571 10.4807 12.7603C10.4807 13.8713 9.68449 14.776 8.68333 14.776V14.776ZM15.329 14.776C14.3436 14.776 13.5316 13.8713 13.5316 12.7602C13.5316 11.6492 14.3277 10.7444 15.329 10.7444C16.338 10.7444 17.1421 11.6571 17.1263 12.7603C17.1263 13.8713 16.338 14.776 15.329 14.776V14.776Z" fill="#5865F2"/>
</svg>
