<svg width="24" height="24" viewBox="0 0 24 24" fill="none" xmlns="http://www.w3.org/2000/svg">
<path d="M12 22C6.4875 22 2 17.5125 2 12C2 6.4875 6.4875 2 12 2C17.5125 2 22 6.4875 22 12C22 17.5125 17.5125 22 12 22ZM20.4333 13.3683C20.1417 13.2767 17.7917 12.5742 15.1133 13.0033C16.23 16.0733 16.6858 18.5733 16.7733 19.0933C18.69 17.7975 20.0533 15.7433 20.4358 13.3683H20.4333ZM15.3375 19.875C15.21 19.125 14.7125 16.515 13.5125 13.4L13.4575 13.4167C8.6325 15.0958 6.9075 18.4375 6.7575 18.75C8.19917 19.8817 10.0242 20.555 11.9992 20.555C13.1825 20.555 14.3075 20.3133 15.3325 19.8767L15.3375 19.875ZM5.65417 17.725C5.8475 17.3917 8.19167 13.5125 12.5975 12.0875C12.71 12.05 12.8225 12.0175 12.935 11.9875C12.7183 11.5 12.485 11.015 12.2417 10.5375C7.975 11.8125 3.83833 11.7583 3.46333 11.75L3.46 12.01C3.46 14.2042 4.29167 16.2075 5.655 17.7225L5.65417 17.725ZM3.6375 10.2625C4.02083 10.2692 7.54 10.2842 11.535 9.2225C10.12 6.7075 8.59333 4.59083 8.36833 4.2825C5.97833 5.4075 4.19333 7.6075 3.63833 10.2575L3.6375 10.2625ZM10 3.71C10.235 4.02667 11.7875 6.13833 13.185 8.71C16.2225 7.5725 17.51 5.84333 17.6625 5.625C16.1542 4.28333 14.1708 3.47 12 3.47C11.3125 3.47 10.6417 3.55333 10 3.7075V3.71ZM18.6125 6.6125C18.4308 6.85417 17 8.69 13.8425 9.97917C14.0425 10.3875 14.2342 10.8 14.4092 11.2175C14.4758 11.3675 14.5342 11.5175 14.5925 11.6592C17.4342 11.3008 20.2592 11.8758 20.5425 11.9342C20.5258 9.9175 19.8092 8.0675 18.6175 6.6175L18.6125 6.6125Z" fill="#EA4C89"/>
</svg>
