<svg width="24" height="24" viewBox="0 0 24 24" fill="none" xmlns="http://www.w3.org/2000/svg">
<path d="M5.33359 10.0914C5.53125 10.5139 6.02044 11.349 6.02044 11.349L11.6758 2L6.15632 5.85423C5.82744 6.07363 5.55761 6.37061 5.37065 6.71896C5.11927 7.24449 4.98571 7.81857 4.97931 8.40109C4.97291 8.98361 5.09382 9.56049 5.33359 10.0914V10.0914Z" fill="#5284FF"/>
<path d="M3.0927 13.1699C3.15502 14.0641 3.40769 14.9348 3.83378 15.7235C4.25988 16.5122 4.84957 17.2007 5.56337 17.7431L11.6684 22C11.6684 22 7.84873 16.4954 4.62698 11.0179C4.30082 10.4392 4.08155 9.80651 3.97967 9.15009C3.93457 8.85284 3.93457 8.55049 3.97967 8.25324C3.89567 8.40889 3.73261 8.72761 3.73261 8.72761C3.40593 9.39385 3.18345 10.1063 3.07294 10.84C3.00933 11.6156 3.01594 12.3954 3.0927 13.1699V13.1699Z" fill="#5284FF"/>
<path d="M18.6678 13.9086C18.4701 13.4861 17.9809 12.651 17.9809 12.651L12.3256 22L17.845 18.1482C18.1739 17.9288 18.4437 17.6319 18.6307 17.2835C18.8824 16.7577 19.0162 16.1831 19.0226 15.6001C19.029 15.0172 18.9079 14.4398 18.6678 13.9086V13.9086Z" fill="#5284FF"/>
<path d="M20.9086 10.8301C20.8463 9.93587 20.5937 9.06523 20.1676 8.27653C19.7415 7.48783 19.1518 6.79926 18.438 6.25695L12.333 2C12.333 2 16.1501 7.50463 19.3744 12.9821C19.6997 13.5609 19.9181 14.1936 20.0192 14.8499C20.0643 15.1472 20.0643 15.4495 20.0192 15.7468C20.1032 15.5911 20.2663 15.2724 20.2663 15.2724C20.5929 14.6062 20.8154 13.8937 20.9259 13.16C20.9904 12.3844 20.9846 11.6046 20.9086 10.8301Z" fill="#5284FF"/>
<g style="mix-blend-mode:color">
<path d="M5.37065 6.71896C5.55762 6.37061 5.82744 6.07363 6.15632 5.85423L11.6758 2L6.02044 11.3515C6.02044 11.3515 5.52631 10.5164 5.33359 10.0939C5.09345 9.56263 4.97233 8.9853 4.97873 8.40232C4.98513 7.81935 5.1189 7.24482 5.37065 6.71896V6.71896ZM3.0927 13.1699C3.15502 14.0641 3.40769 14.9348 3.83378 15.7235C4.25988 16.5122 4.84957 17.2007 5.56337 17.7431L11.6684 22C11.6684 22 7.84873 16.4954 4.62699 11.0179C4.30082 10.4392 4.08155 9.80652 3.97967 9.15009C3.93457 8.85284 3.93457 8.55049 3.97967 8.25324C3.89567 8.40889 3.73261 8.72761 3.73261 8.72761C3.40593 9.39385 3.18345 10.1063 3.07294 10.84C3.00933 11.6156 3.01594 12.3954 3.0927 13.1699V13.1699ZM18.6579 13.9111C18.4602 13.4886 17.971 12.6535 17.971 12.6535L12.3256 22L17.845 18.1482C18.1739 17.9288 18.4437 17.6319 18.6307 17.2835C18.8824 16.7577 19.0162 16.1831 19.0226 15.6001C19.029 15.0172 18.9079 14.4398 18.6678 13.9086L18.6579 13.9111ZM20.8988 10.8326C20.8364 9.93834 20.5838 9.0677 20.1577 8.279C19.7316 7.4903 19.1419 6.80173 18.4281 6.25942L12.333 2C12.333 2 16.1501 7.50463 19.3744 12.9821C19.6997 13.5609 19.9181 14.1936 20.0192 14.8499C20.0643 15.1472 20.0643 15.4495 20.0192 15.7468C20.1032 15.5911 20.2663 15.2724 20.2663 15.2724C20.5929 14.6062 20.8154 13.8937 20.9259 13.16C20.9904 12.3844 20.9846 11.6046 20.9086 10.8301L20.8988 10.8326Z" fill="#5284FF"/>
</g>
</svg>
