<svg width="24" height="24" viewBox="0 0 24 24" fill="none" xmlns="http://www.w3.org/2000/svg">
<path d="M15.2104 9.48417H11.3871V2H15.2104C17.2737 2 18.9521 3.67833 18.9521 5.74167C18.9521 7.805 17.2737 9.48417 15.2104 9.48417V9.48417ZM12.6129 8.25833H15.2104C16.5979 8.25833 17.7263 7.12917 17.7263 5.7425C17.7263 4.35583 16.5971 3.22667 15.2104 3.22667H12.6129V8.25833V8.25833ZM12.6129 9.48417H8.79042C6.72708 9.48417 5.04875 7.80583 5.04875 5.7425C5.04875 3.67917 6.72708 2 8.79042 2H12.6138V9.48417H12.6129ZM8.79042 3.22583C7.40292 3.22583 6.27458 4.355 6.27458 5.74167C6.27458 7.12833 7.40292 8.25833 8.79042 8.25833H11.3879V3.22583H8.79042ZM12.6129 15.7417H8.79042C6.72708 15.7417 5.04875 14.0633 5.04875 12C5.04875 9.93667 6.72708 8.25833 8.79042 8.25833H12.6138V15.7417H12.6129ZM8.79042 9.48417C7.40292 9.48417 6.27458 10.6133 6.27458 12C6.27458 13.3867 7.40375 14.5158 8.79042 14.5158H11.3879V9.48417H8.79042ZM8.81042 22C6.73625 22 5.04792 20.3217 5.04792 18.2583C5.04792 16.195 6.72625 14.5167 8.78958 14.5167H12.6129V18.2175C12.6129 20.3033 10.9071 22 8.81042 22V22ZM8.79042 15.7417C8.12345 15.7425 7.48405 16.0079 7.01243 16.4795C6.54081 16.9511 6.27547 17.5905 6.27458 18.2575C6.27458 19.645 7.41208 20.7733 8.81125 20.7733C10.2321 20.7733 11.3887 19.6267 11.3887 18.2167V15.7417H8.79042V15.7417ZM15.2104 15.7417H15.1288C13.0654 15.7417 11.3871 14.0633 11.3871 12C11.3871 9.93667 13.0654 8.25833 15.1288 8.25833H15.2104C17.2737 8.25833 18.9521 9.93667 18.9521 12C18.9521 14.0633 17.2737 15.7417 15.2104 15.7417V15.7417ZM15.1296 9.48417C13.7421 9.48417 12.6138 10.6133 12.6138 12C12.6138 13.3867 13.7429 14.5158 15.1296 14.5158H15.2112C16.5987 14.5158 17.7271 13.3867 17.7271 12C17.7271 10.6133 16.5979 9.48417 15.2112 9.48417H15.1296V9.48417Z" fill="#18A0FB"/>
</svg>
