<svg width="24" height="24" viewBox="0 0 24 24" fill="none" xmlns="http://www.w3.org/2000/svg">
<path d="M12 2C6.475 2 2 6.4775 2 12C2 16.4192 4.865 20.1667 8.8375 21.4875C9.3375 21.5817 9.52083 21.2725 9.52083 21.0067C9.52083 20.7692 9.5125 20.14 9.50833 19.3067C6.72667 19.91 6.14 17.965 6.14 17.965C5.685 16.8108 5.0275 16.5025 5.0275 16.5025C4.12167 15.8825 5.0975 15.895 5.0975 15.895C6.10167 15.965 6.62917 16.925 6.62917 16.925C7.52083 18.4542 8.97 18.0125 9.54167 17.7567C9.63167 17.11 9.88917 16.6692 10.175 16.4192C7.95417 16.1692 5.62 15.3092 5.62 11.4775C5.62 10.3858 6.0075 9.49417 6.64917 8.79417C6.53667 8.54167 6.19917 7.525 6.73667 6.1475C6.73667 6.1475 7.57417 5.87917 9.48667 7.1725C10.2867 6.95 11.1367 6.84 11.9867 6.835C12.8367 6.84 13.6867 6.95 14.4867 7.1725C16.3867 5.87917 17.2242 6.1475 17.2242 6.1475C17.7617 7.525 17.4242 8.54167 17.3242 8.79417C17.9617 9.49417 18.3492 10.3858 18.3492 11.4775C18.3492 15.3192 16.0117 16.165 13.7867 16.4108C14.1367 16.7108 14.4617 17.3242 14.4617 18.2608C14.4617 19.5992 14.4492 20.6742 14.4492 20.9992C14.4492 21.2617 14.6242 21.5742 15.1367 21.4742C19.1375 20.1625 22 16.4125 22 12C22 6.4775 17.5225 2 12 2" fill="#181717"/>
</svg>
