<svg width="24" height="24" viewBox="0 0 24 24" fill="none" xmlns="http://www.w3.org/2000/svg">
<path d="M11.5247 21.9961C8.51796 21.8228 6.29627 20.2652 6.15127 17.7644C6.73044 17.7702 7.29712 17.7535 7.87629 17.7594C8.06296 18.8777 8.7638 19.7844 10.1121 20.2811C11.4313 20.6944 13.2263 20.6644 14.3472 20.1361C15.473 19.6061 16.1347 18.6177 16.433 17.1552C16.6097 16.2869 16.6297 15.7102 16.6256 14.7218L16.6214 13.3627H16.5722C15.5347 15.4994 13.8097 16.3044 11.9138 16.2585C7.13045 16.2135 5.51376 12.4802 5.64043 9.08678C5.64876 4.71923 8.32379 1.97254 11.938 2.00754C13.8997 1.89087 15.7755 3.14255 16.5664 4.8159L16.6155 4.81757L16.6172 2.38587L18.3664 2.38921L18.3647 15.4868C18.2039 21.3536 14.718 22.0619 11.5238 21.9961H11.5247ZM16.6081 8.96845C16.528 6.25175 15.2739 3.45172 12.0222 3.43088C8.72713 3.41672 7.33462 6.42425 7.35212 9.13928C7.34128 12.0051 8.7213 14.3935 11.2713 14.7743C15.048 15.2668 16.7306 11.9318 16.6081 8.96845Z" fill="#372213"/>
</svg>
