<svg width="24" height="24" viewBox="0 0 24 24" fill="none" xmlns="http://www.w3.org/2000/svg">
<path d="M12 2C9.28333 2 8.94417 2.0125 7.8775 2.06C6.8125 2.11 6.0875 2.2775 5.45 2.525C4.7925 2.78 4.23417 3.1225 3.67833 3.67833C3.1225 4.23417 2.77917 4.79167 2.525 5.45C2.2775 6.0875 2.10917 6.8125 2.06 7.8775C2.01 8.94417 2 9.28333 2 12C2 14.7167 2.0125 15.0558 2.06 16.1225C2.11 17.1867 2.2775 17.9125 2.525 18.55C2.78 19.2067 3.1225 19.7658 3.67833 20.3217C4.23417 20.8767 4.79167 21.2208 5.45 21.475C6.08833 21.7217 6.81333 21.8908 7.8775 21.94C8.94417 21.99 9.28333 22 12 22C14.7167 22 15.0558 21.9875 16.1225 21.94C17.1867 21.89 17.9125 21.7217 18.55 21.475C19.2067 21.22 19.7658 20.8767 20.3217 20.3217C20.8767 19.7658 21.2208 19.2092 21.475 18.55C21.7217 17.9125 21.8908 17.1867 21.94 16.1225C21.99 15.0558 22 14.7167 22 12C22 9.28333 21.9875 8.94417 21.94 7.8775C21.89 6.81333 21.7217 6.08667 21.475 5.45C21.22 4.7925 20.8767 4.23417 20.3217 3.67833C19.7658 3.1225 19.2092 2.77917 18.55 2.525C17.9125 2.2775 17.1867 2.10917 16.1225 2.06C15.0558 2.01 14.7167 2 12 2ZM12 3.8C14.6692 3.8 14.9875 3.81333 16.0417 3.85917C17.0167 3.905 17.5458 4.06667 17.8975 4.205C18.3658 4.38583 18.6975 4.6025 19.0492 4.95167C19.3983 5.30167 19.615 5.63417 19.7958 6.1025C19.9325 6.45417 20.0958 6.98333 20.14 7.95833C20.1875 9.01333 20.1983 9.33 20.1983 12C20.1983 14.67 20.1858 14.9875 20.1367 16.0417C20.0858 17.0167 19.9233 17.5458 19.7858 17.8975C19.5992 18.3658 19.3867 18.6975 19.0367 19.0492C18.6875 19.3983 18.35 19.615 17.8867 19.7958C17.5367 19.9325 16.9992 20.0958 16.0242 20.14C14.9625 20.1875 14.65 20.1983 11.975 20.1983C9.29917 20.1983 8.98667 20.1858 7.92583 20.1367C6.95 20.0858 6.4125 19.9233 6.0625 19.7858C5.58833 19.5992 5.2625 19.3867 4.91333 19.0367C4.5625 18.6875 4.33833 18.35 4.16333 17.8867C4.02583 17.5367 3.86417 16.9992 3.81333 16.0242C3.77583 14.9742 3.7625 14.65 3.7625 11.9875C3.7625 9.32417 3.77583 8.99917 3.81333 7.93667C3.86417 6.96167 4.02583 6.425 4.16333 6.075C4.33833 5.6 4.5625 5.275 4.91333 4.92417C5.2625 4.575 5.58833 4.35 6.0625 4.17583C6.4125 4.0375 6.93833 3.875 7.91333 3.825C8.97583 3.7875 9.28833 3.775 11.9625 3.775L12 3.8V3.8ZM12 6.865C9.1625 6.865 6.865 9.165 6.865 12C6.865 14.8375 9.165 17.135 12 17.135C14.8375 17.135 17.135 14.835 17.135 12C17.135 9.1625 14.835 6.865 12 6.865ZM12 15.3333C10.1583 15.3333 8.66667 13.8417 8.66667 12C8.66667 10.1583 10.1583 8.66667 12 8.66667C13.8417 8.66667 15.3333 10.1583 15.3333 12C15.3333 13.8417 13.8417 15.3333 12 15.3333ZM18.5383 6.6625C18.5383 7.325 18 7.8625 17.3383 7.8625C16.6758 7.8625 16.1383 7.32417 16.1383 6.6625C16.1383 6.00083 16.6767 5.46333 17.3383 5.46333C17.9992 5.4625 18.5383 6.00083 18.5383 6.6625Z" fill="#E4405F"/>
</svg>
