<svg width="24" height="24" viewBox="0 0 24 24" fill="none" xmlns="http://www.w3.org/2000/svg">
<path d="M21.9608 5.80854C21.2121 6.13821 20.4188 6.35583 19.6067 6.45438C20.4618 5.94042 21.102 5.13441 21.4092 4.18521C20.6167 4.64771 19.7383 4.98438 18.8033 5.17188C18.1865 4.51223 17.3691 4.07473 16.478 3.92729C15.587 3.77986 14.6722 3.93075 13.8758 4.35653C13.0793 4.78232 12.4457 5.45917 12.0734 6.28198C11.701 7.10479 11.6108 8.02752 11.8167 8.90688C8.40833 8.74604 5.38917 7.10854 3.36667 4.63521C2.99899 5.26005 2.80722 5.97273 2.81167 6.69771C2.81167 8.12271 3.53667 9.37521 4.635 10.111C3.98405 10.0903 3.34748 9.91432 2.77833 9.59771V9.64771C2.77796 10.5947 3.10522 11.5127 3.70459 12.2458C4.30395 12.979 5.13851 13.4823 6.06667 13.6702C5.46525 13.8314 4.83534 13.8556 4.22333 13.741C4.48677 14.556 4.99805 15.2685 5.68585 15.779C6.37364 16.2894 7.20363 16.5724 8.06 16.5885C6.60961 17.7268 4.81873 18.3446 2.975 18.3427C2.65 18.3427 2.32583 18.3235 2 18.2869C3.87976 19.4905 6.06543 20.1294 8.2975 20.1277C15.8417 20.1277 19.9625 13.881 19.9625 8.47354C19.9625 8.29854 19.9625 8.12354 19.95 7.94854C20.755 7.36926 21.4494 6.65006 22 5.82521L21.9608 5.80854Z" fill="#1DA1F2"/>
</svg>
