<svg fill="none" height="501" viewBox="0 0 800 501" width="800" xmlns="https://www.w3.org/2000/svg" xmlns:xlink="https://www.w3.org/1999/xlink"><clipPath id="a"><path d="m290 140.9h220v220h-220z"/></clipPath><path d="m0 .900009h800v500h-800z" fill="#bf3671"/><g clip-path="url(#a)"><path d="m400 360.9c48.202 0 74.998 0 92.499-17.501s17.501-44.297 17.501-92.499 0-74.998-17.501-92.499-44.297-17.501-92.499-17.501-74.998 0-92.499 17.501-17.501 44.297-17.501 92.499 0 74.998 17.501 92.499 44.297 17.501 92.499 17.501z" fill="#d9f3ff"/><path d="m387.24 326.8c-1.545.002-3.069-.358-4.449-1.05-1.381-.692-2.581-1.698-3.503-2.937-.923-1.239-1.543-2.677-1.81-4.198-.268-1.522-.176-3.085.269-4.564 2.31-7.707 4.646-15.44 7.007-23.199-15.257.286-26.873-4.301-34.485-13.695-8.8-10.923-9.9-25.883-2.607-37.224 3.145-5.064 7.646-9.146 12.992-11.783 5.347-2.636 11.326-3.722 17.258-3.133 9.049.833 17.412 5.176 23.298 12.1l2.464-7.997c4.84-15.723 9.673-31.445 14.498-47.168.358-1.268.966-2.452 1.788-3.483.821-1.03 1.841-1.886 2.998-2.517 1.156-.631 2.428-1.025 3.739-1.159 1.311-.133 2.636-.003 3.896.382s2.431 1.018 3.444 1.862c1.012.843 1.846 1.881 2.452 3.051.607 1.17.973 2.449 1.079 3.763.105 1.314-.053 2.635-.465 3.887-4.803 15.737-9.64 31.475-14.509 47.212-3.205 10.406-6.439 20.918-9.702 31.537 10.231-2.889 20.006-7.199 29.04-12.804 2.217-1.346 4.874-1.767 7.4-1.174 2.525.593 4.716 2.154 6.103 4.346 1.386 2.192 1.857 4.841 1.311 7.376-.547 2.536-2.066 4.756-4.232 6.183-14.181 8.747-29.837 14.838-46.2 17.974-1.837 6.6-3.927 13.2-5.962 19.657-1.21 3.839-2.464 7.81-3.63 11.66-.605 2.047-1.855 3.843-3.563 5.122-1.709 1.278-3.785 1.97-5.919 1.973zm-12.419-82.126c-2.116-.014-4.198.527-6.04 1.57-1.841 1.042-3.377 2.549-4.454 4.37-2.618 4.07-2.068 9.9 1.342 14.058 3.608 4.4 10.01 6.6 19.03 6.358 1.749 0 3.52-.143 5.302-.286.924-6.677.484-12.023-1.298-16.5-1.043-2.589-2.77-4.846-4.996-6.53s-4.868-2.731-7.643-3.029c-.374.011-.792-.011-1.243-.011z" fill="#bf3671"/></g></svg>