<svg fill="none" height="501" viewBox="0 0 800 501" width="800" xmlns="https://www.w3.org/2000/svg" xmlns:xlink="https://www.w3.org/1999/xlink"><radialGradient id="a" cx="0" cy="0" gradientTransform="matrix(-540 0 0 -540 400 521)" gradientUnits="userSpaceOnUse" r="1"><stop offset="0" stop-color="#fbc02d"/><stop offset="1" stop-color="#fbc02d" stop-opacity="0"/></radialGradient><clipPath id="b"><path d="m0 .899902h800v500h-800z"/></clipPath><g clip-path="url(#b)"><path d="m0 0h800v500h-800z" fill="#fff" transform="translate(0 .899902)"/><path d="m-140 521c0-70.914 13.968-141.133 41.105-206.649 27.1376-65.516 66.9138-125.045 117.0574-175.189 50.1436-50.1433 109.6726-89.9194 175.1886-117.057 65.516-27.13749 135.735-41.105 206.649-41.105s141.133 13.96752 206.649 41.1051c65.516 27.1375 125.045 66.9136 175.189 117.0569 50.143 50.144 89.92 109.673 117.057 175.189 27.138 65.516 41.105 135.735 41.105 206.649z" fill="url(#a)" opacity=".25"/><g fill="#001b56"><path d="m250.706 218.89c0 5.806 2.308 11.374 6.417 15.48 4.109 4.105 9.683 6.412 15.494 6.412v-21.892z"/><path d="m223.144 197.163v21.727h-21.925c0 5.806 2.309 11.374 6.418 15.48 4.109 4.105 9.682 6.412 15.494 6.412v41.627c0 5.806 2.308 11.375 6.417 15.48 4.109 4.106 9.683 6.412 15.494 6.412v-107.124z"/><path d="m261.702 282.403c-1.442-.006-2.871.274-4.204.821-1.335.548-2.548 1.353-3.569 2.37-1.022 1.017-1.832 2.225-2.386 3.556-.553 1.331-.837 2.758-.837 4.198 0 2.904 1.154 5.688 3.209 7.74 2.054 2.053 4.84 3.206 7.746 3.206s5.692-1.153 7.747-3.206c2.055-2.052 3.209-4.836 3.209-7.74 0-2.895-1.149-5.673-3.194-7.725-2.046-2.052-4.822-3.209-7.721-3.22z"/><path d="m331.643 237.156c-13.664-2.438-22.778 4.876-22.778 16.749v48.446h-21.478v-48.446c0-23.739 16.434-40.323 44.256-36.91z"/><path d="m422.765 260.566c0 25.036-19.038 43.735-42.304 43.735-23.265 0-42.145-18.699-42.145-43.735 0-25.037 18.873-44.059 42.145-44.059 23.273 0 42.304 19.022 42.304 44.059zm-21.636.164c0-14.468-9.279-24.549-20.668-24.549-11.388 0-20.667 10.081-20.667 24.549 0 14.146 9.272 23.897 20.667 23.897 11.396 0 20.668-9.751 20.668-23.897z"/><path d="m480.203 302.351h-23.107l-31.733-83.729h22.454l20.832 62.428 20.99-62.428h22.132z"/><path d="m597.842 275.721c-4.88 17.071-19.684 28.615-40.551 28.615-23.76 0-42.957-19.509-42.957-43.736s19.197-44.058 42.957-44.058c20.179 0 37.114 12.683 41.17 35.117l-59.232 24.879c2.053 2.801 4.745 5.072 7.853 6.625 3.108 1.552 6.542 2.341 10.017 2.302 6.996 0 14.158-3.09 17.739-9.758zm-24.056-32.838c-3.904-4.717-9.759-7.478-16.598-7.478-12.372 0-22.289 9.751-22.777 24.034z"/></g></g></svg>