<svg fill="none" height="1080" viewBox="0 0 1620 1080" width="1620" xmlns="http://www.w3.org/2000/svg" xmlns:xlink="http://www.w3.org/1999/xlink"><radialGradient id="a" cx="0" cy="0" gradientTransform="matrix(-1080 0 0 -1080 810 1080)" gradientUnits="userSpaceOnUse" r="1"><stop offset="0" stop-color="#fbc02d"/><stop offset="1" stop-color="#fbc02d" stop-opacity="0"/></radialGradient><clipPath id="b"><path d="m0 0h1620v1080h-1620z"/></clipPath><g clip-path="url(#b)"><path d="m0 0h1620v1080h-1620z" fill="#fff"/><path d="m-270 1080c0-141.828 27.935-282.267 82.21-413.298 54.275-131.032 133.8275-250.09 234.1147-350.377 100.2873-100.288 219.3453-179.84 350.3773-234.1149 131.032-54.2751 271.47-82.2101062 413.298-82.2101s282.27 27.935 413.3 82.2101c131.03 54.2749 250.09 133.8269 350.38 234.1149 100.28 100.287 179.83 219.345 234.11 350.377s82.21 271.47 82.21 413.298z" fill="url(#a)" opacity=".25"/><g fill="#001b56"><path d="m497.542 473.313c0 12.136 4.825 23.775 13.413 32.357 8.59 8.58 20.239 13.401 32.385 13.401v-45.758z"/><path d="m439.935 427.9v45.413h-45.827c0 12.136 4.825 23.775 13.413 32.357 8.589 8.58 20.239 13.401 32.385 13.401v87.009c0 12.136 4.826 23.775 13.414 32.356 8.589 8.581 20.238 13.402 32.385 13.402v-223.909z"/><path d="m520.527 606.066c-3.014-.012-6.002.572-8.789 1.716-2.788 1.146-5.324 2.829-7.458 4.955-2.137 2.124-3.83 4.65-4.987 7.432-1.156 2.782-1.751 5.764-1.751 8.776 0 6.068 2.412 11.887 6.707 16.177 4.294 4.292 10.118 6.702 16.192 6.702s11.898-2.41 16.192-6.702c4.295-4.29 6.707-10.109 6.707-16.177 0-6.053-2.4-11.859-6.675-16.148-4.277-4.288-10.08-6.708-16.138-6.731z"/><path d="m666.715 511.493c-28.56-5.096-47.609 10.19-47.609 35.007v101.262h-44.893v-101.262c0-49.619 34.349-84.282 92.502-77.148z"/><path d="m857.178 560.423c0 52.331-39.794 91.415-88.422 91.415-48.629 0-88.092-39.084-88.092-91.415 0-52.332 39.449-92.09 88.092-92.09s88.422 39.758 88.422 92.09zm-45.224.344c0-30.242-19.394-51.312-43.198-51.312-23.805 0-43.199 21.07-43.199 51.312 0 29.568 19.38 49.949 43.199 49.949 23.818 0 43.198-20.381 43.198-49.949z"/><path d="m977.233 647.762h-48.298l-66.327-175.009h46.933l43.543 130.485 43.874-130.485h46.262z"/><path d="m1223.12 592.1c-10.2 35.682-41.14 59.81-84.76 59.81-49.66 0-89.79-40.778-89.79-91.416s40.13-92.09 89.79-92.09c42.18 0 77.58 26.511 86.05 73.403l-123.8 52.001c4.29 5.855 9.92 10.601 16.41 13.847 6.5 3.245 13.68 4.894 20.94 4.812 14.62 0 29.59-6.459 37.08-20.396zm-50.28-68.637c-8.16-9.86-20.4-15.63-34.69-15.63-25.86 0-46.59 20.381-47.61 50.236z"/></g></g></svg>