<svg fill="none" height="501" viewBox="0 0 800 501" width="800" xmlns="http://www.w3.org/2000/svg"><path d="m0 .899902h800v500h-800z" fill="#e2f8ee"/><path d="m162.088 288.215c-2.762 4.386-9.584 8.285-16.407 8.285-11.858 0-18.681-6.66-18.681-16.894 0-15.92 21.93-23.23 35.088-19.981v-7.635c0-11.371-5.686-12.183-10.884-12.183-8.772 0-15.757 5.523-18.843 7.797-1.3-.812-1.787-1.949-1.787-4.385 0-6.173 10.559-14.296 24.366-14.296 11.534 0 25.504 3.899 25.504 20.468v31.514c0 4.549 1.624 5.361 4.548 5.361 1.625 0 3.087-.325 4.386-.812.813.487.975 1.137.975 2.274 0 3.574-6.66 8.122-14.782 8.122-6.336.163-13.158-2.924-13.483-7.635zm0-6.822v-14.945c-8.285-1.462-17.544 3.249-17.544 12.346 0 5.198 2.437 8.772 7.472 8.772 4.224.162 7.798-2.599 10.072-6.173zm32.813 12.995c0-4.223 1.3-6.173 3.087-6.66l7.147-1.624v-45.647l-6.497-1.462c-3.087-.65-4.549-3.574-4.549-6.985l27.616-3.249c.162 0 1.624-.325 1.624.975v5.848c4.711-3.737 10.884-6.661 17.382-6.661 9.259 0 16.081 3.574 19.655 10.397 4.549-5.523 10.721-10.397 21.28-10.397 13.483 0 20.793 8.772 20.793 22.418v34.6l9.909 1.787c0 4.061-2.761 6.498-4.061 6.498h-32.164c0-4.386 1.625-6.66 3.087-6.985l5.035-1.3v-34.6c0-6.823-2.599-11.859-9.096-11.859-4.711 0-9.097 1.625-12.996 5.361.487 2.112.65 4.223.65 6.66v34.601l9.097 1.786c0 4.062-2.762 6.498-4.061 6.498h-31.19c0-4.386 1.625-6.66 3.087-6.985l5.036-1.299v-34.763c0-6.823-3.249-11.859-9.097-11.859-3.899 0-8.447 1.3-12.184 3.899v42.56l9.097 1.949c0 4.224-2.761 6.336-4.061 6.336h-33.626zm156.434-6.335c9.746 0 14.62-9.909 14.62-25.991 0-11.371-3.574-22.742-12.509-22.742-3.898 0-6.01 1.462-7.959 2.924-5.686-4.061 1.624-13.321 13.97-13.321 16.894 0 25.666 13.808 25.666 30.215 0 20.63-14.458 37.362-38.174 37.362-12.346 0-23.88-5.036-26.316-9.584v-82.846l-7.148-.975c-3.249-.487-4.061-3.249-4.548-6.823l28.427-3.573s1.625-.325 1.625.974v89.994c2.924 2.924 8.122 4.386 12.346 4.386zm41.423-.325 7.147-1.624v-46.297l-6.498-1.624c-3.573-.975-4.061-3.412-4.548-6.173l27.615-3.249c.163 0 1.625-.325 1.625.975v8.934c4.873-6.823 11.046-9.909 16.082-9.909 4.873 0 8.609 3.899 8.609 9.259 0 3.899-1.787 7.148-4.386 9.097-2.599-2.599-6.01-5.036-10.558-5.036-2.762 0-6.011.975-9.747 4.711v38.987l11.209 2.274c0 2.924-1.462 6.01-4.062 6.01h-35.737c.162-3.249.975-5.523 3.249-6.335zm52.794-24.204c0-16.407 12.995-34.438 37.199-34.438 20.306 0 31.515 12.346 31.515 31.352 0 18.518-13.808 36.062-36.388 36.062-21.442 0-32.326-13.32-32.326-32.976zm49.545-.325c0-19.168-8.284-25.991-16.082-25.991-7.959 0-14.457 6.498-14.457 23.392 0 16.569 5.848 27.778 16.894 27.778 9.584 0 13.645-10.721 13.645-25.179zm27.128.325c0-16.407 12.996-34.438 37.2-34.438 20.305 0 31.514 12.346 31.514 31.352 0 18.518-13.808 36.062-36.387 36.062-21.605 0-32.327-13.32-32.327-32.976zm49.546-.325c0-19.168-8.285-25.991-16.082-25.991-7.96 0-14.458 6.498-14.458 23.392 0 16.569 5.848 27.778 16.894 27.778 9.584 0 13.646-10.721 13.646-25.179zm26.153 24.529 6.985-1.624v-82.034l-6.498-1.3c-3.573-.812-4.061-3.574-4.548-6.498l27.615-3.736c.163 0 1.625-.325 1.625.975v92.593l9.097 2.274c0 2.924-.975 6.01-4.062 6.01h-33.463c0-3.574.325-5.848 3.249-6.66zm28.103-25.991c0-.975.487-1.624 1.137-2.437l15.757-21.28-6.823-2.274c0-2.924 1.462-5.361 4.061-5.361h25.342c0 2.762-.488 5.361-3.087 5.848l-6.985 1.625-15.432 17.219 14.132 18.681c5.848 7.797 9.91 12.67 12.996 15.27 0 3.411-5.198 6.66-11.371 6.66-7.635 0-10.884-3.899-17.057-13.321l-11.371-17.868c-.812-1.137-1.299-1.787-1.299-2.762z" fill="#266f56"/></svg>