<svg fill="none" height="500" viewBox="0 0 800 500" width="800" xmlns="http://www.w3.org/2000/svg"><path d="m0 0h800v500h-800z" fill="#fff"/><g fill="#222"><path d="m400 175c41.375 0 75 33.625 75 75s-33.625 75-75 75-75-33.625-75-75 33.625-75 75-75zm0-25c-55.25 0-100 44.75-100 100s44.75 100 100 100 100-44.75 100-100-44.75-100-100-100z"/><path d="m375 237.5c6.904 0 12.5-5.596 12.5-12.5s-5.596-12.5-12.5-12.5-12.5 5.596-12.5 12.5 5.596 12.5 12.5 12.5z"/><path d="m425 237.5c6.904 0 12.5-5.596 12.5-12.5s-5.596-12.5-12.5-12.5-12.5 5.596-12.5 12.5 5.596 12.5 12.5 12.5z"/><path d="m425 287.5h-50c-6.875 0-12.5-5.625-12.5-12.5s5.625-12.5 12.5-12.5h50c6.875 0 12.5 5.625 12.5 12.5s-5.625 12.5-12.5 12.5z"/></g></svg>