<svg fill="none" height="500" viewBox="0 0 800 500" width="800" xmlns="https://www.w3.org/2000/svg"><path d="m0 0h800v500h-800z" fill="#ff5a5a"/><g fill="#fff"><path clip-rule="evenodd" d="m372.5 186.406c4.746 0 8.594 3.848 8.594 8.594v110c0 4.746-3.848 8.594-8.594 8.594s-8.594-3.848-8.594-8.594v-110c0-4.746 3.848-8.594 8.594-8.594z" fill-rule="evenodd"/><path clip-rule="evenodd" d="m427.5 186.406c4.746 0 8.594 3.848 8.594 8.594v110c0 4.746-3.848 8.594-8.594 8.594s-8.594-3.848-8.594-8.594v-110c0-4.746 3.848-8.594 8.594-8.594z" fill-rule="evenodd"/><path clip-rule="evenodd" d="m363.906 250c0-4.746 3.848-8.594 8.594-8.594h55c4.746 0 8.594 3.848 8.594 8.594s-3.848 8.594-8.594 8.594h-55c-4.746 0-8.594-3.848-8.594-8.594z" fill-rule="evenodd"/><path d="m400 157.188c24.791 0 48.097 9.652 65.629 27.183 17.531 17.532 27.183 40.838 27.183 65.629s-9.652 48.097-27.183 65.629c-17.532 17.531-40.838 27.183-65.629 27.183s-48.097-9.652-65.629-27.183c-17.531-17.532-27.183-40.838-27.183-65.629s9.652-48.097 27.183-65.629c17.532-17.531 40.838-27.183 65.629-27.183zm0-17.188c-60.754 0-110 49.246-110 110s49.246 110 110 110 110-49.246 110-110-49.246-110-110-110z"/><path clip-rule="evenodd" d="m333.514 316.787c18.964-12.863 41.859-20.381 66.486-20.381s47.522 7.518 66.486 20.381c3.928 2.664 4.952 8.008 2.288 11.936s-8.008 4.953-11.936 2.288c-16.208-10.993-35.76-17.417-56.838-17.417s-40.63 6.424-56.838 17.417c-3.928 2.665-9.272 1.64-11.936-2.288s-1.64-9.272 2.288-11.936z" fill-rule="evenodd"/></g></svg>