<svg fill="none" height="501" viewBox="0 0 800 501" width="800" xmlns="http://www.w3.org/2000/svg" xmlns:xlink="http://www.w3.org/1999/xlink"><clipPath id="a"><path d="m140 190.9h120v120h-120z"/></clipPath><clipPath id="b"><path d="m340 190.9h120v120h-120z"/></clipPath><clipPath id="c"><path d="m540 190.9h120v120h-120z"/></clipPath><path d="m0 .900009h800v500h-800z" fill="#f7f7f7"/><g clip-path="url(#a)"><path d="m259.991 250.896c0-33.135-26.861-59.996-59.996-59.996-33.134 0-59.995 26.861-59.995 59.996 0 29.945 21.939 54.765 50.621 59.266v-41.924h-15.233v-17.342h15.233v-13.218c0-15.037 8.957-23.342 22.661-23.342 6.564 0 13.43 1.171 13.43 1.171v14.765h-7.565c-7.453 0-9.777 4.625-9.777 9.369v11.255h16.639l-2.66 17.342h-13.979v41.924c28.682-4.501 50.621-29.321 50.621-59.266z" fill="#1877f2"/></g><g clip-path="url(#b)"><path d="m427.359 262.81c-1.485-.745-8.79-4.335-10.15-4.835-1.365-.495-2.355-.74-3.35.75-.985 1.485-3.835 4.83-4.7 5.82-.865.995-1.735 1.115-3.22.375-1.485-.75-6.275-2.315-11.95-7.375-4.415-3.94-7.4-8.805-8.265-10.295-.865-1.485-.09-2.29.65-3.03.67-.665 1.49-1.735 2.23-2.6.745-.87.99-1.49 1.49-2.485.495-.99.25-1.855-.125-2.6s-3.345-8.06-4.58-11.035c-1.21-2.895-2.435-2.5-3.345-2.55-.865-.04-1.855-.05-2.85-.05-.99 0-2.6.37-3.96 1.86-1.36 1.485-5.2 5.08-5.2 12.395 0 7.31 5.325 14.375 6.065 15.37.745.99 10.48 16 25.385 22.435 3.545 1.53 6.31 2.445 8.47 3.125 3.56 1.135 6.8.975 9.355.59 2.855-.425 8.79-3.595 10.03-7.065s1.24-6.445.865-7.065c-.37-.62-1.36-.99-2.85-1.735zm-27.11 37.015h-.02c-8.851.001-17.54-2.379-25.155-6.89l-1.805-1.07-18.705 4.91 4.99-18.24-1.175-1.87c-4.948-7.879-7.565-16.997-7.55-26.3.005-27.25 22.18-49.42 49.44-49.42 13.2 0 25.61 5.15 34.94 14.49 4.603 4.583 8.252 10.034 10.735 16.036 2.483 6.003 3.751 12.438 3.73 18.934-.015 27.25-22.185 49.42-49.425 49.42zm42.065-91.485c-5.509-5.545-12.064-9.942-19.285-12.936-7.22-2.994-14.963-4.525-22.78-4.504-32.775 0-59.45 26.675-59.465 59.46 0 10.48 2.735 20.71 7.94 29.725l-8.44 30.815 31.525-8.27c8.718 4.75 18.487 7.239 28.415 7.24h.025c32.77 0 59.45-26.675 59.465-59.465.024-7.814-1.501-15.555-4.488-22.775s-7.375-13.777-12.912-19.29z" fill="#25d366"/></g><g clip-path="url(#c)"><path d="m540.001 249.1c0-33.45 26.2-58.2 60-58.2s60 24.75 60 58.2-26.2 58.2-60 58.2c-6.05 0-11.9-.8-17.35-2.3-1.064-.286-2.194-.198-3.2.25l-11.95 5.25c-.721.321-1.509.459-2.295.403-.787-.057-1.547-.306-2.215-.726-.667-.42-1.22-.998-1.611-1.683s-.607-1.456-.629-2.244l-.35-10.7c-.027-.645-.183-1.277-.458-1.861-.274-.584-.663-1.107-1.142-1.539-6.015-5.426-10.804-12.073-14.046-19.496-3.242-7.424-4.863-15.454-4.754-23.554zm41.6-10.95-17.6 28c-1.75 2.65 1.6 5.7 4.1 3.75l18.95-14.35c1.3-1 3-1 4.35 0l14 10.5c4.2 3.15 10.2 2 13-2.4l17.6-28c1.75-2.65-1.6-5.65-4.1-3.75l-18.95 14.35c-1.25 1-3 1-4.3 0l-14-10.5c-.996-.752-2.137-1.289-3.351-1.577-1.214-.287-2.475-.319-3.702-.093-1.227.225-2.394.704-3.427 1.404-1.032.701-1.907 1.609-2.57 2.666z" fill="#00b2ff"/></g></svg>