<svg fill="none" height="501" viewBox="0 0 800 501" width="800" xmlns="http://www.w3.org/2000/svg"><path d="m0 .899902h800v500h-800z" fill="#ffecf1"/><path d="m408.539 312.746c-5-2.038-10.154-4.154-22.077-4.154s-17.116 2.116-22.077 4.154c-1.423.577-2.885 1.154-4.462 1.692-4.077 4.885-5.961 11.616-5 18.154.539 3.731 3.808 6.539 7.616 6.539.384 0 .769-.039 1.192-.077 3.884-.577 6.846-2 9.077-3.539 1.615 3.808 4.692 8.077 10.654 10.654.961.423 1.961.616 3.038.616s2.077-.193 3.039-.616c5.961-2.538 9.038-6.846 10.653-10.654 2.231 1.539 5.193 2.923 9.077 3.539.385.077.77.077 1.193.077 3.807 0 7.077-2.808 7.615-6.539.923-6.538-.923-13.269-5-18.154-1.654-.538-3.077-1.115-4.538-1.692z" fill="#73e5bf"/><g fill="#ff4070"><path d="m571.077 316.284c-7.654 0-12.077-1.807-16.385-3.538-5-2.038-10.154-4.154-22.077-4.154s-17.115 2.116-22.077 4.154c-4.269 1.731-8.692 3.538-16.384 3.538-8.731 0-15.462-2.307-20.039-6.884s-6.884-11.308-6.884-20.039c0-.269.038-25.577 3.884-50.577 5.462-35.346 15.77-53.269 30.731-53.269 9.269 0 14.192 4.885 18.115 8.808 3.654 3.692 6.539 6.577 12.654 6.577 6.116 0 9-2.885 12.654-6.577 3.923-3.923 8.846-8.808 18.116-8.808 14.961 0 25.269 17.923 30.73 53.269 3.846 25 3.885 50.347 3.885 50.577 0 8.731-2.308 15.462-6.885 20.039s-11.307 6.884-20.038 6.884z"/><path d="m424.923 316.284c-7.654 0-12.077-1.807-16.385-3.538-5-2.038-10.153-4.154-22.076-4.154-11.924 0-17.116 2.116-22.077 4.154-4.27 1.731-8.693 3.538-16.385 3.538-8.731 0-15.462-2.307-20.038-6.884-4.577-4.577-6.885-11.308-6.885-20.039 0-22.73 7.385-48.653 19.769-69.269 13.192-21.961 29.808-34.577 45.616-34.577 15.807 0 32.423 12.616 45.615 34.577 12.385 20.654 19.769 46.539 19.769 69.269 0 8.731-2.308 15.462-6.884 20.039-4.577 4.577-11.308 6.884-20.039 6.884z"/><path d="m255.692 316.284c-12.846 0-25.923-4.307-35.961-11.846-11.539-8.615-17.885-20.807-17.885-34.307 0-10.654 6.039-23.077 23.077-23.077 9.385 0 11.539-2.154 11.539-11.539v-15.384c0-25.231 9.384-34.616 34.615-34.616s34.615 9.385 34.615 34.616v46.153c0 16.385-4.269 28.924-12.653 37.347-8.424 8.384-20.962 12.653-37.347 12.653z"/></g><g fill="#2a3632"><path d="m369.154 258.592c-1.923 0-5.769 0-5.769 9.616 0 9.615 3.846 9.615 5.769 9.615s5.769 0 5.769-9.615c0-9.616-3.846-9.616-5.769-9.616z"/><path d="m403.769 258.592c-1.923 0-5.769 0-5.769 9.616 0 9.615 3.846 9.615 5.769 9.615s5.77 0 5.77-9.615c0-9.616-3.847-9.616-5.77-9.616z"/><path d="m386.462 227.823c-1.923 0-5.77 0-5.77 9.615 0 9.616 3.847 9.616 5.77 9.616s5.769 0 5.769-9.616c0-9.615-3.846-9.615-5.769-9.615z"/><path d="m563.385 189.361c30.769 0 30.769 100 30.769 100 0 15.385-7.692 23.077-23.077 23.077s-15.385-7.692-38.461-7.692c-23.077 0-23.077 7.692-38.462 7.692s-23.077-7.692-23.077-23.077c0 0 0-100 30.769-100 15.385 0 15.385 15.385 30.77 15.385 15.384 0 15.384-15.385 30.769-15.385zm0-7.692c-10.885 0-16.616 5.731-20.808 9.962-3.769 3.769-5.654 5.423-9.961 5.423-4.308 0-6.193-1.654-9.962-5.423-4.192-4.231-9.923-9.962-20.808-9.962-5.692 0-10.846 2.154-15.384 6.346-3.577 3.308-6.654 7.808-9.385 13.731-4.115 8.962-7.423 21.192-9.769 36.423-3.885 25.308-3.923 50.154-3.923 51.192 0 9.77 2.692 17.424 8.038 22.731 5.308 5.346 12.962 8.039 22.731 8.039 8.423 0 13.423-2.039 17.808-3.846 4.846-2 9.461-3.847 20.654-3.847 11.192 0 15.769 1.885 20.653 3.847 4.423 1.807 9.385 3.846 17.808 3.846 9.769 0 17.423-2.693 22.731-8.039 5.308-5.307 8.038-12.961 8.038-22.731 0-1.038-.038-25.884-3.923-51.153-2.346-15.231-5.615-27.5-9.769-36.423-2.731-5.924-5.808-10.424-9.385-13.731-4.538-4.231-9.692-6.385-15.384-6.385z"/><path d="m450.116 252.092c-3.5-12.038-8.616-23.807-14.731-34-6.346-10.577-13.769-19.423-21.5-25.615-9-7.154-18.231-10.808-27.423-10.808-9.193 0-18.423 3.654-27.385 10.808-7.731 6.192-15.154 15.038-21.5 25.615-6.115 10.193-11.231 21.962-14.731 34-3.692 12.577-5.615 25.462-5.615 37.269 0 9.77 2.692 17.424 8.038 22.731 5.308 5.346 12.962 8.039 22.731 8.039 1.616 0 3.077-.077 4.462-.193-1.5 4.154-2 8.731-1.346 13.193.807 5.615 5.73 9.846 11.423 9.846.577 0 1.192-.039 1.769-.154 2.654-.423 5-1.154 6.961-2.038 2.539 3.923 6.154 6.961 10.654 8.884 1.462.616 2.962.923 4.539.923s3.115-.307 4.538-.923c4.5-1.923 8.116-4.961 10.654-8.884 2 .884 4.308 1.615 6.962 2.038.576.077 1.192.115 1.769.115 5.692 0 10.615-4.23 11.423-9.846.654-4.461.154-9.038-1.346-13.192 1.384.115 2.846.192 4.461.192 9.769 0 17.423-2.692 22.731-8.038 5.346-5.269 8.038-12.923 8.038-22.693 0-11.807-1.923-24.692-5.576-37.269zm-35.924 79.923c-.269 1.923-1.923 3.27-3.807 3.27-.193 0-.385 0-.577-.039-8.769-1.346-11.808-7.423-11.808-7.423s0 10.5-10.038 14.808c-.5.192-1 .307-1.5.307s-1.039-.115-1.5-.307c-10.039-4.308-10.039-14.808-10.039-14.808s-3.038 6.077-11.807 7.423c-.193.039-.385.039-.577.039-1.885 0-3.539-1.347-3.808-3.27-.769-5.461.808-10.653 3.5-14.346 1.269-.461 2.461-.923 3.577-1.384 4.846-2 9.461-3.847 20.654-3.847 11.192 0 15.769 1.885 20.654 3.847 1.153.461 2.307.961 3.576 1.384 2.693 3.693 4.308 8.885 3.5 14.346zm10.731-19.577c-15.384 0-15.384-7.692-38.461-7.692s-23.077 7.692-38.462 7.692c-15.384 0-23.077-7.692-23.077-23.077 0-46.153 30.769-100 61.539-100 30.769 0 61.538 53.847 61.538 100 0 15.385-7.692 23.077-23.077 23.077z"/><path d="m271.077 189.361c23.077 0 30.769 7.693 30.769 30.77v46.154c0 30.769-15.384 46.153-46.153 46.153-23.077 0-50-15.384-50-42.307 0-7.693 3.846-19.231 19.23-19.231 11.539 0 15.385-3.846 15.385-15.385v-15.384c0-23.077 7.692-30.77 30.769-30.77zm0-7.692c-14.192 0-23.269 2.769-29.461 9-6.231 6.192-9 15.269-9 29.462v15.384c0 5.193-.923 6.385-1.116 6.577-.192.193-1.384 1.116-6.577 1.116-18.615 0-26.923 13.538-26.923 26.923 0 14.73 6.885 28 19.423 37.384 10.693 8 24.616 12.616 38.27 12.616 17.423 0 30.884-4.654 40.038-13.808s13.808-22.615 13.808-40.038v-46.154c0-14.193-2.77-23.27-9-29.462-6.193-6.231-15.27-9-29.462-9z"/></g></svg>