<svg fill="none" height="1080" viewBox="0 0 1620 1080" width="1620" xmlns="http://www.w3.org/2000/svg"><path d="m0 0h1620v1080h-1620z" fill="#ffecf1"/><path d="m827.067 662.61c-9.905-4.039-20.115-8.229-43.734-8.229s-33.905 4.19-43.733 8.229c-2.819 1.142-5.714 2.285-8.838 3.352-8.076 9.676-11.81 23.009-9.905 35.962 1.067 7.39 7.543 12.952 15.086 12.952.762 0 1.524-.076 2.362-.152 7.695-1.143 13.562-3.962 17.981-7.01 3.2 7.543 9.295 16 21.104 21.105 1.905.838 3.886 1.219 6.019 1.219 2.134 0 4.115-.381 6.019-1.219 11.81-5.028 17.905-13.562 21.105-21.105 4.419 3.048 10.286 5.791 17.981 7.01.762.152 1.524.152 2.362.152 7.543 0 14.019-5.562 15.086-12.952 1.828-12.953-1.829-26.286-9.905-35.962-3.276-1.067-6.095-2.21-8.99-3.352z" fill="#73e5bf"/><g fill="#ff4070"><path d="m1149.05 669.619c-15.16 0-23.93-3.581-32.46-7.01-9.9-4.038-20.11-8.228-43.73-8.228s-33.91 4.19-43.74 8.228c-8.45 3.429-17.22 7.01-32.453 7.01-17.296 0-30.629-4.571-39.696-13.638-9.066-9.067-13.638-22.4-13.638-39.695 0-.534.076-50.667 7.695-100.191 10.819-70.019 31.239-105.524 60.872-105.524 18.37 0 28.12 9.677 35.89 17.448 7.24 7.314 12.95 13.029 25.07 13.029 12.11 0 17.83-5.715 25.06-13.029 7.78-7.771 17.53-17.448 35.89-17.448 29.64 0 50.06 35.505 60.88 105.524 7.61 49.524 7.69 99.734 7.69 100.191 0 17.295-4.57 30.628-13.64 39.695-9.06 9.067-22.4 13.638-39.69 13.638z"/><path d="m859.524 669.619c-15.162 0-23.924-3.581-32.457-7.01-9.905-4.038-20.115-8.228-43.734-8.228s-33.904 4.19-43.733 8.228c-8.457 3.429-17.219 7.01-32.457 7.01-17.295 0-30.629-4.571-39.695-13.638-9.067-9.067-13.639-22.4-13.639-39.695 0-45.029 14.629-96.381 39.162-137.219 26.134-43.505 59.048-68.496 90.362-68.496 31.315 0 64.229 24.991 90.362 68.496 24.533 40.914 39.162 92.19 39.162 137.219 0 17.295-4.571 30.628-13.638 39.695s-22.4 13.638-39.695 13.638z"/><path d="m524.286 669.619c-25.448 0-51.353-8.533-71.238-23.467-22.857-17.066-35.429-41.219-35.429-67.962 0-21.104 11.962-45.714 45.714-45.714 18.591 0 22.858-4.266 22.858-22.857v-30.476c0-49.981 18.59-68.572 68.571-68.572s68.571 18.591 68.571 68.572v91.428c0 32.458-8.457 57.296-25.066 73.981-16.686 16.61-41.524 25.067-73.981 25.067z"/></g><g fill="#2a3632"><path d="m749.048 555.333c-3.81 0-11.429 0-11.429 19.048s7.619 19.048 11.429 19.048c3.809 0 11.428 0 11.428-19.048s-7.619-19.048-11.428-19.048z"/><path d="m817.619 555.333c-3.809 0-11.428 0-11.428 19.048s7.619 19.048 11.428 19.048c3.81 0 11.429 0 11.429-19.048s-7.619-19.048-11.429-19.048z"/><path d="m783.333 494.381c-3.809 0-11.428 0-11.428 19.048 0 19.047 7.619 19.047 11.428 19.047 3.81 0 11.429 0 11.429-19.047 0-19.048-7.619-19.048-11.429-19.048z"/><path d="m1133.81 418.19c60.95 0 60.95 198.096 60.95 198.096 0 30.476-15.24 45.714-45.71 45.714-30.48 0-30.48-15.238-76.19-15.238-45.72 0-45.72 15.238-76.193 15.238-30.477 0-45.715-15.238-45.715-45.714 0 0 0-198.096 60.948-198.096 30.48 0 30.48 30.477 60.96 30.477 30.47 0 30.47-30.477 60.95-30.477zm0-15.238c-21.56 0-32.91 11.353-41.22 19.734-7.47 7.466-11.2 10.743-19.73 10.743-8.54 0-12.27-3.277-19.74-10.743-8.3-8.381-19.65-19.734-41.22-19.734-11.27 0-21.481 4.267-30.471 12.572-7.086 6.552-13.181 15.466-18.591 27.2-8.152 17.752-14.705 41.981-19.352 72.152-7.696 50.134-7.772 99.353-7.772 101.41 0 19.352 5.334 34.514 15.924 45.028 10.514 10.591 25.676 15.924 45.029 15.924 16.683 0 26.593-4.038 35.273-7.619 9.6-3.962 18.75-7.619 40.92-7.619s31.24 3.733 40.91 7.619c8.76 3.581 18.59 7.619 35.28 7.619 19.35 0 34.51-5.333 45.03-15.924 10.51-10.514 15.92-25.676 15.92-45.028 0-2.057-.08-51.276-7.77-101.334-4.65-30.171-11.13-54.476-19.35-72.152-5.41-11.733-11.51-20.648-18.59-27.2-8.99-8.381-19.2-12.648-30.48-12.648z"/><path d="m909.429 542.457c-6.934-23.847-17.067-47.162-29.181-67.352-12.572-20.953-27.277-38.476-42.591-50.743-17.828-14.172-36.114-21.41-54.324-21.41-18.209 0-36.495 7.238-54.247 21.41-15.315 12.267-30.019 29.79-42.591 50.743-12.114 20.19-22.247 43.505-29.181 67.352-7.314 24.914-11.123 50.438-11.123 73.829 0 19.352 5.333 34.514 15.923 45.028 10.515 10.591 25.677 15.924 45.029 15.924 3.2 0 6.095-.152 8.838-.381-2.971 8.229-3.962 17.295-2.667 26.133 1.6 11.124 11.353 19.505 22.629 19.505 1.143 0 2.362-.076 3.505-.304 5.257-.839 9.904-2.286 13.79-4.039 5.029 7.772 12.191 13.791 21.105 17.6 2.895 1.219 5.867 1.829 8.99 1.829 3.124 0 6.172-.61 8.991-1.829 8.914-3.809 16.076-9.828 21.105-17.6 3.962 1.753 8.533 3.2 13.79 4.039 1.143.152 2.362.228 3.505.228 11.276 0 21.028-8.381 22.628-19.505 1.296-8.838.305-17.904-2.666-26.133 2.743.229 5.638.381 8.838.381 19.352 0 34.514-5.333 45.028-15.924 10.591-10.438 15.924-25.6 15.924-44.952 0-23.391-3.809-48.915-11.047-73.829zm-71.162 158.324c-.534 3.809-3.81 6.476-7.543 6.476-.381 0-.762 0-1.143-.076-17.371-2.667-23.39-14.705-23.39-14.705s0 20.8-19.886 29.334c-.991.381-1.981.609-2.972.609-.99 0-2.057-.228-2.971-.609-19.886-8.534-19.886-29.334-19.886-29.334s-6.019 12.038-23.39 14.705c-.381.076-.762.076-1.143.076-3.733 0-7.01-2.667-7.543-6.476-1.524-10.819 1.6-21.105 6.933-28.419 2.515-.914 4.877-1.829 7.086-2.743 9.6-3.962 18.743-7.619 40.914-7.619 22.172 0 31.238 3.733 40.915 7.619 2.285.914 4.571 1.905 7.085 2.743 5.334 7.314 8.534 17.6 6.934 28.419zm21.257-38.781c-30.476 0-30.476-15.238-76.191-15.238-45.714 0-45.714 15.238-76.19 15.238s-45.714-15.238-45.714-45.714c0-91.429 60.952-198.096 121.904-198.096 60.953 0 121.905 106.667 121.905 198.096 0 30.476-15.238 45.714-45.714 45.714z"/><path d="m554.762 418.19c45.714 0 60.952 15.239 60.952 60.953v91.428c0 60.953-30.476 91.429-91.428 91.429-45.715 0-99.048-30.476-99.048-83.81 0-15.238 7.619-38.095 38.095-38.095 22.857 0 30.477-7.619 30.477-30.476v-30.476c0-45.714 15.238-60.953 60.952-60.953zm0-15.238c-28.114 0-46.095 5.486-58.362 17.829-12.343 12.267-17.829 30.248-17.829 58.362v30.476c0 10.286-1.828 12.648-2.209 13.029s-2.743 2.209-13.029 2.209c-36.876 0-53.333 26.819-53.333 53.333 0 29.181 13.638 55.467 38.476 74.058 21.181 15.847 48.762 24.99 75.81 24.99 34.514 0 61.181-9.219 79.314-27.352 18.133-18.134 27.352-44.8 27.352-79.315v-91.428c0-28.114-5.485-46.095-17.828-58.362-12.267-12.343-30.248-17.829-58.362-17.829z"/></g></svg>