<svg fill="none" height="501" viewBox="0 0 800 501" width="800" xmlns="https://www.w3.org/2000/svg" xmlns:xlink="https://www.w3.org/1999/xlink"><clipPath id="a"><path d="m157 180.9h486.371v140h-486.371z"/></clipPath><path d="m0 .900009h800v500h-800z" fill="#f5f2f0"/><g clip-path="url(#a)"><g fill="#222"><path d="m278.801 319.469h-38.47v-6.29c3.625 0 5.915-.143 6.869-.428.857-.386 1.286-1.197 1.286-2.433v-72.076c.061-1.035-.139-2.069-.579-3.007-.753-.889-1.677-1.618-2.717-2.143l-5.578-2.716v-3.852l26.742-7.825v13.687c2.404-3.732 5.632-6.863 9.436-9.152 3.742-2.306 8.045-3.542 12.441-3.573 7.912 0 14.441 3.089 19.589 9.267 5.062 6.209 7.589 14.036 7.581 23.481 0 10.962-3.191 20.066-9.574 27.31-6.487 7.243-14.495 10.865-24.025 10.865-2.962.02-5.891-.614-8.578-1.859-2.614-1.102-4.956-2.76-6.864-4.859v26.307c-.036.6.148 1.192.516 1.667.369.474.898.798 1.488.911 1.332.285 4.808.428 10.426.428zm18.442-63.486c0-7.53-1.477-13.536-4.431-18.019-3.05-4.476-7.197-6.715-12.441-6.719-2.746.018-5.446.706-7.866 2.004-2.395 1.184-4.495 2.89-6.145 4.993v36.744c1.246 2.3 3.133 4.188 5.433 5.433 2.346 1.353 5.014 2.045 7.721 2.004 5.24 0 9.53-2.43 12.87-7.292 3.24-4.85 4.859-11.233 4.859-19.148z"/><path d="m362.132 289.154h-38.466v-6.314c3.62 0 5.914-.191 6.864-.579.857-.284 1.286-1.042 1.286-2.317v-41.702c.057-1.035-.142-2.068-.579-3.007-.755-.889-1.681-1.618-2.723-2.143l-5.572-2.716v-3.852l26.737-7.825v19.838c3.436-5.815 7.012-10.449 10.726-13.901 3.719-3.336 7.194-5.004 10.426-5.004 3.336 0 6.007.953 8.011 2.861 1.926 2.004 2.89 4.635 2.89 7.894.085 2.539-.84 5.007-2.572 6.864-.83.872-1.831 1.564-2.94 2.033-1.109.47-2.302.706-3.506.695-1.028.002-2.047-.194-3.001-.579-1.259-.587-2.418-1.369-3.434-2.317-.71-.682-1.475-1.304-2.288-1.859-.56-.189-1.147-.285-1.738-.284-1.622.093-3.672 1.189-6.151 3.29-2.493 2.207-4.66 4.758-6.435 7.576v34.034c-.047.586.136 1.167.51 1.62s.91.743 1.494.807c1.332.386 4.807.579 10.426.579z"/><path d="m501.408 294.019c0 7.912-3.862 14.393-11.584 19.444-7.816 4.958-17.633 7.437-29.453 7.437-10.395 0-18.697-1.62-24.906-4.859-6.29-3.341-9.435-7.822-9.435-13.444 0-3.243 1.517-5.96 4.552-8.149 3.032-2.286 7.25-3.811 12.656-4.576-2.903-1.029-5.451-2.866-7.344-5.294-1.79-2.177-2.745-4.921-2.694-7.738.038-3.162 1.193-6.209 3.261-8.601 2.174-2.58 5.246-4.823 9.215-6.731-3.935-1.717-7.321-4.484-9.788-7.999-2.323-3.3-3.562-7.241-3.545-11.277 0-6.178 2.859-11.509 8.578-15.992 5.719-4.386 12.725-6.579 21.02-6.579 3.831-.004 7.641.582 11.294 1.737 3.415 1.038 6.614 2.687 9.441 4.866 3.047-3.619 5.954-6.335 8.723-8.15s5.342-2.72 7.721-2.716c2.954 0 5.29.762 7.008 2.287 1.614 1.622 2.423 3.862 2.427 6.719.067 2.114-.703 4.168-2.143 5.717-.721.748-1.588 1.34-2.548 1.738-.959.399-1.991.596-3.03.579-1.132.005-2.249-.257-3.261-.765-1.221-.687-2.299-1.603-3.174-2.699-.453-.639-.98-1.222-1.569-1.737-.402-.197-.845-.296-1.292-.29-.853.051-1.683.297-2.427.718-.986.505-1.9 1.14-2.716 1.888 1.622 1.763 2.927 3.793 3.857 6.001.847 2.141 1.283 4.422 1.286 6.725 0 6.178-2.859 11.468-8.578 15.87-5.719 4.483-12.725 6.722-21.019 6.719-1.82.001-3.637-.142-5.433-.429-1.928-.207-3.839-.54-5.723-.996-2.479 1.332-4.242 2.618-5.288 3.857-1.079 1.057-1.702 2.493-1.738 4.003-.013.632.122 1.26.395 1.831.272.571.675 1.071 1.175 1.458 1.189.901 2.657 1.356 4.147 1.286h27.454c7.912 0 13.965 1.526 18.159 4.576 4.216 3.136 6.323 7.657 6.319 13.565zm-14.729 5.914c0-2.78-1.049-4.796-3.146-6.047-2.096-1.344-5.378-2.016-9.846-2.016h-26.047c-2.572 1.054-4.431 2.404-5.578 4.055-1.259 1.596-1.915 3.586-1.853 5.618 0 3.549 1.954 6.379 5.861 8.491 3.904 2.016 9.146 3.024 15.726 3.024 7.336 0 13.343-1.199 18.019-3.597 4.576-2.417 6.864-5.593 6.864-9.528zm-24.808-73.276c-3.742 0-6.62 1.329-8.636 3.985-2.016 2.753-3.021 6.597-3.018 11.532.004 4.935 1.01 8.729 3.018 11.382 2.016 2.66 4.894 3.989 8.636 3.985s6.667-1.379 8.775-4.124c2.012-2.661 3.018-6.408 3.018-11.243 0-4.935-1.006-8.779-3.018-11.532-2.128-2.656-5.053-3.985-8.775-3.985z"/><path d="m543.446 289.154h-34.173v-6.314c3.719 0 6.006-.143 6.864-.428.857-.286 1.286-1.097 1.286-2.433v-79.479c.055-1.126-.143-2.25-.58-3.29-.729-.835-1.663-1.466-2.71-1.83l-5.433-2.716v-3.887l26.608-7.877.134 51.775c2.99-3.86 6.734-7.072 11.005-9.441 3.859-2.291 8.254-3.523 12.742-3.573 6.178 0 11.088 2.05 14.729 6.151 3.522 4.193 5.285 9.817 5.289 16.872v37.318c0 1.246.474 2.004 1.43 2.317.857.386 3.097.579 6.719.579v6.256h-34.179v-6.314c3.622 0 5.91-.193 6.864-.579.857-.284 1.285-1.042 1.285-2.317v-33.97c0-4.672-1.005-8.248-3.017-10.727s-4.935-3.719-8.769-3.719c-2.59.027-5.142.62-7.478 1.738-2.542 1.175-4.836 2.825-6.759 4.86v41.876c0 1.34.428 2.151 1.285 2.433.858.282 3.146.425 6.864.429z"/><path d="m643.372 278.716c-3.437 4.005-7.105 6.961-11.005 8.868-4.091 2.019-8.599 3.046-13.16 3-5.908 0-10.673-1.571-14.295-4.714-3.718-3.151-5.577-7.347-5.577-12.587v-44.309h-9.152v-7.883h9.152v-17.446l17.874-5.288v22.734h20.73v7.883h-20.736v41.182c0 3.145.805 5.577 2.433 7.292 1.627 1.714 3.95 2.572 7.002 2.572 2.104-.001 4.172-.541 6.007-1.57 2.287-1.354 4.36-3.041 6.151-5.004z"/><path d="m396.601 238.242c.06-1.035-.139-2.069-.58-3.007-.75-.891-1.675-1.62-2.716-2.143l-5.572-2.716v-3.852l26.736-7.825v61.303c0 1.246.475 2.004 1.431 2.317.857.386 3.097.579 6.719.579v6.256h-34.174v-6.314c3.62 0 5.914-.191 6.864-.579.857-.284 1.286-1.042 1.286-2.317z"/></g><path d="m387.739 189.745v3.857l5.578 2.716c1.04.525 1.963 1.254 2.716 2.144.44.938.639 1.971.579 3.006v4.297l4.13-1.204c.975-.353 2.022-.454 3.047-.296 1.064.474 2.023 1.155 2.82 2.004l4.171 4.588 3.707-1.084v-27.859z" fill="#337dff"/><path d="m227.924 282.29c-.958-.286-1.435-1.058-1.431-2.317v-40.689-20.585l-26.742 7.825v3.863l5.578 2.717c1.04.525 1.964 1.254 2.716 2.143.441.938.641 1.971.58 3.006v.463 33.699c-1.806 1.944-3.951 3.542-6.331 4.714-2.226 1.136-4.689 1.731-7.188 1.738-3.742 0-6.57-1.239-8.485-3.718-1.931-2.383-2.896-5.959-2.896-10.727v-22.294-23.429l-26.725 7.825v3.863l5.578 2.717c1.039.526 1.963 1.255 2.716 2.143.438.939.637 1.972.579 3.006v.191 29.123c0 7.054 1.813 12.63 5.439 16.727 3.618 4.194 8.526 6.29 14.724 6.29 4.36-.016 8.643-1.149 12.441-3.289 3.982-2.253 7.442-5.322 10.153-9.007v4.089 6.777h26.024v-6.314c-3.629 0-5.873-.183-6.73-.55z" fill="#222"/></g></svg>