<svg fill="none" height="500" viewBox="0 0 800 500" width="800" xmlns="http://www.w3.org/2000/svg"><path d="m0 0h800v500h-800z" fill="#ccbdae"/><g fill="#39414c"><path d="m400 261.765c12.976 0 23.529 10.553 23.529 23.529 0 12.977-10.553 23.53-23.529 23.53s-23.529-10.553-23.529-23.53c0-12.976 10.553-23.529 23.529-23.529zm0-11.765c-19.494 0-35.294 15.8-35.294 35.294s15.8 35.294 35.294 35.294 35.294-15.8 35.294-35.294-15.8-35.294-35.294-35.294z"/><path d="m364.706 238.235c6.497 0 11.765-5.267 11.765-11.764 0-6.498-5.268-11.765-11.765-11.765-6.498 0-11.765 5.267-11.765 11.765 0 6.497 5.267 11.764 11.765 11.764z"/><path d="m435.294 238.235c6.498 0 11.765-5.267 11.765-11.764 0-6.498-5.267-11.765-11.765-11.765-6.497 0-11.765 5.267-11.765 11.765 0 6.497 5.268 11.764 11.765 11.764z"/><path d="m341.188 208.8c-1.517 0-3.035-.588-4.188-1.753-2.271-2.306-2.271-5.988.012-8.271.553-.541 13.788-13.482 39.459-13.482 3.247 0 5.882 2.635 5.882 5.882 0 3.248-2.635 5.883-5.882 5.883-20.542 0-30.742 9.659-31.165 10.07-1.153 1.118-2.635 1.671-4.118 1.671z"/><path d="m458.824 208.824c-1.495 0-2.989-.565-4.13-1.695-.494-.47-10.694-10.07-31.165-10.07-3.247 0-5.882-2.635-5.882-5.883 0-3.247 2.635-5.882 5.882-5.882 25.671 0 38.906 12.941 39.459 13.482 2.294 2.295 2.294 6.024 0 8.318-1.153 1.153-2.659 1.73-4.164 1.73z"/><path d="m482.353 350h-164.706c-9.729 0-17.647-7.918-17.647-17.647v-82.353c0-.271.024-6.682 1.647-13.188 1.624-6.483 4.188-10.436 6.918-12.812-3.859-6.376-8.565-17.341-8.565-32.824 0-17.87 17.447-30.211 51.859-36.658 23.788-4.471 47.153-4.518 48.141-4.518s24.353.047 48.141 4.518c34.412 6.447 51.859 18.788 51.859 36.658 0 15.483-4.706 26.448-8.565 32.824 2.73 2.376 5.294 6.329 6.918 12.812 1.623 6.506 1.647 12.917 1.647 13.188v82.353c0 9.729-7.918 17.647-17.647 17.647zm-82.353-188.235c-.224 0-23.376.059-46.106 4.341-15.741 2.953-42.129 10.153-42.129 25.07 0 20.542 9.659 30.742 10.07 31.165 1.647 1.694 2.13 4.224 1.212 6.4-.918 2.177-3.035 3.6-5.4 3.6-3.565 0-5.859 10.459-5.882 17.659v82.353c0 3.247 2.635 5.882 5.882 5.882h164.706c3.247 0 5.882-2.635 5.882-5.882v-82.353c-.023-7.188-2.317-17.647-5.882-17.647-2.377 0-4.529-1.435-5.435-3.635s-.412-4.73 1.27-6.412c.377-.388 10.047-10.6 10.047-31.13 0-14.917-26.388-22.117-42.129-25.07-22.73-4.282-45.871-4.341-46.106-4.341z"/></g></svg>