<svg fill="none" height="501" viewBox="0 0 800 501" width="800" xmlns="http://www.w3.org/2000/svg"><path d="m0 .900024h800v500h-800z" fill="#ff351a"/><g fill="#fff"><path d="m411.295 239.454c-8.74 0-9.969 7.322-9.969 15.828s1.229 15.878 9.969 15.878c8.696 0 9.925-7.372 9.925-15.878 0-8.5-1.229-15.828-9.925-15.828z"/><path d="m317.033 239.505c-8.696 0-9.925 7.321-9.925 15.827s1.229 15.828 9.925 15.828c8.74 0 9.969-7.322 9.969-15.828s-1.229-15.827-9.969-15.827z"/><path d="m614.248 161h-427.496c-18.64 0-33.752 15.112-33.752 33.752v90c0 15.726 10.754 28.938 25.309 32.687.481.127 1.647.374 1.735.393 71.088 15.175 144.836 23.168 220.453 23.168 75.616 0 149.364-7.993 220.452-23.168.089-.019 1.248-.273 1.736-.393 14.554-3.749 25.309-16.961 25.309-32.687v-90c.006-18.64-15.106-33.752-33.746-33.752zm-371.299 117.956c-.848.52-1.843.71-2.742.71-2.553 0-3.731-1.793-5.054-4.155l-14.035-24.574h-12.756v21.781c0 2.502-.051 3.306-.754 4.63-.754 1.368-2.318 2.311-4.345 2.311-2.033 0-3.591-.943-4.345-2.311-.709-1.324-.753-2.128-.753-4.63v-54.475c0-1.514 0-3.306 1.463-4.776 1.463-1.463 3.262-1.463 4.769-1.463h19.843c12.756 0 20.882 8.221 20.882 19.653 0 9.589-5.814 15.733-13.326 17.861l12.046 21.027c1.185 2.078 1.558 2.926 1.609 4.206.051 1.653-.754 3.167-2.502 4.205zm46.444-22.066c-1.228 1.229-2.837 1.229-4.249 1.229h-25.468c0 8.177 4.301 13.516 12.287 13.516 3.357 0 6.613-.944 9.216-3.021 1.463-1.185 2.692-1.748 3.92-1.748 1.938 0 3.971 1.887 3.971 4.11s-2.457 4.301-4.819 5.814c-3.022 1.983-7.373 3.072-12.522 3.072-11.951 0-21.591-6.283-21.591-24.524 0-15.783 8.082-24.523 20.318-24.523 12.521 0 19.989 9.12 20.267 21.781.038 1.412-.145 3.116-1.33 4.294zm47.204 16.157c0 2.648-.19 3.496-.848 4.586-.805 1.273-2.363 2.033-3.971 2.033-1.558 0-3.022-.615-3.921-1.888-.519-.709-.754-1.418-.849-3.401-3.546 4.206-7.511 5.479-12.521 5.479-4.82 0-9.07-1.609-11.717-4.25-4.63-4.725-5.289-12.382-5.289-20.318 0-7.841.659-15.498 5.289-20.223 2.647-2.648 6.802-4.25 11.622-4.25 5.105 0 9.07 1.229 12.566 5.383v-18.006c0-2.318.139-3.167.709-4.3.659-1.273 2.033-2.268 4.111-2.268 2.077 0 3.451.995 4.11 2.268.57 1.133.709 1.982.709 4.3zm27.07 6.809c-7.467 0-12.382-1.419-16.683-4.345-1.513-1.039-2.647-2.363-2.647-4.016 0-1.228.57-2.501 1.558-3.306.754-.665 1.609-.994 2.648-.994.994 0 2.128.424 3.591 1.368 3.356 2.172 6.707 3.211 11.577 3.211 6.144 0 10.54-2.172 10.54-6.758 0-3.211-1.844-5.244-6.473-5.668l-7.702-.71c-8.93-.804-14.175-4.82-14.175-13.136 0-9.405 8.082-14.693 18.095-14.693 5.15 0 9.165.899 12.902 2.647 1.609.754 2.502 1.368 3.116 2.033.709.849.899 1.558.899 2.648 0 .943-.519 2.128-1.184 2.837-.804.804-1.704 1.229-2.837 1.229-.9 0-1.843-.38-3.117-.995-3.021-1.463-6.282-2.501-9.969-2.501-5.719 0-8.601 2.647-8.601 6.282 0 3.547 2.224 5.105 6.613 5.479l7.562.709c8.93.849 14.219 4.96 14.219 13.516.013 9.963-8.493 15.163-19.932 15.163zm61.898-4.301c-2.647 2.648-6.802 4.301-11.622 4.301-5.105 0-9.07-1.273-12.566-5.434v18c0 2.318-.139 3.166-.709 4.3-.659 1.273-2.033 2.267-4.111 2.267-2.077 0-3.451-.994-4.11-2.267-.57-1.134-.71-1.982-.71-4.3v-54.856c0-2.647.191-3.496.849-4.585.805-1.273 2.363-2.033 3.971-2.033 1.558 0 3.021.614 3.921 1.887.519.754.754 1.463.849 3.401 3.546-4.205 7.467-5.478 12.521-5.478 4.82 0 9.07 1.609 11.717 4.25 4.63 4.725 5.295 12.382 5.295 20.318 0 7.847-.665 15.504-5.295 20.229zm43.043-33.359c-.994 0-2.077-.329-3.73-1.273-1.609-.899-3.307-1.418-5.2-1.418-5.479 0-9.779 4.066-9.779 10.722v22.871c0 2.318-.14 3.167-.71 4.3-.658 1.273-2.033 2.268-4.11 2.268-2.078 0-3.452-.995-4.111-2.268-.57-1.133-.709-1.982-.709-4.3v-35.487c0-2.648.19-3.496.849-4.586.804-1.273 2.362-2.033 3.971-2.033 1.558 0 3.021.615 3.92 1.888.52.753.754 1.463.849 3.496 2.692-3.357 7.182-5.574 12.192-5.574 3.547 0 6.093.659 8.411 2.223 1.653 1.09 2.882 2.502 2.882 4.345 0 1.368-.57 2.648-1.419 3.496-.798.811-2.077 1.33-3.306 1.33zm43.898 14.694c-1.229 1.229-2.838 1.229-4.25 1.229h-25.467c0 8.177 4.3 13.516 12.287 13.516 3.357 0 6.612-.944 9.215-3.021 1.463-1.185 2.692-1.748 3.921-1.748 1.938 0 3.971 1.887 3.971 4.11s-2.457 4.301-4.82 5.814c-3.021 1.983-7.372 3.072-12.521 3.072-11.952 0-21.591-6.283-21.591-24.524 0-15.783 8.081-24.523 20.318-24.523 12.521 0 19.988 9.12 20.267 21.781.038 1.412-.146 3.116-1.33 4.294zm45.551 16.208c0 2.362-.095 3.262-.709 4.345-.71 1.323-2.268 2.223-4.111 2.223-1.558 0-2.742-.57-3.496-1.368-.57-.659-.994-1.419-1.089-3.452-3.781 3.686-6.993 4.959-12.851 4.959-5.998 0-10.02-1.368-12.902-4.345-2.457-2.502-3.825-6.188-3.825-10.254 0-8.031 5.719-13.889 16.587-13.889h12.712v-2.977c0-6.283-2.977-9.355-10.02-9.355-3.825 0-6.378 1.09-9.164 3.211-1.229.944-2.597 1.273-3.497 1.273-.994 0-2.077-.424-2.786-1.273-.805-.899-1.134-1.703-1.134-2.976 0-2.173 2.033-4.111 4.49-5.53 3.357-1.938 7.227-2.881 12.193-2.881 12.85 0 19.608 5.624 19.608 16.492v25.797zm48.053-.051c0 2.648-.19 3.496-.849 4.586-.804 1.273-2.362 2.033-3.971 2.033-1.558 0-3.021-.615-3.921-1.888-.519-.709-.753-1.418-.848-3.401-3.547 4.206-7.512 5.479-12.522 5.479-4.82 0-9.069-1.609-11.717-4.25-4.63-4.725-5.295-12.382-5.295-20.318 0-7.841.659-15.498 5.295-20.223 2.648-2.648 6.802-4.25 11.622-4.25 5.105 0 9.07 1.229 12.566 5.383v-18.006c0-2.318.139-3.167.709-4.3.659-1.273 2.033-2.268 4.111-2.268 2.077 0 3.452.995 4.11 2.268.57 1.133.71 1.982.71 4.3z"/><path d="m234.912 231.752c0-6.663-4.63-10.678-11.432-10.678h-15.118v21.167h15.118c6.802 0 11.432-3.87 11.432-10.489z"/><path d="m493.562 238.84c-4.629 0-7.936 2.457-9.544 6.048-.944 2.078-1.134 3.591-1.229 6.524h21.547c-.19-2.933-.38-4.44-1.324-6.524-1.609-3.591-4.915-6.048-9.45-6.048z"/><path d="m270.45 238.84c-4.63 0-7.936 2.457-9.545 6.048-.944 2.078-1.134 3.591-1.229 6.524h21.547c-.19-2.933-.38-4.44-1.324-6.524-1.608-3.591-4.914-6.048-9.449-6.048z"/><path d="m528.473 265.067c0 4.345 2.932 6.758 9.025 6.758 3.452 0 6.283-.38 8.74-2.743 1.514-1.418 2.128-3.591 2.128-7.131v-3.781h-11.337c-5.668 0-8.556 2.451-8.556 6.897z"/><path d="m586.545 239.505c-8.696 0-9.925 7.321-9.925 15.827s1.229 15.828 9.925 15.828c8.741 0 9.969-7.322 9.969-15.828s-1.228-15.827-9.969-15.827z"/></g></svg>