<svg fill="none" height="501" viewBox="0 0 800 501" width="800" xmlns="http://www.w3.org/2000/svg" xmlns:xlink="http://www.w3.org/1999/xlink"><linearGradient id="a" gradientUnits="userSpaceOnUse" x1="207.922" x2="592.078" y1="230.976" y2="230.976"><stop offset="0" stop-color="#fd9d52"/><stop offset=".5" stop-color="#dd45d3"/><stop offset="1" stop-color="#943cff"/></linearGradient><clipPath id="b"><path d="m0 .899902h800v500h-800z"/></clipPath><g clip-path="url(#b)"><path d="m0 0h800v500h-800z" fill="#000" transform="translate(0 .899902)"/><path d="m484.886 292.741c-3.302 0-5.978-2.675-5.978-5.977v-111.575c0-3.302 2.676-5.977 5.978-5.977 3.301 0 5.977 2.675 5.977 5.977v111.575c.001 3.3-2.676 5.977-5.977 5.977zm102.222-15.656c2.137-2.517 1.83-6.288-.687-8.425-2.516-2.137-6.287-1.83-8.424.687-6.177 7.27-15.422 11.44-25.37 11.44-16.479 0-29.885-13.406-29.885-29.885s13.406-29.885 29.885-29.885c13.391 0 24.577 9.621 27.006 22.314h-36.569c-3.301 0-5.977 2.676-5.977 5.977 0 3.302 2.676 5.977 5.977 5.977h43.036c3.302 0 5.977-2.675 5.977-5.977v-.797c0-21.754-17.696-39.45-39.45-39.45-23.071 0-41.841 18.769-41.841 41.841s18.77 41.841 41.841 41.841c13.463-.002 26.03-5.709 34.481-15.658zm-128.123 9.679v-38.253c0-21.754-17.696-39.45-39.45-39.45-23.072 0-41.841 18.769-41.841 41.841s18.769 41.841 41.841 41.841c3.302 0 5.977-2.675 5.977-5.977s-2.675-5.977-5.977-5.977c-16.479 0-29.885-13.407-29.885-29.885 0-16.479 13.406-29.886 29.885-29.886 15.161 0 27.496 12.334 27.496 27.496v38.254c0 3.301 2.675 5.977 5.977 5.977 3.302-.004 5.977-2.681 5.977-5.981zm-180.93-17.933c0-5.834-2.142-13.791-12.351-18.572-6.125-2.869-13.811-4.048-21.244-5.188-17.414-2.67-23.597-4.9-23.597-12.104 0-7.848 10.883-11.954 21.633-11.954 6.775 0 16.511 1.366 24.427 7.876 2.55 2.096 6.318 1.729 8.414-.821 2.097-2.55 1.73-6.316-.818-8.414-10.65-8.76-23.293-10.599-32.021-10.599-23.077 0-33.588 12.394-33.588 23.909 0 5.873 2.151 13.883 12.399 18.698 6.159 2.895 13.878 4.077 21.342 5.222 17.307 2.654 23.452 4.857 23.452 11.944 0 7.15-8.536 11.954-21.239 11.954-13.004 0-22.914-5.273-27.663-8.418-2.753-1.821-6.461-1.067-8.284 1.685-1.823 2.753-1.067 6.461 1.686 8.284 10.134 6.709 22.302 10.403 34.261 10.403 22.927.005 33.191-12.004 33.191-23.905zm86.666 6.268c1.827-2.749 1.08-6.458-1.669-8.287-2.749-1.826-6.459-1.08-8.287 1.67-5.119 7.705-13.687 12.303-22.915 12.303-16.479 0-29.885-13.406-29.885-29.885s13.406-29.885 29.885-29.885c9.23 0 17.796 4.599 22.915 12.303 1.828 2.75 5.538 3.498 8.287 1.67 2.749-1.827 3.498-5.538 1.669-8.287-7.341-11.047-19.63-17.642-32.871-17.642-23.071 0-41.841 18.769-41.841 41.841s18.77 41.841 41.841 41.841c13.243 0 25.53-6.594 32.871-17.642z" fill="url(#a)"/></g></svg>