<svg fill="none" height="1080" viewBox="0 0 1620 1080" width="1620" xmlns="http://www.w3.org/2000/svg" xmlns:xlink="http://www.w3.org/1999/xlink"><linearGradient id="a" gradientUnits="userSpaceOnUse" x1="400.234" x2="1219.77" y1="497.495" y2="497.495"><stop offset="0" stop-color="#fd9d52"/><stop offset=".5" stop-color="#dd45d3"/><stop offset="1" stop-color="#943cff"/></linearGradient><clipPath id="b"><path d="m0 0h1620v1080h-1620z"/></clipPath><g clip-path="url(#b)"><path d="m0 0h1620v1080h-1620z" fill="#000"/><path d="m991.09 629.261c-7.044 0-12.751-5.707-12.751-12.751v-238.027c0-7.044 5.707-12.751 12.751-12.751s12.75 5.707 12.75 12.751v238.027c0 7.04-5.706 12.751-12.75 12.751zm218.07-33.4c4.56-5.369 3.91-13.414-1.46-17.973s-13.41-3.904-17.97 1.465c-13.18 15.51-32.9 24.406-54.12 24.406-35.16 0-63.76-28.6-63.76-63.755s28.6-63.755 63.76-63.755c28.56 0 52.43 20.525 57.61 47.604h-78.02c-7.04 0-12.75 5.707-12.75 12.751s5.71 12.751 12.75 12.751h91.81c7.05 0 12.76-5.707 12.76-12.751v-1.701c0-46.408-37.76-84.16-84.16-84.16-49.22 0-89.27 40.041-89.27 89.261s40.05 89.261 89.27 89.261c28.72-.004 55.52-12.179 73.55-33.404zm-273.325 20.649v-81.607c0-46.408-37.752-84.16-84.16-84.16-49.22 0-89.261 40.041-89.261 89.261s40.041 89.261 89.261 89.261c7.044 0 12.751-5.707 12.751-12.751s-5.707-12.751-12.751-12.751c-35.155 0-63.755-28.601-63.755-63.755 0-35.155 28.6-63.756 63.755-63.756 32.343 0 58.658 26.312 58.658 58.658v81.608c0 7.043 5.707 12.751 12.751 12.751 7.044-.008 12.751-5.719 12.751-12.759zm-385.984-38.257c0-12.446-4.57-29.421-26.349-39.62-13.067-6.121-29.463-8.636-45.319-11.068-37.151-5.696-50.342-10.454-50.342-25.822 0-16.742 23.217-25.502 46.151-25.502 14.453 0 35.223 2.914 52.111 16.802 5.44 4.472 13.478 3.689 17.951-1.751 4.472-5.44 3.689-13.474-1.747-17.95-22.72-18.688-49.691-22.611-68.311-22.611-49.231 0-71.653 26.44-71.653 51.005 0 12.528 4.589 29.616 26.45 39.89 13.139 6.174 29.606 8.697 45.531 11.14 36.92 5.662 50.029 10.361 50.029 25.48 0 15.254-18.21 25.502-45.308 25.502-27.742 0-48.885-11.249-59.016-17.958-5.873-3.885-13.782-2.277-17.671 3.595-3.889 5.873-2.278 13.783 3.595 17.672 21.621 14.313 47.578 22.193 73.092 22.193 48.911.011 70.806-25.608 70.806-50.997zm184.889 13.372c3.896-5.865 2.304-13.778-3.562-17.679-5.865-3.896-13.779-2.304-17.679 3.562-10.921 16.437-29.199 26.247-48.884 26.247-35.155 0-63.756-28.6-63.756-63.755s28.601-63.755 63.756-63.755c19.689 0 37.963 9.811 48.884 26.247 3.9 5.866 11.814 7.462 17.679 3.562 5.866-3.897 7.462-11.814 3.562-17.679-15.661-23.567-41.879-37.636-70.125-37.636-49.22 0-89.262 40.041-89.262 89.261s40.042 89.261 89.262 89.261c28.25 0 54.464-14.068 70.125-37.636z" fill="url(#a)"/></g></svg>