<svg fill="none" height="1080" viewBox="0 0 1620 1080" width="1620" xmlns="http://www.w3.org/2000/svg"><path d="m0 0h1620v1080h-1620z" fill="#efe5ff"/><g fill="#5700ff"><path d="m522.669 703.63h-218.135c-30.116 0-54.534-24.424-54.534-54.548v-218.193c0-30.125 24.418-54.549 54.534-54.549h218.135c30.116 0 54.534 24.424 54.534 54.549v218.193c0 30.124-24.418 54.548-54.534 54.548z" opacity=".1"/><path d="m412.986 437.025-4.09 40.912c-.396 4.009 2.754 7.5 6.789 7.5h86.532c3.763 0 6.817-3.055 6.817-6.819v-40.911c0-3.764-3.054-6.818-6.817-6.818h-82.455c-3.49 0-6.422 2.659-6.776 6.136z"/><path d="m358.383 649.082h-33.402c-3.763 0-6.817-3.055-6.817-6.819v-40.911c0-3.764 3.054-6.819 6.817-6.819h37.492c4.035 0 7.185 3.478 6.789 7.501l-4.09 40.911c-.354 3.478-3.285 6.137-6.789 6.137z"/><path d="m318.164 437.707v122.734c0 3.764 3.054 6.818 6.817 6.818h41.555c3.503 0 6.435-2.659 6.789-6.136l12.27-122.734c.395-4.009-2.754-7.5-6.789-7.5h-53.825c-3.763 0-6.817 3.054-6.817 6.818z"/><path d="m404.807 518.848-4.09 40.911c-.395 4.009 2.754 7.5 6.79 7.5h94.711c3.763 0 6.817-3.054 6.817-6.818v-40.911c0-3.764-3.054-6.819-6.817-6.819h-90.635c-3.49 0-6.421 2.659-6.776 6.137z"/><path d="m393.899 600.67-4.09 40.911c-.395 4.01 2.754 7.501 6.789 7.501h105.619c3.763 0 6.816-3.055 6.816-6.819v-40.911c0-3.764-3.053-6.819-6.816-6.819h-101.542c-3.49 0-6.422 2.66-6.776 6.137z" opacity=".4"/><path d="m712.145 454.713c-4.883-2.714-11.666-4.342-19.262-4.342-26.588 0-39.611 13.026-39.611 38.264v28.495h-15.736c-2.441 0-4.069 1.628-4.069 4.071v12.212c0 2.442 1.628 4.07 4.069 4.07h15.736v108.552c0 2.442 1.628 4.07 4.07 4.07h16.278c2.442 0 4.07-1.628 4.07-4.07v-108.552h28.215c2.442 0 4.07-1.628 4.07-4.07v-12.212c0-2.443-1.628-4.071-4.07-4.071h-28.215v-26.595c0-11.669 2.984-18.454 17.092-18.454 5.697 0 10.309 1.629 15.193 4.342 2.713 1.629 4.883.543 4.883-2.713v-14.112c0-2.171-.813-3.799-2.713-4.885zm37.441 32.294c8.41 0 14.65-6.513 14.65-14.654 0-8.413-6.24-14.926-14.65-14.926-8.411 0-14.651 6.513-14.651 14.926 0 8.141 6.24 14.654 14.651 14.654zm8.139 30.123h-16.279c-2.441 0-4.069 1.628-4.069 4.071v124.834c0 2.442 1.628 4.07 4.069 4.07h16.279c2.442 0 4.069-1.628 4.069-4.07v-124.834c0-2.443-1.627-4.071-4.069-4.071z"/><path d="m924.573 517.13h-14.379c-2.441 0-3.798 1.628-4.069 4.071l-1.086 16.554c-10.038-14.112-25.502-23.339-45.579-23.339-37.711 0-64.842 30.666-64.842 69.473 0 37.45 27.131 68.116 64.842 68.116 20.077 0 35.27-8.684 45.308-21.982l1.357 16.012c.271 2.442 1.628 4.07 4.069 4.07h14.379c2.442 0 4.07-1.628 4.07-4.07v-124.834c0-2.443-1.628-4.071-4.07-4.071zm-62.671 112.622c-25.232 0-43.952-20.082-43.952-46.134 0-27.138 18.72-46.949 43.952-46.949 25.231 0 43.409 21.168 43.409 46.949 0 26.052-18.178 46.134-43.409 46.134z"/><path d="m985.189 551.595c0-12.483 11.666-17.097 21.161-17.097 11.67 0 19.53 4.614 30.12 13.026 2.17 1.9 4.34 2.443 5.96.272l6.24-7.87c1.36-1.9 1.9-3.799.28-5.699-11.13-13.026-28.49-20.082-43.41-20.082-23.878 0-43.683 14.926-43.683 37.45 0 44.506 70.543 33.651 70.543 62.688 0 11.398-10.31 17.369-24.15 17.369-15.193 0-28.216-8.956-36.084-15.469-2.441-1.9-4.069-2.442-5.968-.271l-7.054 9.498c-1.357 1.628-1.357 3.256.271 5.156 9.496 11.127 27.131 22.253 49.645 22.253 23.34 0 47.21-14.654 47.21-38.264 0-47.491-71.081-35.279-71.081-62.96z"/><path d="m1147.25 629.752c-25.77 0-43.95-20.353-43.95-46.134 0-26.595 18.18-46.949 43.95-46.949 18.45 0 27.13 8.684 35 15.74 2.17 1.9 4.07 1.9 5.97 0l9.22-8.684c1.63-1.628 1.9-3.799.27-5.699-12.48-14.383-29.84-23.61-50.73-23.61-38.26 0-67.01 30.666-67.01 69.202 0 37.721 28.75 68.387 67.01 68.387 21.43 0 39.07-9.227 51.55-23.61 1.62-1.9 1.35-4.071-.27-5.699l-9.23-8.684c-1.9-1.9-3.8-2.171-5.97 0-7.59 7.327-16.82 15.74-35.81 15.74z"/><path d="m1288.47 652.819c38.26 0 67.83-30.394 67.83-69.201 0-39.079-29.57-69.473-67.83-69.473-37.98 0-67.55 30.394-67.55 69.473 0 38.807 29.57 69.201 67.55 69.201zm0-22.253c-24.69 0-44.22-19.811-44.22-46.948 0-27.409 19.53-47.22 44.22-47.22 24.96 0 44.23 19.811 44.23 47.22 0 27.137-19.27 46.948-44.23 46.948z"/></g></svg>