<svg viewBox="0 0 800 600" xmlns="http://www.w3.org/2000/svg"><path d="m0 0h800v600h-800z" fill="#f3f3f4"/><path d="m389.77 192-3.5 35a2.51 2.51 0 0 0 2.49 2.75h88.74a2.5 2.5 0 0 0 2.5-2.5v-35a2.5 2.5 0 0 0 -2.5-2.5h-85.24a2.5 2.5 0 0 0 -2.49 2.25z" fill="#1b1726"/><path d="m351.76 349.73h-29.26a2.5 2.5 0 0 1 -2.5-2.5v-35a2.5 2.5 0 0 1 2.5-2.5h32.76a2.5 2.5 0 0 1 2.49 2.75l-3.5 35a2.5 2.5 0 0 1 -2.49 2.25z" fill="#1b1726"/><path d="m320 192.23v95a2.5 2.5 0 0 0 2.5 2.5h35.24a2.5 2.5 0 0 0 2.49-2.25l9.5-95a2.51 2.51 0 0 0 -2.49-2.75h-44.74a2.5 2.5 0 0 0 -2.5 2.5z" fill="#1b1726"/><path d="m383.77 252-3.5 35a2.51 2.51 0 0 0 2.49 2.75h94.74a2.5 2.5 0 0 0 2.5-2.5v-35a2.5 2.5 0 0 0 -2.5-2.5h-91.24a2.5 2.5 0 0 0 -2.49 2.25z" fill="#716f79"/><path d="m375.77 312-3.5 35a2.51 2.51 0 0 0 2.49 2.75h102.74a2.5 2.5 0 0 0 2.5-2.5v-35a2.5 2.5 0 0 0 -2.5-2.5h-99.24a2.5 2.5 0 0 0 -2.49 2.25z" fill="#c8c8cc"/><g fill="#1b1726"><path d="m340.15 380.26v3a.61.61 0 0 1 -.64.65h-14.71v8.31h13.72a.61.61 0 0 1 .64.65v3a.6.6 0 0 1 -.64.64h-13.72v12.49a.61.61 0 0 1 -.64.65h-3.52a.61.61 0 0 1 -.64-.65v-28.74a.6.6 0 0 1 .64-.64h18.87a.6.6 0 0 1 .64.64z"/><path d="m359.39 383.93v21.39h7.25a.6.6 0 0 1 .64.64v3a.61.61 0 0 1 -.64.65h-19.29a.61.61 0 0 1 -.65-.65v-3a.61.61 0 0 1 .65-.64h7.24v-21.39h-7.24a.61.61 0 0 1 -.65-.65v-3a.61.61 0 0 1 .65-.64h19.29a.6.6 0 0 1 .64.64v3a.61.61 0 0 1 -.64.65z"/><path d="m396.64 409.63h-3.54a.67.67 0 0 1 -.73-.52l-1.44-5.33h-11.1l-1.44 5.33a.65.65 0 0 1 -.73.52h-3.51c-.47 0-.64-.3-.52-.73l8-28.77a.74.74 0 0 1 .75-.51h6a.74.74 0 0 1 .75.51l8 28.77c.13.43-.02.73-.49.73zm-6.8-10-4-15.05h-.84l-4 15.05z"/><path d="m424.5 401.59c0 5.49-3.58 8.68-11.15 8.68-6.67 0-10.44-2.4-10.91-7.61a.64.64 0 0 1 .6-.77h3.3c.39 0 .58.3.64.64.43 2.12 2.62 3.39 6.37 3.39 4.09 0 6.43-1.33 6.43-4.22 0-3.31-2.1-4.21-6.58-5.19-5.4-1.2-10.14-3.17-10.14-9 0-5 3.3-8.29 10.05-8.29 6.18 0 9.95 2.4 10.46 7.5a.57.57 0 0 1 -.6.69h-3.06a.6.6 0 0 1 -.64-.56c-.35-1.93-2.45-3.34-6.11-3.34-3.39 0-5.45 1.45-5.45 4s1.4 3.91 5.49 4.74c5.8 1.13 11.3 2.93 11.3 9.34z"/><path d="m447.6 401.61a.66.66 0 0 1 .73-.56h3.23c.43 0 .63.26.58.71-.64 6.28-3.9 8.51-10.48 8.51-7.59 0-10.8-3.21-10.8-14.25v-2.58c0-11.06 3.21-14.25 10.8-14.25 6.58 0 9.84 2.23 10.48 8.51.05.45-.15.71-.58.71h-3.23a.67.67 0 0 1 -.73-.56c-.52-3.35-2.29-4-5.81-4-4.09 0-6.26 1.28-6.26 9.64v2.51c0 8.36 2.17 9.67 6.26 9.67 3.64-.01 5.29-.67 5.81-4.06z"/><path d="m480 393.44v2.56c0 11.11-3.11 14.28-10.74 14.28s-10.74-3.18-10.74-14.28v-2.55c0-11.08 3.11-14.25 10.74-14.25s10.74 3.16 10.74 14.24zm-16.81 0v2.56c0 8.56 1.85 9.67 6.07 9.67s6.07-1.11 6.07-9.67v-2.53c0-8.55-1.85-9.66-6.07-9.66s-6.07 1.1-6.07 9.65z"/></g></svg>