<svg fill="none" height="501" viewBox="0 0 800 501" width="800" xmlns="http://www.w3.org/2000/svg"><path d="m0 .900024h800v500h-800z" fill="#1b1726"/><path d="m170.613 202.413-2.188 21.875c-.021.216.004.434.072.641.068.206.179.396.325.557s.324.29.522.379c.199.088.414.134.631.135h55.475c.414 0 .812-.165 1.105-.458s.458-.69.458-1.104v-21.876c0-.414-.165-.811-.458-1.104s-.691-.458-1.105-.458h-53.287c-.388.001-.761.147-1.048.408-.286.261-.465.619-.502 1.005z" fill="#f3f3f4"/><path d="m146.85 301h-18.288c-.414 0-.811-.165-1.104-.458s-.458-.69-.458-1.104v-21.876c0-.414.165-.811.458-1.104s.69-.458 1.104-.458h20.475c.218.001.434.047.633.135.199.089.378.217.524.378.147.161.259.351.329.557.07.207.096.425.077.642l-2.188 21.875c-.04.387-.221.746-.51 1.006-.288.261-.663.406-1.052.407z" fill="#f3f3f4"/><path d="m127 202.563v59.375c0 .414.165.811.458 1.104s.69.458 1.104.458h22.025c.388-.001.761-.147 1.048-.408.286-.261.465-.619.503-1.004l5.937-59.375c.023-.217 0-.436-.068-.644-.067-.207-.178-.398-.324-.559-.147-.162-.325-.291-.525-.379-.199-.087-.415-.132-.633-.131h-27.963c-.414 0-.811.165-1.104.458s-.458.69-.458 1.105z" fill="#f3f3f4"/><path d="m166.863 239.913-2.188 21.875c-.021.216.004.434.072.641.068.206.179.396.325.557s.324.29.522.379c.199.088.414.134.631.135h59.225c.414 0 .812-.165 1.105-.458s.458-.69.458-1.104v-21.876c0-.414-.165-.811-.458-1.104s-.691-.458-1.105-.458h-57.037c-.388.001-.761.147-1.048.408-.286.261-.465.619-.502 1.005z" fill="#c8c8cc"/><path d="m161.863 277.413-2.188 21.875c-.021.216.004.434.072.641.068.206.179.396.325.557s.324.29.522.379c.199.088.414.134.631.135h64.225c.414 0 .812-.165 1.105-.458s.458-.69.458-1.104v-21.876c0-.414-.165-.811-.458-1.104s-.691-.458-1.105-.458h-62.037c-.388.001-.761.147-1.048.408-.286.261-.465.619-.502 1.005z" fill="#716f79"/><g fill="#f3f3f4"><path d="m327.362 215.112v7.5c.011.215-.023.428-.1.628-.078.2-.196.382-.348.533-.153.151-.335.268-.535.344-.201.075-.415.108-.629.095h-36.75v20.788h34.287c.216-.013.431.02.632.097.202.076.385.195.537.347s.271.335.347.537c.077.201.11.416.097.631v7.6c.013.216-.02.431-.097.632-.076.202-.195.385-.347.537s-.335.271-.537.347c-.201.077-.416.11-.632.097h-34.287v31.012c.015.215-.017.43-.092.631-.075.202-.192.385-.343.538-.152.152-.334.271-.535.347-.201.077-.415.11-.63.097h-8.75c-.215.013-.43-.02-.632-.097-.201-.076-.384-.195-.537-.347-.152-.152-.27-.335-.347-.537-.076-.201-.109-.416-.097-.632v-71.725c-.012-.215.021-.43.097-.631.077-.202.195-.385.347-.537.153-.152.336-.271.537-.347.202-.077.417-.11.632-.097h47.137c.212-.007.424.03.621.109.196.079.375.198.523.35.148.151.263.332.337.531.075.199.107.411.094.622z"/><path d="m375.45 224.263v53.475h18.1c.214-.013.428.02.629.095.2.076.382.193.535.344.152.151.27.333.348.533.077.2.111.414.1.628v7.5c.013.215-.02.43-.096.631-.077.202-.195.385-.348.537-.152.152-.335.271-.536.347-.202.077-.417.11-.632.097h-48.2c-.215.013-.429-.02-.63-.097-.201-.076-.383-.195-.535-.347-.151-.153-.268-.336-.343-.537-.075-.202-.107-.417-.092-.631v-7.5c-.013-.214.02-.428.096-.627.076-.2.193-.382.344-.533.152-.151.333-.269.533-.345s.414-.108.627-.095h18.113v-53.475h-18.113c-.213.012-.427-.02-.627-.096s-.381-.194-.533-.345c-.151-.151-.268-.332-.344-.532s-.109-.414-.096-.627v-7.5c-.015-.215.017-.43.092-.631.075-.202.192-.385.343-.537.152-.153.334-.272.535-.348.201-.077.415-.11.63-.097h48.212c.216-.013.431.02.632.097.202.076.385.195.537.347s.271.335.347.537c.077.201.11.416.097.632v7.5c.011.214-.023.428-.101.628-.077.199-.196.381-.348.532s-.334.268-.535.344c-.2.075-.415.108-.629.096z"/><path d="m468.538 288.5h-8.838c-.405.055-.816-.043-1.153-.274s-.577-.579-.672-.976l-3.587-13.338h-27.75l-3.588 13.338c-.095.397-.335.745-.672.976s-.748.329-1.153.274h-8.75c-1.175 0-1.6-.75-1.25-1.825l20-71.888c.133-.384.388-.715.727-.94.339-.226.742-.335 1.148-.31h14.9c.406-.025.809.084 1.148.31.339.225.594.556.727.94l20.088 71.888c.225 1.075-.15 1.825-1.325 1.825zm-16.988-25-10.062-37.613h-2.15l-10.063 37.613z"/><path d="m537.1 268.412c0 13.75-8.95 21.7-27.85 21.7-16.662 0-26.1-6-27.275-19.025-.047-.227-.045-.462.008-.688.052-.226.154-.438.296-.621.143-.184.324-.334.53-.44.207-.106.434-.166.666-.176h8.225c.963 0 1.45.75 1.613 1.6 1.062 5.313 6.537 8.475 15.912 8.475 10.225 0 16.063-3.325 16.063-10.562 0-8.25-5.25-10.5-16.438-12.963-13.5-3-25.35-7.925-25.35-22.5 0-12.587 8.25-20.737 25.125-20.737 15.438 0 24.863 6 26.15 18.75.045.216.039.44-.017.653-.056.214-.16.411-.306.577-.145.166-.327.296-.532.38-.204.084-.425.119-.645.102h-7.662c-.198.016-.396-.008-.584-.07-.187-.061-.361-.159-.511-.288s-.273-.286-.362-.463-.142-.369-.156-.566c-.85-4.825-6.1-8.363-15.262-8.363-8.463 0-13.613 3.65-13.613 10 0 6.163 3.488 9.75 13.75 11.838 14.463 2.862 28.225 7.362 28.225 23.387z"/><path d="m593.875 268.5c.068-.421.295-.8.635-1.058.34-.259.766-.377 1.19-.329h8.087c1.075 0 1.563.637 1.451 1.762-1.613 15.7-9.75 21.25-26.25 21.25-18.963 0-27.001-8.037-27.001-35.625v-6.437c0-27.638 8.038-35.625 27.001-35.625 16.45 0 24.587 5.575 26.25 21.25.112 1.125-.376 1.762-1.451 1.762h-8.087c-.424.047-.85-.07-1.19-.329-.34-.258-.567-.637-.635-1.058-1.25-8.363-5.725-10.075-14.512-10.075-10.238 0-15.651 3.212-15.651 24.112v6.313c0 20.9 5.413 24.162 15.651 24.162 9.1.013 13.237-1.75 14.512-10.075z"/><path d="m673.9 248.05v6.375c0 27.75-7.775 35.687-26.838 35.687-19.062 0-26.85-7.937-26.85-35.687v-6.375c0-27.688 7.775-35.625 26.85-35.625s26.838 7.937 26.838 35.625zm-42 .062v6.313c0 21.375 4.6 24.162 15.162 24.162 10.563 0 15.15-2.787 15.15-24.162v-6.313c0-21.375-4.6-24.162-15.15-24.162s-15.162 2.787-15.162 24.162z"/></g></svg>