<svg fill="none" height="501" viewBox="0 0 800 501" width="800" xmlns="https://www.w3.org/2000/svg"><path d="m0 .900024h800v500h-800z" fill="#efe5ff"/><g fill="#5700ff"><path d="m259.66 330.9h-106.528c-14.707 0-26.632-11.927-26.632-26.639v-106.555c0-14.712 11.925-26.639 26.632-26.639h106.528c14.707 0 26.632 11.927 26.632 26.639v106.555c0 14.712-11.925 26.639-26.632 26.639z" opacity=".1"/><path d="m206.096 200.702-1.998 19.979c-.193 1.958 1.345 3.663 3.316 3.663h42.258c1.838 0 3.329-1.492 3.329-3.33v-19.979c0-1.838-1.491-3.33-3.329-3.33h-40.267c-1.705 0-3.136 1.299-3.309 2.997z"/><path d="m179.43 304.261h-16.312c-1.838 0-3.329-1.492-3.329-3.33v-19.979c0-1.838 1.491-3.33 3.329-3.33h18.309c1.971 0 3.509 1.698 3.316 3.663l-1.998 19.979c-.173 1.698-1.604 2.997-3.315 2.997z"/><path d="m159.789 201.035v59.938c0 1.838 1.491 3.33 3.329 3.33h20.294c1.711 0 3.142-1.299 3.315-2.997l5.992-59.938c.193-1.958-1.345-3.663-3.315-3.663h-26.286c-1.838 0-3.329 1.492-3.329 3.33z"/><path d="m202.101 240.661-1.997 19.979c-.193 1.958 1.345 3.663 3.315 3.663h46.253c1.838 0 3.329-1.492 3.329-3.33v-19.979c0-1.839-1.491-3.33-3.329-3.33h-44.262c-1.704 0-3.136 1.298-3.309 2.997z"/><path d="m196.775 280.619-1.998 19.979c-.193 1.958 1.345 3.663 3.316 3.663h51.579c1.838 0 3.329-1.492 3.329-3.33v-19.979c0-1.838-1.491-3.33-3.329-3.33h-49.588c-1.705 0-3.136 1.299-3.309 2.997z" opacity=".4"/><path d="m352.192 209.34c-2.385-1.325-5.698-2.12-9.407-2.12-12.985 0-19.344 6.361-19.344 18.686v13.916h-7.685c-1.192 0-1.987.795-1.987 1.988v5.963c0 1.193.795 1.988 1.987 1.988h7.685v53.012c0 1.193.795 1.988 1.987 1.988h7.95c1.192 0 1.987-.795 1.987-1.988v-53.012h13.779c1.193 0 1.988-.795 1.988-1.988v-5.963c0-1.193-.795-1.988-1.988-1.988h-13.779v-12.988c0-5.699 1.457-9.012 8.347-9.012 2.782 0 5.035.795 7.42 2.12 1.325.796 2.385.265 2.385-1.325v-6.891c0-1.061-.398-1.856-1.325-2.386zm18.284 15.771c4.107 0 7.154-3.181 7.154-7.157 0-4.108-3.047-7.289-7.154-7.289s-7.155 3.181-7.155 7.289c0 3.976 3.048 7.157 7.155 7.157zm3.975 14.711h-7.95c-1.192 0-1.987.795-1.987 1.988v60.963c0 1.193.795 1.988 1.987 1.988h7.95c1.192 0 1.987-.795 1.987-1.988v-60.963c0-1.193-.795-1.988-1.987-1.988z"/><path d="m455.932 239.822h-7.022c-1.192 0-1.855.795-1.987 1.988l-.53 8.084c-4.903-6.892-12.455-11.398-22.259-11.398-18.417 0-31.666 14.976-31.666 33.928 0 18.289 13.249 33.265 31.666 33.265 9.804 0 17.224-4.241 22.126-10.735l.663 7.819c.132 1.193.795 1.988 1.987 1.988h7.022c1.193 0 1.988-.795 1.988-1.988v-60.963c0-1.193-.795-1.988-1.988-1.988zm-30.606 54.999c-12.322 0-21.464-9.807-21.464-22.53 0-13.253 9.142-22.927 21.464-22.927s21.199 10.337 21.199 22.927c0 12.723-8.877 22.53-21.199 22.53z"/><path d="m485.534 256.653c0-6.096 5.697-8.349 10.335-8.349 5.697 0 9.539 2.253 14.706 6.361 1.06.928 2.12 1.193 2.915.132l3.048-3.843c.662-.928.927-1.855.132-2.783-5.432-6.361-13.912-9.807-21.199-9.807-11.659 0-21.331 7.289-21.331 18.289 0 21.735 34.448 16.433 34.448 30.614 0 5.566-5.035 8.482-11.792 8.482-7.42 0-13.779-4.374-17.622-7.554-1.192-.928-1.987-1.193-2.914-.133l-3.445 4.639c-.663.795-.663 1.59.132 2.518 4.637 5.433 13.25 10.867 24.247 10.867 11.394 0 23.053-7.156 23.053-18.686 0-23.193-34.713-17.229-34.713-30.747z"/><path d="m564.677 294.821c-12.587 0-21.464-9.94-21.464-22.53 0-12.988 8.877-22.927 21.464-22.927 9.01 0 13.25 4.241 17.092 7.686 1.06.928 1.987.928 2.915 0l4.505-4.241c.795-.795.927-1.855.132-2.783-6.095-7.024-14.574-11.53-24.776-11.53-18.682 0-32.726 14.976-32.726 33.795 0 18.422 14.044 33.398 32.726 33.398 10.467 0 19.079-4.506 25.174-11.531.795-.927.662-1.987-.133-2.783l-4.505-4.241c-.927-.927-1.855-1.06-2.915 0-3.709 3.579-8.214 7.687-17.489 7.687z"/><path d="m633.644 306.086c18.682 0 33.124-14.843 33.124-33.795 0-19.084-14.442-33.927-33.124-33.927-18.549 0-32.991 14.843-32.991 33.927 0 18.952 14.442 33.795 32.991 33.795zm0-10.867c-12.057 0-21.596-9.675-21.596-22.928 0-13.385 9.539-23.06 21.596-23.06 12.19 0 21.597 9.675 21.597 23.06 0 13.253-9.407 22.928-21.597 22.928z"/></g></svg>