<svg fill="none" height="501" viewBox="0 0 800 501" width="800" xmlns="https://www.w3.org/2000/svg"><path d="m0 .900024h800v500h-800z" fill="#fff"/><g fill="#f2306c"><path d="m328.817 174.181c1.954-1.322 3.948-2.594 6.015-3.794-2.067 1.192-4.061 2.472-6.015 3.794z"/><path d="m334.848 170.371c2.027-1.176 4.135-2.27 6.275-3.324-2.14 1.054-4.24 2.148-6.275 3.324z"/><path d="m342.55 166.358c2.14-1.022 4.321-1.994 6.575-2.894-2.254.9-4.435 1.881-6.575 2.894z"/><path d="m322.193 179.053c1.857-1.5 3.786-2.918 5.764-4.289-1.978 1.362-3.907 2.789-5.764 4.289z"/><path d="m489.062 305.809c-.924 1.776-1.889 3.527-2.91 5.229 1.021-1.702 1.986-3.453 2.91-5.229z"/><path d="m485.99 311.314c-2.392 3.964-5.043 7.734-7.945 11.317 2.902-3.583 5.561-7.345 7.945-11.317z"/><path d="m492.459 298.676c-.851 1.994-1.775 3.923-2.732 5.837.957-1.914 1.881-3.851 2.732-5.837z"/></g><path d="m450.547 338.528c-13.246 5.245-27.7 7.872-43.346 7.872-15.833 0-30.32-2.627-43.477-7.872s-24.474-12.517-33.934-21.807c-9.461-9.29-16.862-20.169-22.188-32.646-5.343-12.46-8.01-25.925-8.01-40.371s2.667-27.911 8.001-40.38c3.802-8.901 8.683-16.983 14.601-24.263-2.432 1.962-4.775 4.029-6.996 6.218-9.469 9.274-16.871 20.161-22.197 32.629-5.334 12.477-8.001 25.934-8.001 40.388s2.667 27.911 8.001 40.38c5.335 12.476 12.728 23.355 22.188 32.645 9.461 9.291 20.77 16.562 33.935 21.807 13.157 5.245 27.652 7.872 43.476 7.872 15.654 0 30.101-2.627 43.347-7.872s24.644-12.516 34.194-21.807c2.829-2.748 5.448-5.658 7.904-8.682-8.058 6.502-17.21 11.82-27.498 15.889z" fill="#efcf30"/><path d="m492.46 217.909c-5.335-12.468-12.777-23.355-22.318-32.646-9.542-9.29-20.948-16.554-34.194-21.807-13.247-5.237-27.693-7.863-43.347-7.863-15.832 0-30.319 2.626-43.476 7.871-10.061 4.013-19.035 9.218-26.931 15.589-5.91 7.28-10.79 15.363-14.6 24.264-5.334 12.476-8.001 25.933-8.001 40.388 0 14.454 2.667 27.911 8.001 40.379 5.334 12.476 12.728 23.356 22.188 32.646 9.461 9.29 20.77 16.562 33.935 21.807 13.157 5.245 27.652 7.871 43.476 7.871 15.654 0 30.1-2.626 43.347-7.871 10.287-4.078 19.448-9.388 27.498-15.897 5.845-7.199 10.66-15.176 14.413-23.956 5.327-12.468 8.002-25.933 8.002-40.379s-2.659-27.92-7.993-40.396zm-41.985 54.509c-2.927 6.543-6.923 12.217-11.998 17.033-5.075 4.815-10.928 8.56-17.543 11.228-6.623 2.667-13.635 3.996-21.029 3.996-7.401 0-14.413-1.329-21.029-3.996-6.623-2.668-12.427-6.405-17.421-11.228-4.994-4.816-8.95-10.49-11.868-17.033-2.927-6.534-4.386-13.676-4.386-21.417 0-7.742 1.459-14.876 4.386-21.418 2.918-6.534 6.874-12.209 11.868-17.033 4.986-4.815 10.79-8.56 17.421-11.227 6.624-2.667 13.628-3.997 21.029-3.997 7.394 0 14.406 1.338 21.029 3.997 6.623 2.667 12.468 6.412 17.543 11.227 5.075 4.816 9.071 10.491 11.998 17.033 2.918 6.542 4.386 13.676 4.386 21.418 0 7.733-1.468 14.875-4.386 21.417z" fill="#f2306c"/><path d="m314.127 190.54c1.192-1.986 2.457-3.915 3.778-5.804-1.321 1.889-2.586 3.818-3.778 5.804z" fill="#f2306c"/><path d="m311.031 196.102c.956-1.833 1.937-3.632 2.991-5.392-1.046 1.76-2.043 3.559-2.991 5.392z" fill="#f2306c"/><path d="m307.593 203.317c.86-2.011 1.792-3.973 2.765-5.902-.973 1.937-1.905 3.891-2.765 5.902z" fill="#f2306c"/><path d="m318.042 184.541c1.322-1.88 2.7-3.713 4.151-5.488-1.451 1.783-2.837 3.616-4.151 5.488z" fill="#f2306c"/><path d="m507.051 203.316c-5.334-12.468-12.776-23.355-22.318-32.645-9.549-9.291-20.947-16.554-34.194-21.807-13.246-5.237-27.692-7.864-43.346-7.864-15.833 0-30.32 2.627-43.477 7.872s-24.474 12.516-33.934 21.807c-2.708 2.659-5.221 5.455-7.596 8.374 7.895-6.372 16.87-11.576 26.93-15.589 13.165-5.245 27.66-7.872 43.484-7.872 15.655 0 30.101 2.627 43.347 7.872s24.644 12.516 34.194 21.807c9.55 9.29 16.984 20.169 22.318 32.645 5.326 12.477 8.001 25.934 8.001 40.38s-2.667 27.911-8.001 40.38c-3.753 8.779-8.577 16.756-14.414 23.955-1.953 1.581-3.988 3.089-6.072 4.532 4.564-3.146 8.829-6.607 12.76-10.434 9.55-9.29 16.984-20.169 22.318-32.645 5.326-12.469 8.001-25.934 8.001-40.38s-2.667-27.911-8.001-40.388z" fill="#ad30ef"/><path d="m471.503 327.479c-2.043 1.394-4.143 2.724-6.315 3.98 2.172-1.256 4.264-2.594 6.315-3.98z" fill="#f2306c"/><path d="m457.3 335.569c-2.205 1.046-4.442 2.043-6.761 2.959 2.319-.916 4.556-1.921 6.761-2.959z" fill="#f2306c"/><path d="m465.107 331.508c-2.092 1.208-4.256 2.343-6.469 3.421 2.213-1.086 4.377-2.213 6.469-3.421z" fill="#f2306c"/></svg>